<?xml version="1.0" encoding="utf-8"?>
<!-- Generator: Adobe Illustrator 16.0.0, SVG Export Plug-In . SVG Version: 6.00 Build 0)  -->
<!DOCTYPE svg PUBLIC "-//W3C//DTD SVG 1.0//EN" "http://www.w3.org/TR/2001/REC-SVG-20010904/DTD/svg10.dtd">
<svg version="1.0" id="Layer_1" xmlns="http://www.w3.org/2000/svg" xmlns:xlink="http://www.w3.org/1999/xlink" x="0px" y="0px"
	 width="25px" height="25px" viewBox="0 0 25 25" enable-background="new 0 0 25 25" xml:space="preserve">
<path fill-rule="evenodd" clip-rule="evenodd" fill="#CCC6C1" d="M14.571,1.891c-0.379-0.086-0.765-0.126-1.148-0.188
	c-0.439,0-0.883,0-1.323,0c-0.433,0.074-0.874,0.115-1.296,0.229C7.498,2.82,5.386,4.92,4.516,8.232
	c-0.476,1.81-0.204,3.582,0.412,5.318c0.72,2.029,1.795,3.869,3.012,5.632c1.068,1.545,2.243,3.003,3.512,4.385
	c0.296,0.323,0.607,0.617,1.044,0.734c0.177,0,0.355,0,0.53,0c0.619-0.162,0.978-0.654,1.371-1.095
	c1.817-2.038,3.461-4.207,4.796-6.6c0.812-1.453,1.479-2.966,1.841-4.599C22.054,7.411,19.148,2.907,14.571,1.891z M12.738,13.631
	c-2.048-0.004-3.688-1.665-3.683-3.729C9.06,7.87,10.71,6.23,12.759,6.23c2.055,0,3.7,1.647,3.696,3.708
	C16.453,11.988,14.798,13.635,12.738,13.631z"/>
</svg>
