<?xml version="1.0" encoding="utf-8"?>
<!-- Generator: Adobe Illustrator 16.0.0, SVG Export Plug-In . SVG Version: 6.00 Build 0)  -->
<!DOCTYPE svg PUBLIC "-//W3C//DTD SVG 1.0//EN" "http://www.w3.org/TR/2001/REC-SVG-20010904/DTD/svg10.dtd">
<svg version="1.0" id="Layer_1" xmlns="http://www.w3.org/2000/svg" xmlns:xlink="http://www.w3.org/1999/xlink" x="0px" y="0px"
	 width="34px" height="28px" viewBox="0 0 34 28" enable-background="new 0 0 34 28" xml:space="preserve">
<path fill="#FFFFFF" d="M32.729,14.286L21.367,2.924c-0.391-0.391-1.023-0.391-1.414,0s-0.391,1.023,0,1.414l9.654,9.655H2.688v-12
	c0-0.552-0.447-1-1-1s-1,0.448-1,1v13c0,0.552,0.447,0.999,1,0.999h27.92l-9.654,9.656c-0.391,0.391-0.391,1.023,0,1.414
	c0.195,0.195,0.451,0.293,0.707,0.293s0.512-0.098,0.707-0.293l11.361-11.363C33.119,15.309,33.119,14.677,32.729,14.286z"/>
</svg>
