<?xml version="1.0" encoding="utf-8"?>
<!-- Generator: Adobe Illustrator 16.0.0, SVG Export Plug-In . SVG Version: 6.00 Build 0)  -->
<!DOCTYPE svg PUBLIC "-//W3C//DTD SVG 1.1//EN" "http://www.w3.org/Graphics/SVG/1.1/DTD/svg11.dtd">
<svg version="1.1" id="Layer_1" xmlns="http://www.w3.org/2000/svg" xmlns:xlink="http://www.w3.org/1999/xlink" x="0px" y="0px"
	 width="42px" height="42px" viewBox="0 0 42 42" enable-background="new 0 0 42 42" xml:space="preserve">
<g>
	<path fill="#B49B71" d="M21.108,7.898l3.096,9.217l0.458,1.364l1.438,0l9.878-0.003l-8.059,5.956l-1.154,0.853l0.438,1.366
		l2.925,9.128l-7.857-5.642l-1.167-0.837l-1.167,0.838l-7.891,5.668l2.885-9.165l0.422-1.342l-1.12-0.852l-7.83-5.948h9.737h1.443
		l0.455-1.369L21.108,7.898 M21.098,1.586l-4.955,14.913H0.467l12.559,9.541L8.337,40.934l12.769-9.173l12.775,9.173l-4.772-14.895
		l12.944-9.566L26.1,16.479L21.098,1.586L21.098,1.586z"/>
</g>
</svg>
