<?xml version="1.0" encoding="utf-8"?>
<!-- Generator: Adobe Illustrator 16.0.0, SVG Export Plug-In . SVG Version: 6.00 Build 0)  -->
<!DOCTYPE svg PUBLIC "-//W3C//DTD SVG 1.1//EN" "http://www.w3.org/Graphics/SVG/1.1/DTD/svg11.dtd">
<svg version="1.1" id="Layer_1" xmlns="http://www.w3.org/2000/svg" xmlns:xlink="http://www.w3.org/1999/xlink" x="0px" y="0px"
	 width="11px" height="22px" viewBox="0 0 11 22" enable-background="new 0 0 11 22" xml:space="preserve">
<path fill-rule="evenodd" clip-rule="evenodd" fill="#A7A9AC" d="M7.179,0.327c0,0.869,0,1.625,0,2.419
	C7.836,2.918,8.434,3.03,9.002,3.229c0.532,0.185,1.034,0.462,1.636,0.738c-0.354,0.941-0.686,1.821-1.033,2.737
	C9.111,6.475,8.701,6.285,8.29,6.091C7.477,5.702,6.617,5.575,5.723,5.654C4.882,5.732,4.306,6.139,4.17,6.782
	C4.016,7.508,4.164,8.159,4.819,8.599c0.346,0.234,0.708,0.449,1.08,0.643c0.811,0.424,1.645,0.809,2.45,1.242
	c1.896,1.023,2.864,2.591,2.676,4.778c-0.178,2.037-1.331,3.348-3.157,4.135c-0.242,0.107-0.482,0.208-0.792,0.34
	c0,0.841,0,1.671,0,2.589c-0.94,0-1.799,0-2.784,0c0-0.747,0-1.526,0-2.349c-1.432-0.433-2.871-0.592-4-1.643
	c0.314-0.874,0.637-1.762,0.929-2.572c1.03,0.376,1.977,0.784,2.96,1.056c0.536,0.149,1.139,0.129,1.702,0.063
	c0.72-0.081,1.301-0.462,1.522-1.207c0.233-0.789,0.117-1.536-0.523-2.095c-0.37-0.323-0.807-0.573-1.242-0.805
	c-0.947-0.498-1.954-0.881-2.853-1.455c-1.831-1.156-2.521-2.904-2.04-4.924c0.331-1.39,1.216-2.35,2.467-2.986
	C3.585,3.22,3.977,3.074,4.438,2.875c0-0.829,0-1.658,0-2.548C5.363,0.327,6.187,0.327,7.179,0.327z"/>
</svg>
