<?xml version="1.0" encoding="utf-8"?>
<!-- Generator: Adobe Illustrator 16.0.0, SVG Export Plug-In . SVG Version: 6.00 Build 0)  -->
<!DOCTYPE svg PUBLIC "-//W3C//DTD SVG 1.1//EN" "http://www.w3.org/Graphics/SVG/1.1/DTD/svg11.dtd">
<svg version="1.1" id="Layer_1" xmlns="http://www.w3.org/2000/svg" xmlns:xlink="http://www.w3.org/1999/xlink" x="0px" y="0px"
	 width="28px" height="28px" viewBox="0 0 28 28" enable-background="new 0 0 28 28" xml:space="preserve">
<g>
	<g>
		<path fill="#414042" d="M14.711,26.178c0,0-0.018,0-0.018,0c-3.051-0.004-5.921-1.198-8.081-3.363
			c-2.159-2.165-3.345-5.037-3.339-8.087C3.284,8.431,8.431,3.308,14.748,3.308c6.334,0.018,11.455,5.154,11.444,11.45
			C26.183,21.055,21.033,26.178,14.711,26.178z M14.774,4.808c-5.518,0-9.992,4.451-10.001,9.922
			c-0.005,2.649,1.025,5.144,2.902,7.025c1.876,1.881,4.37,2.919,7.02,2.923l0.016,0.75v-0.75c5.496,0,9.974-4.451,9.98-9.923
			C24.7,9.285,20.252,4.823,14.774,4.808z"/>
	</g>
</g>
<g>
	<path fill-rule="evenodd" clip-rule="evenodd" fill="#414042" d="M15.59,8.49c0,0.494,0,0.924,0,1.374
		c0.374,0.099,0.714,0.162,1.037,0.274c0.303,0.105,0.588,0.263,0.929,0.421c-0.2,0.534-0.389,1.034-0.586,1.556
		c-0.28-0.132-0.514-0.238-0.748-0.35c-0.462-0.221-0.95-0.293-1.459-0.247c-0.478,0.044-0.806,0.275-0.883,0.641
		c-0.087,0.412-0.004,0.783,0.369,1.033c0.196,0.132,0.402,0.255,0.614,0.364c0.461,0.242,0.935,0.461,1.393,0.707
		c1.077,0.581,1.628,1.472,1.521,2.716c-0.102,1.158-0.758,1.903-1.796,2.351c-0.137,0.062-0.273,0.117-0.449,0.193
		c0,0.478,0,0.949,0,1.471c-0.535,0-1.022,0-1.583,0c0-0.425,0-0.867,0-1.335c-0.813-0.245-1.632-0.336-2.274-0.934
		c0.18-0.497,0.362-1.001,0.528-1.462c0.586,0.214,1.124,0.445,1.683,0.6c0.305,0.085,0.648,0.074,0.968,0.036
		c0.409-0.047,0.74-0.263,0.865-0.687c0.133-0.449,0.067-0.873-0.298-1.191c-0.21-0.183-0.458-0.326-0.705-0.457
		c-0.539-0.283-1.111-0.5-1.622-0.827c-1.04-0.657-1.434-1.651-1.16-2.799c0.188-0.79,0.692-1.336,1.402-1.697
		c0.211-0.107,0.435-0.19,0.697-0.303c0-0.471,0-0.943,0-1.448C14.559,8.49,15.026,8.49,15.59,8.49z"/>
</g>
</svg>
