<?xml version="1.0" encoding="utf-8"?>
<!-- Generator: Adobe Illustrator 16.0.0, SVG Export Plug-In . SVG Version: 6.00 Build 0)  -->
<!DOCTYPE svg PUBLIC "-//W3C//DTD SVG 1.1//EN" "http://www.w3.org/Graphics/SVG/1.1/DTD/svg11.dtd">
<svg version="1.1" id="Layer_1" xmlns="http://www.w3.org/2000/svg" xmlns:xlink="http://www.w3.org/1999/xlink" x="0px" y="0px"
	 width="28px" height="28px" viewBox="0 0 28 28" enable-background="new 0 0 28 28" xml:space="preserve">
<g>
	<g>
		<path fill="#414042" d="M14.724,26.027c-0.126,0-0.253-0.002-0.38-0.006c-6.155-0.2-11.093-5.384-11.009-11.556
			C3.418,8.282,8.537,3.238,14.744,3.223c0.001,0,0.006,0,0.01,0c3.101,0.032,5.99,1.257,8.139,3.452
			c2.122,2.168,3.271,5.037,3.237,8.077c-0.035,3.091-1.288,5.974-3.526,8.116C20.467,24.914,17.682,26.027,14.724,26.027z
			 M8.102,21.956c1.678,1.525,3.877,2.487,6.291,2.565c2.688,0.096,5.239-0.885,7.173-2.736c1.945-1.862,3.034-4.366,3.064-7.051
			c0.016-1.347-0.237-2.655-0.733-3.864c-1.003,0.402-1.433,0.775-1.483,0.912c-0.249,0.979-0.551,1.522-1.076,1.932
			c-0.123,0.096-0.257,0.174-0.394,0.25c-0.026,0.015-0.054,0.03-0.081,0.045l0.011,0.042c0.037,0.146,0.072,0.293,0.129,0.433
			c0.223,0.541,0.25,1.106,0.084,1.728c-0.293,1.092-0.821,2.129-1.714,3.365c-0.221,0.305-0.482,0.603-0.801,0.908
			c-0.437,0.419-0.86,0.397-1.075,0.351c-0.213-0.049-0.603-0.215-0.813-0.78c-0.137-0.37-0.222-0.746-0.251-1.119
			c-0.032-0.384-0.053-0.774-0.072-1.165c-0.02-0.394-0.039-0.786-0.074-1.178c-0.077-0.86-0.285-1.355-0.717-1.708
			c-0.042-0.033-0.078-0.068-0.107-0.101c-0.292,0.214-0.672,0.364-1.272,0.165c-0.921-0.299-1.1-0.97-1.086-1.479
			c0.016-0.655,0.314-1.281,0.798-1.675c0.231-0.188,0.492-0.315,0.767-0.379c-0.297-0.636-0.876-1.541-1.278-1.565
			c-0.093,0.012-0.198,0.149-0.355,0.35c-0.268,0.34-0.635,0.807-1.29,0.853c-0.711,0.043-1.34-0.468-1.751-0.862
			C9.521,9.742,9.186,9.84,8.945,9.977c-0.602,0.341-0.947,1.199-0.895,1.43c0.23,0.285,0.458,0.42,0.641,0.529
			c0.21,0.125,0.528,0.315,0.611,0.736c0.098,0.496-0.202,0.897-0.7,1.563c-0.05,0.067-0.082,0.119-0.102,0.156
			c0.129,0.098,0.403,0.234,0.595,0.33c0.601,0.299,1.349,0.671,1.752,1.415c0.708,1.305-0.215,1.975-0.609,2.261
			c-0.336,0.244-0.372,0.3-0.369,0.414c0.034,1.137-1.065,2.361-1.722,3.094C8.133,21.921,8.117,21.938,8.102,21.956z M14.744,4.723
			c-5.392,0.016-9.836,4.395-9.909,9.763c-0.033,2.402,0.81,4.632,2.232,6.377c0.394-0.439,1.32-1.488,1.305-2.011
			c-0.027-0.936,0.608-1.396,0.987-1.671c0.078-0.057,0.19-0.138,0.244-0.19C9.59,16.975,9.571,16.925,9.53,16.85
			c-0.178-0.327-0.647-0.561-1.102-0.786c-0.588-0.293-1.254-0.624-1.421-1.323c-0.105-0.442,0.027-0.915,0.394-1.405
			c0.05-0.067,0.138-0.184,0.223-0.302c-0.229-0.16-0.511-0.4-0.805-0.79c-0.646-0.853-0.052-2.376,0.885-3.211
			c1.037-0.922,2.312-0.896,3.326,0.076c0.439,0.42,0.623,0.449,0.624,0.449c-0.007-0.02,0.119-0.179,0.202-0.284
			c0.286-0.363,0.768-0.967,1.623-0.919c1.785,0.106,2.857,2.979,2.87,3.502c0.008,0.33-0.111,0.618-0.337,0.812
			c-0.132,0.111-0.413,0.29-0.851,0.208c-0.116-0.021-0.218,0.006-0.313,0.084c-0.146,0.118-0.239,0.327-0.245,0.545
			c0.011,0.004,0.024,0.01,0.041,0.015c0.303-0.236,0.698-0.412,1.337-0.186c0.195,0.069,0.331,0.186,0.413,0.255
			c0.031,0.027,0.128,0.128,0.155,0.161c0.94,0.768,1.153,1.853,1.23,2.709c0.036,0.411,0.058,0.823,0.078,1.235
			c0.02,0.373,0.038,0.747,0.069,1.119c0.004,0.051,0.01,0.102,0.018,0.153c0.077-0.091,0.147-0.181,0.211-0.269
			c0.782-1.082,1.238-1.969,1.481-2.874c0.08-0.301,0.073-0.539-0.022-0.771c-0.084-0.205-0.141-0.419-0.195-0.635l-0.039-0.153
			c-0.148-0.564,0.049-1.097,0.527-1.428c0.098-0.067,0.201-0.126,0.306-0.185c0.069-0.039,0.141-0.075,0.203-0.124
			c0.128-0.1,0.323-0.252,0.545-1.122c0.18-0.708,0.938-1.339,2.258-1.884c-0.391-0.645-0.858-1.25-1.398-1.802
			C19.954,5.817,17.441,4.751,14.744,4.723z"/>
	</g>
</g>
</svg>
