<?xml version="1.0" encoding="utf-8"?>
<!-- Generator: Adobe Illustrator 16.0.0, SVG Export Plug-In . SVG Version: 6.00 Build 0)  -->
<!DOCTYPE svg PUBLIC "-//W3C//DTD SVG 1.1//EN" "http://www.w3.org/Graphics/SVG/1.1/DTD/svg11.dtd">
<svg version="1.1" id="Layer_1" xmlns="http://www.w3.org/2000/svg" xmlns:xlink="http://www.w3.org/1999/xlink" x="0px" y="0px"
	 width="28px" height="28px" viewBox="0 0 28 28" enable-background="new 0 0 28 28" xml:space="preserve">
<g>
	<g>
		<path fill="#414042" d="M18.544,24.991c-0.002,0-0.039,0-0.04,0c-1.628-0.01-3.23-0.504-4.897-1.512
			c-1.466-0.884-2.83-2.045-4.292-3.653c-1.456-1.601-2.518-3.045-3.343-4.547c-0.769-1.399-1.24-2.716-1.439-4.025
			c-0.048-0.307-0.071-0.621-0.087-0.86l-0.014-0.19C4.445,7.923,5.129,6.18,6.519,4.804c0.433-0.426,0.931-0.852,1.567-1.34
			c0.887-0.682,2.03-0.593,2.84,0.222c0.378,0.381,0.708,0.78,0.979,1.185l0.117,0.172c0.493,0.728,1.002,1.481,1.309,2.385
			c0.417,1.216,0.163,2.287-0.734,3.094c-0.407,0.366-0.779,0.702-1.204,0.991c-0.452,0.309-0.645,0.625-0.37,1.406
			c0.271,0.767,0.75,1.433,1.227,2.039c0.572,0.724,1.351,1.655,2.299,2.426c0.412,0.337,0.863,0.665,1.387,0.79
			c0.217,0.053,0.409,0.131,0.795-0.239c0.46-0.441,0.854-0.818,1.269-1.172c0.919-0.782,2.045-0.896,3.158-0.312
			c0.45,0.238,0.868,0.515,1.241,0.823c0.607,0.504,1.189,1.043,1.727,1.552c0.27,0.257,0.457,0.557,0.591,0.789
			c0.518,0.903,0.399,1.855-0.316,2.549l-0.134,0.13c-0.644,0.624-1.309,1.27-2.149,1.751
			C21.021,24.673,19.819,24.991,18.544,24.991z M9.387,4.498C9.265,4.498,9.134,4.55,9,4.653c-0.587,0.45-1.04,0.837-1.426,1.218
			c-1.108,1.097-1.631,2.455-1.646,4.273l0.014,0.146c0.014,0.204,0.032,0.471,0.073,0.735c0.173,1.135,0.588,2.289,1.271,3.531
			c0.767,1.396,1.764,2.75,3.138,4.26c1.362,1.498,2.62,2.572,3.958,3.379c1.43,0.864,2.781,1.288,4.131,1.296l0.031,0.75v-0.75
			c1.024,0,1.949-0.244,2.827-0.747c0.678-0.389,1.248-0.941,1.851-1.527l0.136-0.131c0.154-0.149,0.285-0.328,0.059-0.724
			c-0.077-0.134-0.194-0.326-0.323-0.449c-0.516-0.487-1.076-1.008-1.649-1.483c-0.294-0.242-0.625-0.462-0.984-0.651
			c-0.567-0.298-1.026-0.266-1.486,0.127c-0.393,0.334-0.764,0.69-1.135,1.047c-0.712,0.682-1.444,0.873-2.249,0.681
			c-0.821-0.196-1.465-0.659-1.987-1.087c-1.061-0.862-1.908-1.874-2.528-2.659c-0.531-0.674-1.12-1.494-1.464-2.469
			c-0.471-1.338-0.155-2.395,0.938-3.143c0.342-0.233,0.662-0.521,1-0.826c0.492-0.442,0.587-0.89,0.365-1.538
			c-0.242-0.715-0.674-1.353-1.131-2.028l-0.119-0.176c-0.22-0.328-0.489-0.652-0.8-0.966C9.751,4.631,9.579,4.498,9.387,4.498z"/>
	</g>
</g>
</svg>
