<?xml version="1.0" encoding="utf-8"?>
<!-- Generator: Adobe Illustrator 16.0.0, SVG Export Plug-In . SVG Version: 6.00 Build 0)  -->
<!DOCTYPE svg PUBLIC "-//W3C//DTD SVG 1.1//EN" "http://www.w3.org/Graphics/SVG/1.1/DTD/svg11.dtd">
<svg version="1.1" id="Layer_1" xmlns="http://www.w3.org/2000/svg" xmlns:xlink="http://www.w3.org/1999/xlink" x="0px" y="0px"
	 width="28px" height="28px" viewBox="0 0 28 28" enable-background="new 0 0 28 28" xml:space="preserve">
<g>
	<path fill="#414042" d="M15.018,27.004h-0.562c-0.065,0-0.131-0.009-0.194-0.025c-0.642-0.173-1.083-0.58-1.463-0.995
		c-1.382-1.505-2.654-3.093-3.78-4.721c-1.545-2.236-2.586-4.187-3.278-6.136c-0.793-2.233-0.942-4.219-0.455-6.07
		c0.988-3.762,3.405-6.185,7.185-7.203c0.336-0.09,0.681-0.142,1.025-0.192c0.139-0.021,0.277-0.041,0.414-0.064
		c0.042-0.007,0.084-0.011,0.126-0.011h1.401c0.04,0,0.08,0.003,0.12,0.01l0.384,0.057c0.294,0.042,0.587,0.085,0.877,0.15
		c5.243,1.165,8.566,6.37,7.405,11.603c-0.362,1.633-1.006,3.244-2.026,5.07c-1.321,2.369-3.013,4.697-5.17,7.117l-0.15,0.172
		c-0.39,0.447-0.874,1.004-1.67,1.213C15.146,26.996,15.082,27.004,15.018,27.004z M14.571,25.504h0.335
		c0.292-0.104,0.516-0.349,0.84-0.723l0.163-0.186c2.083-2.336,3.712-4.577,4.979-6.85c0.947-1.695,1.542-3.177,1.871-4.664
		c0.982-4.426-1.83-8.828-6.27-9.814c-0.253-0.057-0.506-0.093-0.76-0.129l-0.348-0.052H14.1c-0.128,0.021-0.257,0.04-0.386,0.059
		c-0.287,0.042-0.575,0.083-0.854,0.157C9.594,4.183,7.59,6.189,6.737,9.438c-0.414,1.571-0.281,3.22,0.417,5.187
		c0.646,1.822,1.631,3.66,3.098,5.785c1.086,1.57,2.315,3.104,3.651,4.559C14.146,25.233,14.347,25.419,14.571,25.504z
		 M14.721,15.711c-1.258-0.002-2.429-0.492-3.304-1.378c-0.874-0.885-1.354-2.063-1.351-3.319c0.006-2.556,2.1-4.635,4.669-4.635
		c1.252,0,2.425,0.484,3.303,1.363c0.879,0.88,1.361,2.057,1.359,3.313C19.394,13.622,17.296,15.711,14.721,15.711z M14.735,7.879
		c-1.744,0-3.165,1.408-3.169,3.138c-0.002,0.857,0.324,1.661,0.918,2.262c0.592,0.6,1.385,0.931,2.231,0.933
		c1.755,0,3.18-1.417,3.182-3.159c0.002-0.854-0.325-1.654-0.921-2.25C16.382,8.207,15.586,7.879,14.735,7.879z"/>
</g>
</svg>
