<?xml version="1.0" encoding="utf-8"?>
<!-- Generator: Adobe Illustrator 16.0.0, SVG Export Plug-In . SVG Version: 6.00 Build 0)  -->
<!DOCTYPE svg PUBLIC "-//W3C//DTD SVG 1.1//EN" "http://www.w3.org/Graphics/SVG/1.1/DTD/svg11.dtd">
<svg version="1.1" id="Layer_1" xmlns="http://www.w3.org/2000/svg" xmlns:xlink="http://www.w3.org/1999/xlink" x="0px" y="0px"
	 width="28px" height="28px" viewBox="0 0 28 28" enable-background="new 0 0 28 28" xml:space="preserve">
<g>
	<path fill="#414042" d="M11.419,3.345c0.1,0,0.16,0.054,0.178,0.146c0.017,0.086,0.027,0.178,0.027,0.266
		c0.001,1.508,0.001,3.014-0.001,4.522c-0.001,0.172,0.034,0.332,0.084,0.493c0.049,0.158,0.188,0.244,0.345,0.244
		c0.079,0,0.162-0.022,0.24-0.067c0.022-0.015,0.044-0.038,0.054-0.063c0.072-0.17,0.151-0.333,0.15-0.528
		c-0.004-1.518-0.002-3.037-0.003-4.556c0-0.243,0.014-0.302,0.182-0.302c0.037,0,0.081,0.003,0.134,0.007
		c0.167,0.014,0.334,0.034,0.5,0.062c0.131,0.021,0.181,0.081,0.194,0.215c0.014,0.117,0.024,0.235,0.028,0.352
		c0.017,0.464,0.031,0.93,0.038,1.393c0.016,0.802,0.025,1.604,0.042,2.403c0.014,0.615,0.053,1.231,0.056,1.847
		c0.001,0.34-0.013,0.688-0.083,1.019c-0.102,0.474-0.293,0.922-0.638,1.277c-0.253,0.26-0.517,0.512-0.792,0.748
		c-0.286,0.247-0.425,0.543-0.398,0.916c0.029,0.414,0.054,0.827,0.096,1.24c0.067,0.674,0.155,1.345,0.218,2.02
		c0.074,0.798,0.133,1.595,0.193,2.394c0.032,0.419,0.068,0.838,0.083,1.257c0.015,0.472,0.021,0.942,0.002,1.412
		c-0.022,0.548-0.063,1.095-0.119,1.641c-0.039,0.384-0.104,0.764-0.22,1.136c-0.054,0.172-0.117,0.336-0.204,0.494
		c-0.174,0.313-0.385,0.445-0.72,0.445c-0.059,0-0.122-0.004-0.189-0.012c-0.272-0.029-0.426-0.197-0.554-0.41
		c-0.153-0.253-0.236-0.532-0.293-0.817c-0.163-0.81-0.238-1.629-0.244-2.454c-0.005-0.521-0.015-1.042,0.005-1.563
		c0.022-0.621,0.066-1.242,0.111-1.862c0.045-0.629,0.102-1.26,0.158-1.89c0.032-0.38,0.079-0.758,0.111-1.138
		c0.055-0.602,0.086-1.207,0.16-1.806c0.061-0.505-0.172-0.838-0.529-1.143c-0.272-0.231-0.539-0.477-0.767-0.751
		c-0.243-0.294-0.379-0.653-0.494-1.021c-0.113-0.361-0.135-0.724-0.13-1.094c0.006-0.685-0.003-1.368,0.011-2.051
		c0.011-0.454,0.052-0.905,0.076-1.357c0.017-0.325,0.03-0.649,0.04-0.975c0.015-0.515,0.025-1.03,0.039-1.545
		c0.006-0.241,0.054-0.3,0.288-0.333c0.188-0.024,0.377-0.042,0.567-0.053c0.01,0,0.019,0,0.028,0c0.121,0,0.15,0.042,0.159,0.176
		C9.642,3.721,9.64,3.767,9.64,3.811c-0.001,1.498,0,2.993-0.002,4.489c0,0.213,0.026,0.416,0.181,0.578
		c0.061,0.064,0.13,0.104,0.221,0.107c0.004,0,0.008,0,0.012,0c0.095,0,0.175-0.029,0.244-0.102
		c0.131-0.137,0.188-0.297,0.188-0.488c-0.004-0.784-0.001-1.568-0.001-2.353c0-0.757-0.002-1.513,0.001-2.27
		c0.001-0.1,0.015-0.2,0.03-0.298c0.012-0.082,0.061-0.128,0.148-0.128C10.915,3.346,11.167,3.346,11.419,3.345 M9.48,2.002
		c-0.022,0-0.564,0.037-0.789,0.066C7.713,2.207,7.124,2.872,7.098,3.849L7.08,4.548L7.059,5.39C7.049,5.703,7.037,6.016,7.02,6.33
		C7.012,6.486,7.001,6.644,6.991,6.801C6.97,7.11,6.95,7.42,6.942,7.73C6.934,8.162,6.933,8.589,6.933,9.016
		c0,0.263,0,0.525-0.002,0.788c-0.005,0.408,0.012,0.961,0.199,1.556c0.148,0.474,0.355,1.027,0.77,1.527
		c0.322,0.388,0.672,0.7,0.942,0.931c-0.038,0.345-0.065,0.693-0.092,1.042c-0.016,0.211-0.033,0.423-0.052,0.634
		c-0.016,0.19-0.035,0.37-0.054,0.55c-0.021,0.199-0.042,0.398-0.059,0.598l-0.005,0.058c-0.055,0.617-0.11,1.235-0.154,1.853
		c-0.047,0.645-0.092,1.278-0.114,1.916c-0.019,0.479-0.013,0.953-0.008,1.412l0.002,0.217c0.007,0.947,0.099,1.869,0.273,2.735
		c0.065,0.324,0.186,0.813,0.481,1.3c0.503,0.834,1.189,1.071,1.676,1.124c0.115,0.014,0.236,0.021,0.35,0.021
		c0.874,0,1.595-0.432,2.031-1.217c0.129-0.234,0.23-0.478,0.323-0.771c0.136-0.44,0.228-0.907,0.281-1.435
		c0.062-0.615,0.103-1.182,0.125-1.732c0.022-0.566,0.011-1.109-0.001-1.52c-0.013-0.382-0.042-0.759-0.072-1.137l-0.015-0.188
		l-0.014-0.184c-0.056-0.745-0.112-1.489-0.181-2.233c-0.036-0.381-0.079-0.761-0.122-1.14c-0.034-0.297-0.067-0.594-0.097-0.891
		c-0.034-0.329-0.056-0.655-0.078-0.982l0-0.004c0.25-0.221,0.503-0.464,0.755-0.723c0.509-0.523,0.855-1.198,1.029-2.007
		c0.105-0.497,0.118-0.976,0.116-1.338c-0.001-0.385-0.017-0.767-0.031-1.149c-0.01-0.243-0.02-0.486-0.024-0.729
		c-0.01-0.42-0.016-0.844-0.022-1.268l-0.02-1.131c-0.008-0.467-0.022-0.942-0.039-1.417c-0.006-0.161-0.02-0.321-0.038-0.479
		c-0.077-0.782-0.659-1.476-1.462-1.602C13.342,1.97,9.616,2.002,9.48,2.002z"/>
	<path fill="#414042" d="M17.621,3.537c0.007,0,0.014,0,0.021,0c0.188,0.014,0.374,0.053,0.559,0.086
		c0.044,0.007,0.085,0.035,0.128,0.044c0.521,0.124,0.9,0.458,1.221,0.863c0.287,0.362,0.5,0.767,0.617,1.221
		c0.05,0.194,0.128,0.381,0.192,0.57c0.018,0.054,0.032,0.108,0.042,0.164c0.213,1.08,0.32,2.171,0.297,3.273
		c-0.016,0.463-0.026,0.929-0.049,1.393c-0.014,0.337-0.098,0.662-0.189,0.986c-0.172,0.6-0.482,1.129-0.806,1.653
		c-0.229,0.371-0.45,0.749-0.662,1.13c-0.201,0.365-0.253,0.772-0.288,1.18c-0.005,0.061,0.009,0.122,0.015,0.183
		c0.018,0.15,0.033,0.301,0.052,0.451c0.009,0.088,0.019,0.179,0.037,0.265c0.108,0.504,0.228,1.005,0.328,1.51
		c0.099,0.494,0.157,0.995,0.169,1.501c0.01,0.373,0.033,0.749,0.027,1.124c-0.014,0.733-0.022,1.468-0.071,2.199
		c-0.03,0.449-0.064,0.901-0.185,1.345c-0.068,0.248-0.137,0.493-0.259,0.724c-0.166,0.313-0.433,0.402-0.747,0.402
		c-0.023,0-0.047,0-0.071-0.001c-0.051-0.003-0.1-0.019-0.15-0.023c-0.263-0.021-0.421-0.19-0.546-0.397
		c-0.177-0.291-0.249-0.619-0.313-0.95c-0.125-0.648-0.133-1.302-0.147-1.957c-0.01-0.537-0.061-1.073-0.079-1.61
		c-0.008-0.245,0.018-0.491,0.031-0.737c0.016-0.292,0.034-0.581,0.054-0.871c0.033-0.481,0.064-0.961,0.103-1.44
		c0.03-0.396,0.063-0.792,0.104-1.188c0.059-0.551,0.128-1.101,0.187-1.651c0.022-0.205,0.029-0.414,0.04-0.621
		c0.039-0.855,0.078-1.71,0.114-2.566c0.013-0.303,0.021-0.605,0.023-0.907c0.016-1.697,0.026-3.394,0.041-5.09
		c0.007-0.538,0.018-1.076,0.023-1.612c0-0.146-0.008-0.291-0.017-0.438C17.46,3.604,17.498,3.537,17.621,3.537 M17.621,2.037
		c-0.465,0-0.892,0.179-1.201,0.503c-0.222,0.233-0.48,0.643-0.451,1.273c0.008,0.136,0.015,0.252,0.015,0.368l-0.013,0.868
		L15.96,5.774l-0.018,2.271l-0.023,2.825c-0.003,0.285-0.01,0.571-0.022,0.858c-0.035,0.847-0.074,1.694-0.112,2.541l-0.008,0.141
		c-0.006,0.135-0.012,0.271-0.026,0.404c-0.029,0.274-0.061,0.543-0.092,0.813c-0.032,0.28-0.065,0.562-0.095,0.842
		c-0.044,0.412-0.077,0.822-0.109,1.233c-0.029,0.38-0.056,0.764-0.082,1.148l-0.021,0.303c-0.021,0.3-0.039,0.596-0.056,0.895
		l-0.011,0.171c-0.014,0.206-0.03,0.438-0.021,0.694c0.009,0.254,0.023,0.503,0.039,0.752c0.017,0.279,0.034,0.559,0.039,0.838
		l0.003,0.113c0.015,0.67,0.029,1.363,0.172,2.101c0.083,0.435,0.198,0.942,0.503,1.444c0.487,0.807,1.144,1.051,1.634,1.107
		c0.089,0.017,0.173,0.027,0.259,0.032c0.07,0.004,0.114,0.004,0.157,0.004c1.247,0,1.833-0.75,2.071-1.198
		c0.202-0.381,0.301-0.74,0.381-1.029c0.165-0.611,0.205-1.207,0.235-1.643c0.046-0.689,0.058-1.372,0.069-2.033l0.005-0.238
		c0.004-0.288-0.006-0.571-0.017-0.854l-0.012-0.338c-0.013-0.574-0.079-1.166-0.197-1.756c-0.065-0.329-0.139-0.657-0.212-0.985
		l-0.12-0.546c-0.006-0.029-0.008-0.064-0.012-0.099l-0.033-0.288l-0.021-0.184c0.016-0.156,0.044-0.372,0.097-0.469
		c0.199-0.357,0.409-0.715,0.626-1.067c0.368-0.598,0.747-1.247,0.971-2.027c0.108-0.385,0.226-0.833,0.246-1.338
		c0.016-0.324,0.025-0.66,0.036-0.996l0.013-0.407c0.025-1.185-0.084-2.395-0.324-3.614c-0.017-0.096-0.049-0.219-0.088-0.34
		l-0.081-0.227c-0.03-0.083-0.063-0.165-0.084-0.25C21.453,4.738,21.152,4.14,20.725,3.6c-0.567-0.717-1.205-1.164-1.947-1.365
		c-0.089-0.034-0.198-0.068-0.331-0.09l-0.085-0.016c-0.169-0.031-0.379-0.07-0.61-0.087C17.715,2.039,17.658,2.037,17.621,2.037
		L17.621,2.037z"/>
</g>
</svg>
