<?xml version="1.0" encoding="utf-8"?>
<!-- Generator: Adobe Illustrator 16.0.0, SVG Export Plug-In . SVG Version: 6.00 Build 0)  -->
<!DOCTYPE svg PUBLIC "-//W3C//DTD SVG 1.1//EN" "http://www.w3.org/Graphics/SVG/1.1/DTD/svg11.dtd">
<svg version="1.1" id="Layer_1" xmlns="http://www.w3.org/2000/svg" xmlns:xlink="http://www.w3.org/1999/xlink" x="0px" y="0px"
	 width="28px" height="28px" viewBox="0 0 28 28" enable-background="new 0 0 28 28" xml:space="preserve">
<g>
	<g>
		<path fill="#414042" d="M21.217,25.189c-0.005,0-0.013,0-0.02,0c-0.144,0-0.288-0.041-0.413-0.124
			c-0.126-0.083-4.598-3.192-6.59-4.579c-0.004-0.003-0.009-0.006-0.014-0.01c-0.004,0.003-0.008,0.006-0.012,0.009
			c-2.055,1.428-6.555,4.542-6.555,4.542c-0.265,0.184-0.619,0.177-0.877-0.018c-0.258-0.193-0.363-0.531-0.261-0.837
			c0,0,1.655-4.957,2.466-7.329c-2.056-1.429-6.469-4.552-6.469-4.552c-0.267-0.189-0.381-0.528-0.282-0.84
			c0.099-0.311,0.388-0.522,0.715-0.522h0l7.902,0.006l0.142,0c0.541-1.608,2.529-7.318,2.529-7.318
			c0.105-0.301,0.39-0.503,0.708-0.503c0,0,0.001,0,0.001,0c0.32,0,0.604,0.204,0.708,0.505c0,0,1.721,4.991,2.493,7.271
			c0.006,0.016,0.011,0.031,0.016,0.045c0.008,0,0.016,0,0.024,0h0.325c2.685,0,7.692,0.033,7.692,0.033
			c0.326,0.002,0.614,0.215,0.711,0.526c0.098,0.312-0.018,0.65-0.285,0.838c0,0-4.25,2.981-6.451,4.513
			c0.694,2.038,2.128,6.272,2.437,7.207c0.068,0.112,0.107,0.245,0.107,0.387C21.967,24.854,21.632,25.189,21.217,25.189z
			 M14.18,18.911c0.375,0,0.662,0.199,0.871,0.344c1.239,0.863,3.247,2.26,4.717,3.28c-0.57-1.689-1.352-3.995-1.835-5.412
			c-0.221-0.647-0.11-0.993,0.438-1.373c1.227-0.854,3.229-2.255,4.716-3.296c-1.663-0.009-3.851-0.019-5.331-0.019h-0.313
			c-0.834,0-1.202-0.269-1.472-1.063c-0.45-1.327-1.22-3.571-1.786-5.215c-0.645,1.857-1.538,4.436-1.829,5.311
			c-0.203,0.604-0.667,0.956-1.275,0.966l-0.273,0.001L5.27,12.431c1.458,1.029,3.4,2.396,4.558,3.201
			c0.675,0.463,0.813,0.886,0.543,1.672c-0.462,1.351-1.206,3.563-1.757,5.207c1.482-1.026,3.504-2.427,4.7-3.258
			C13.521,19.108,13.806,18.911,14.18,18.911z"/>
	</g>
</g>
</svg>
