<?xml version="1.0" encoding="utf-8"?>
<!-- Generator: Adobe Illustrator 16.0.0, SVG Export Plug-In . SVG Version: 6.00 Build 0)  -->
<!DOCTYPE svg PUBLIC "-//W3C//DTD SVG 1.1//EN" "http://www.w3.org/Graphics/SVG/1.1/DTD/svg11.dtd">
<svg version="1.1" id="Layer_1" xmlns="http://www.w3.org/2000/svg" xmlns:xlink="http://www.w3.org/1999/xlink" x="0px" y="0px"
	 width="28px" height="28px" viewBox="0 0 28 28" enable-background="new 0 0 28 28" xml:space="preserve">
<g>
	<g>
		<path fill="#414042" d="M14.711,25.503c0,0-0.018,0-0.018,0c-3.051-0.004-5.921-1.198-8.081-3.363
			c-2.159-2.165-3.345-5.037-3.339-8.087C3.284,7.756,8.431,2.633,14.748,2.633c6.334,0.018,11.455,5.154,11.444,11.45
			C26.183,20.38,21.033,25.503,14.711,25.503z M14.774,4.133c-5.518,0-9.992,4.451-10.001,9.922
			c-0.005,2.649,1.025,5.144,2.902,7.025c1.876,1.881,4.37,2.919,7.02,2.923l0.016,0.75v-0.75c5.496,0,9.974-4.451,9.98-9.923
			C24.7,8.61,20.252,4.148,14.774,4.133z"/>
	</g>
	<g>
		<path fill-rule="evenodd" clip-rule="evenodd" fill="#414042" d="M15.746,10.617c0,0.722,0.004,1.442-0.002,2.164
			c-0.001,0.124,0.035,0.203,0.132,0.28c0.474,0.373,0.655,0.87,0.536,1.451c-0.121,0.6-0.506,0.974-1.1,1.138
			c-0.122,0.035-0.25,0.104-0.341,0.194c-0.994,0.981-1.979,1.975-2.971,2.959c-0.453,0.448-1.169,0.256-1.318-0.35
			c-0.075-0.299,0.028-0.548,0.241-0.761c0.871-0.867,1.739-1.737,2.611-2.6c0.111-0.11,0.137-0.193,0.072-0.349
			c-0.242-0.582-0.065-1.255,0.432-1.651c0.136-0.106,0.172-0.216,0.172-0.376c-0.004-1.43-0.004-2.86-0.001-4.29
			c0.001-0.374,0.276-0.688,0.642-0.747c0.369-0.061,0.741,0.161,0.854,0.523c0.034,0.11,0.039,0.229,0.04,0.345
			C15.748,9.238,15.746,9.929,15.746,10.617z"/>
	</g>
</g>
</svg>
