<?xml version="1.0" encoding="utf-8"?>
<!-- Generator: Adobe Illustrator 16.0.0, SVG Export Plug-In . SVG Version: 6.00 Build 0)  -->
<!DOCTYPE svg PUBLIC "-//W3C//DTD SVG 1.1//EN" "http://www.w3.org/Graphics/SVG/1.1/DTD/svg11.dtd">
<svg version="1.1" id="Layer_1" xmlns="http://www.w3.org/2000/svg" xmlns:xlink="http://www.w3.org/1999/xlink" x="0px" y="0px"
	 width="28px" height="28px" viewBox="0 0 28 28" enable-background="new 0 0 28 28" xml:space="preserve">
<g>
	<g>
		<path fill="#414042" d="M20.276,25.462c-0.001,0-0.008,0-0.009,0l-6.25-0.003L7.575,25.46c-0.414,0-0.75-0.336-0.75-0.75v-6.65
			c-0.062-0.007-0.123-0.016-0.184-0.024c-2.518-0.409-4.379-2.285-4.761-4.786c-0.03-0.091-0.058-0.198-0.058-0.264V11.91
			c0-0.057,0.006-0.114,0.02-0.17l0.051-0.228c0.041-0.186,0.083-0.372,0.133-0.554c0.603-2.192,2.453-3.801,4.713-4.097
			c0.604-0.079,1.192-0.059,1.785,0.055c0.403-1.381,1.234-2.47,2.477-3.244c0.986-0.614,2.087-0.893,3.259-0.82
			c2.432,0.146,4.434,1.792,5.108,4.107c0.068-0.016,0.138-0.031,0.207-0.045c0.349-0.071,0.705-0.106,1.061-0.106
			c2.672,0,5.042,1.972,5.516,4.586c0.015,0.081,0.035,0.162,0.056,0.245c0.015,0.059,0.045,0.211,0.045,0.272v1.075
			c0,0.056-0.006,0.111-0.019,0.166l-0.05,0.233c-0.038,0.18-0.076,0.359-0.125,0.535c-0.618,2.278-2.483,3.873-4.802,4.139v1.162
			c-0.001,1.752-0.001,3.503,0.003,5.254C21.26,25.075,20.874,25.462,20.276,25.462z M20.272,23.962l0.004,0.75l0.003-0.75
			c-0.001,0-0.002,0-0.003,0l0,0C20.275,23.962,20.273,23.962,20.272,23.962z M14.018,23.959l5.741,0.003
			c-0.003-1.581-0.003-3.161-0.002-4.742v-1.862c0-0.398,0.312-0.728,0.709-0.749l0.371-0.019c1.812-0.104,3.298-1.31,3.775-3.069
			c0.041-0.148,0.071-0.297,0.103-0.446l0.037-0.169v-0.904c-0.037-0.149-0.059-0.244-0.076-0.34
			c-0.347-1.913-2.083-3.354-4.04-3.354c-0.256,0-0.512,0.026-0.763,0.076c-0.195,0.04-0.39,0.092-0.583,0.144l-0.305,0.08
			c-0.201,0.051-0.422,0.015-0.6-0.104c-0.176-0.118-0.294-0.304-0.325-0.514c-0.298-2.023-1.898-3.52-3.891-3.639
			c-0.861-0.051-1.657,0.148-2.376,0.596c-1.106,0.689-1.75,1.675-1.97,3.015C9.789,8.177,9.66,8.368,9.471,8.481
			C9.283,8.594,9.053,8.62,8.846,8.55c-0.657-0.22-1.273-0.286-1.912-0.202c-1.66,0.218-3.019,1.399-3.462,3.009
			c-0.044,0.159-0.079,0.319-0.115,0.479l-0.035,0.157v0.839c0.012,0.038,0.024,0.081,0.032,0.129
			c0.274,1.913,1.624,3.283,3.525,3.591c0.152,0.023,0.31,0.034,0.475,0.046l0.287,0.021c0.388,0.034,0.685,0.358,0.685,0.747v6.592
			L14.018,23.959z"/>
	</g>
</g>
</svg>
