<?xml version="1.0" encoding="utf-8"?>
<!-- Generator: Adobe Illustrator 16.0.0, SVG Export Plug-In . SVG Version: 6.00 Build 0)  -->
<!DOCTYPE svg PUBLIC "-//W3C//DTD SVG 1.1//EN" "http://www.w3.org/Graphics/SVG/1.1/DTD/svg11.dtd">
<svg version="1.1" id="Layer_1" xmlns="http://www.w3.org/2000/svg" xmlns:xlink="http://www.w3.org/1999/xlink" x="0px" y="0px"
	 width="28.35px" height="28.35px" viewBox="0 0 28.35 28.35" enable-background="new 0 0 28.35 28.35" xml:space="preserve">
<path fill="#093142" d="M22.224,3.614H6.133c-1.383,0-2.516,1.132-2.516,2.515V22.22c0,1.383,1.133,2.516,2.516,2.516h16.091
	c1.383,0,2.516-1.133,2.516-2.516V6.128C24.74,4.745,23.607,3.614,22.224,3.614z M14.178,20.46c-3.33,0-6.047-2.592-6.264-5.866
	h4.528v0.687c0,0.345,0.283,0.628,0.63,0.628h2.212c0.345,0,0.628-0.283,0.628-0.628v-2.214c0-0.345-0.283-0.628-0.628-0.628h-2.212
	c-0.347,0-0.63,0.283-0.63,0.628v0.687H7.914c0.217-3.274,2.934-5.866,6.264-5.866c3.473,0,6.288,2.815,6.288,6.287
	C20.466,17.645,17.651,20.46,14.178,20.46z"/>
</svg>
