<?xml version="1.0" encoding="utf-8"?>
<!-- Generator: Adobe Illustrator 16.0.0, SVG Export Plug-In . SVG Version: 6.00 Build 0)  -->
<!DOCTYPE svg PUBLIC "-//W3C//DTD SVG 1.1//EN" "http://www.w3.org/Graphics/SVG/1.1/DTD/svg11.dtd">
<svg version="1.1" id="Layer_1" xmlns="http://www.w3.org/2000/svg" xmlns:xlink="http://www.w3.org/1999/xlink" x="0px" y="0px"
	 width="42px" height="42px" viewBox="0 0 42 42" enable-background="new 0 0 42 42" xml:space="preserve">
<g>
	<path fill="#EC1C24" d="M21.404,40.624L21.404,40.624c-0.016,0-0.043,0.005-0.061-0.001c-0.762,0-1.288-0.5-1.513-0.714
		c-0.029-0.026-0.083-0.079-0.135-0.132l-0.936-0.868c-0.682-0.635-1.362-1.269-2.069-1.868c-1.451-1.225-2.929-2.424-4.404-3.622
		l-0.733-0.595c-1.897-1.54-4.097-3.407-6.021-5.576C4.16,25.71,3.11,24.216,2.326,22.684c-1.285-2.512-1.897-5.188-1.819-7.959
		c0.053-2.034,0.516-3.954,1.376-5.703c0.586-1.194,1.41-2.313,2.449-3.324C4.753,5.288,5.577,4.633,6.06,4.322
		c2.648-1.715,5.553-2.389,8.598-1.989c2.639,0.342,4.353,1.625,6.018,3.022c0.143,0.119,0.42,0.36,0.718,0.622
		c0.298-0.263,0.578-0.506,0.725-0.627c1.657-1.393,3.371-2.676,6.014-3.018c3.029-0.396,5.946,0.273,8.602,1.994
		c0.483,0.312,1.306,0.968,1.724,1.375c1.035,1.006,1.858,2.125,2.447,3.321c0.861,1.752,1.323,3.672,1.375,5.708
		c0.077,2.769-0.533,5.445-1.818,7.954c-0.785,1.535-1.835,3.03-3.211,4.569c-1.915,2.159-4.116,4.028-6.018,5.571l-0.854,0.692
		c-1.437,1.166-2.874,2.334-4.289,3.526c-0.692,0.589-1.364,1.215-2.038,1.842c-0.302,0.28-0.604,0.562-0.908,0.84
		c-0.104,0.104-0.161,0.16-0.225,0.216C22.729,40.122,22.203,40.624,21.404,40.624z"/>
</g>
</svg>
