<?xml version="1.0" encoding="utf-8"?>
<!-- Generator: Adobe Illustrator 16.0.0, SVG Export Plug-In . SVG Version: 6.00 Build 0)  -->
<!DOCTYPE svg PUBLIC "-//W3C//DTD SVG 1.1//EN" "http://www.w3.org/Graphics/SVG/1.1/DTD/svg11.dtd">
<svg version="1.1" id="Layer_1" xmlns="http://www.w3.org/2000/svg" xmlns:xlink="http://www.w3.org/1999/xlink" x="0px" y="0px"
	 width="25.51px" height="25.51px" viewBox="0 0 25.51 25.51" enable-background="new 0 0 25.51 25.51" xml:space="preserve">
<g>
	<g>
		<path fill="#FFFFFF" d="M9.963,24.346c-0.54,0-1.003-0.19-1.376-0.565l-1.829-1.827l0.295-0.351
			c0.356-0.425,0.529-0.911,0.529-1.489c0-0.655-0.223-1.196-0.681-1.657c-0.458-0.457-0.999-0.68-1.655-0.68
			c-0.57,0-1.071,0.178-1.489,0.528l-0.353,0.296L1.587,16.77c-0.372-0.369-0.562-0.832-0.562-1.373c0-0.54,0.189-1.003,0.564-1.376
			L13.725,1.897c0.75-0.749,2.007-0.746,2.752,0l1.816,1.817l-0.295,0.351c-0.352,0.417-0.529,0.917-0.529,1.489
			c0,0.656,0.223,1.198,0.681,1.656s1,0.681,1.655,0.681c0.57,0,1.071-0.178,1.49-0.53l0.35-0.293l1.828,1.813
			c0.375,0.376,0.564,0.839,0.564,1.377s-0.189,1.001-0.563,1.375L11.338,23.781C10.965,24.155,10.502,24.346,9.963,24.346z
			 M8.091,21.872l1.203,1.202c0.375,0.374,0.962,0.375,1.337,0.001l12.137-12.149c0.187-0.187,0.27-0.393,0.27-0.668
			s-0.084-0.481-0.271-0.669l-1.2-1.19c-0.521,0.327-1.11,0.493-1.762,0.493c-0.921,0-1.716-0.328-2.362-0.974
			s-0.974-1.441-0.974-2.363c0-0.651,0.165-1.241,0.491-1.76l-1.19-1.19c-0.373-0.373-0.962-0.374-1.339,0L2.296,14.728
			c-0.187,0.187-0.271,0.394-0.271,0.669s0.083,0.481,0.269,0.666l1.194,1.203c0.519-0.325,1.108-0.489,1.757-0.489
			c0.921,0,1.716,0.327,2.362,0.974c0.646,0.648,0.974,1.443,0.974,2.363C8.582,20.764,8.417,21.353,8.091,21.872z M11.022,19.594
			c-0.27,0-0.531-0.105-0.716-0.291l-4.25-4.25c-0.2-0.199-0.302-0.44-0.302-0.717c0-0.271,0.104-0.519,0.301-0.715l7.257-7.257
			c0.383-0.383,1.047-0.383,1.432,0.001l4.25,4.25c0.199,0.198,0.301,0.439,0.301,0.716c0,0.276-0.102,0.518-0.302,0.717
			l-7.255,7.255C11.552,19.488,11.292,19.594,11.022,19.594z M14.037,7.071l-0.01,0.003c-0.015,0-0.021,0.001-0.021,0.001
			l-7.244,7.252l4.25,4.268l7.274-7.256L14.037,7.071z"/>
	</g>
</g>
</svg>
