<?xml version="1.0" encoding="utf-8"?>
<!-- Generator: Adobe Illustrator 16.0.0, SVG Export Plug-In . SVG Version: 6.00 Build 0)  -->
<!DOCTYPE svg PUBLIC "-//W3C//DTD SVG 1.1//EN" "http://www.w3.org/Graphics/SVG/1.1/DTD/svg11.dtd">
<svg version="1.1" id="Layer_1" xmlns="http://www.w3.org/2000/svg" xmlns:xlink="http://www.w3.org/1999/xlink" x="0px" y="0px"
	 width="42px" height="42px" viewBox="0 0 42 42" enable-background="new 0 0 42 42" xml:space="preserve">
<g>
	<path fill="#FFFFFF" d="M21.404,40.624L21.404,40.624c-0.016,0-0.043,0.005-0.061-0.001c-0.762,0-1.288-0.5-1.513-0.714
		c-0.029-0.026-0.083-0.079-0.135-0.132l-0.936-0.868c-0.682-0.635-1.362-1.269-2.069-1.868c-1.451-1.225-2.929-2.424-4.404-3.622
		l-0.733-0.595c-1.897-1.54-4.097-3.407-6.021-5.576C4.16,25.71,3.11,24.216,2.326,22.684c-1.285-2.512-1.897-5.188-1.819-7.959
		c0.053-2.034,0.516-3.954,1.376-5.703c0.586-1.194,1.41-2.313,2.449-3.324C4.753,5.288,5.577,4.633,6.06,4.322
		c2.648-1.715,5.553-2.389,8.598-1.989c2.639,0.342,4.353,1.625,6.018,3.022c0.143,0.119,0.42,0.36,0.718,0.622
		c0.298-0.263,0.578-0.506,0.725-0.627c1.657-1.393,3.371-2.676,6.014-3.018c3.029-0.396,5.946,0.273,8.602,1.994
		c0.483,0.312,1.306,0.968,1.724,1.375c1.035,1.006,1.858,2.125,2.447,3.321c0.861,1.752,1.323,3.672,1.375,5.708
		c0.077,2.769-0.533,5.445-1.818,7.954c-0.785,1.535-1.835,3.03-3.211,4.569c-1.915,2.159-4.116,4.028-6.018,5.571l-0.854,0.692
		c-1.437,1.166-2.874,2.334-4.289,3.526c-0.692,0.589-1.364,1.215-2.038,1.842c-0.302,0.28-0.604,0.562-0.908,0.84
		c-0.104,0.104-0.161,0.16-0.225,0.216C22.729,40.122,22.203,40.624,21.404,40.624z M12.956,5.219c-1.859,0-3.583,0.531-5.271,1.624
		C7.362,7.051,6.704,7.576,6.423,7.849c-0.802,0.78-1.407,1.596-1.848,2.496c-0.679,1.378-1.028,2.837-1.07,4.461
		c-0.065,2.295,0.423,4.424,1.491,6.511c0.666,1.302,1.573,2.589,2.777,3.938c1.783,2.011,3.866,3.776,5.67,5.241l0.732,0.595
		c1.491,1.21,2.984,2.422,4.453,3.661c0.754,0.64,1.477,1.313,2.175,1.963l0.588,0.545c0.204-0.188,0.409-0.379,0.614-0.57
		c0.706-0.657,1.411-1.313,2.143-1.934c1.436-1.209,2.888-2.389,4.337-3.566l0.854-0.691c1.807-1.468,3.893-3.236,5.668-5.238
		c1.205-1.349,2.114-2.637,2.78-3.94c1.067-2.085,1.556-4.214,1.49-6.508c-0.041-1.626-0.391-3.085-1.067-4.464
		c-0.442-0.9-1.048-1.717-1.85-2.496c-0.279-0.271-0.938-0.797-1.259-1.005c-2.078-1.346-4.225-1.849-6.585-1.538
		c-1.694,0.219-2.794,0.931-4.479,2.346c-0.324,0.27-1.321,1.153-1.624,1.436c-0.575,0.535-1.465,0.535-2.04,0.003
		c-0.307-0.282-1.303-1.167-1.621-1.431c-1.693-1.423-2.793-2.135-4.484-2.354C13.825,5.249,13.384,5.219,12.956,5.219z"/>
</g>
</svg>
