<?xml version="1.0" encoding="utf-8"?>
<!-- Generator: Adobe Illustrator 16.0.0, SVG Export Plug-In . SVG Version: 6.00 Build 0)  -->
<!DOCTYPE svg PUBLIC "-//W3C//DTD SVG 1.1//EN" "http://www.w3.org/Graphics/SVG/1.1/DTD/svg11.dtd">
<svg version="1.1" id="Layer_1" xmlns="http://www.w3.org/2000/svg" xmlns:xlink="http://www.w3.org/1999/xlink" x="0px" y="0px"
	 width="68px" height="68px" viewBox="0 0 68 68" enable-background="new 0 0 68 68" xml:space="preserve">
<g>
	<g>
		<path fill="#ED1C24" d="M34.066,67.31c-18.452,0-33.463-15.012-33.463-33.463c0-18.452,15.012-33.464,33.463-33.464
			c18.452,0,33.464,15.012,33.464,33.464C67.53,52.298,52.519,67.31,34.066,67.31z M34.066,2.383
			c-17.349,0-31.463,14.115-31.463,31.464c0,17.349,14.114,31.463,31.463,31.463c17.35,0,31.464-14.114,31.464-31.463
			C65.53,16.498,51.416,2.383,34.066,2.383z"/>
	</g>
</g>
<g>
	<g>
		<path fill="#ED1C24" d="M9.585,41.903V25.79h2.501l7.995,11.289h0.101V25.79h2.769v16.113h-2.479l-8.006-11.3h-0.101v11.3H9.585z"
			/>
	</g>
	<g>
		<path fill="#ED1C24" d="M36.22,41.903H25.791V25.79H36.22v2.436h-7.548v4.354h7.136v2.291h-7.136v4.6h7.548V41.903z"/>
	</g>
	<g>
		<path fill="#ED1C24" d="M44.813,41.903h-2.714l-4.32-16.113h2.992l2.791,12.206h0.09L46.89,25.79h2.546l3.237,12.206h0.09
			l2.791-12.206h2.993l-4.321,16.113h-2.713l-3.295-11.657h-0.111L44.813,41.903z"/>
	</g>
</g>
</svg>
