<?xml version="1.0" encoding="utf-8"?>
<!-- Generator: Adobe Illustrator 16.0.0, SVG Export Plug-In . SVG Version: 6.00 Build 0)  -->
<!DOCTYPE svg PUBLIC "-//W3C//DTD SVG 1.1//EN" "http://www.w3.org/Graphics/SVG/1.1/DTD/svg11.dtd">
<svg version="1.1" id="Layer_1" xmlns="http://www.w3.org/2000/svg" xmlns:xlink="http://www.w3.org/1999/xlink" x="0px" y="0px"
	 width="42px" height="42px" viewBox="0 0 42 42" enable-background="new 0 0 42 42" xml:space="preserve">
<g>
	<path fill="#cbcbcb" d="M26.733,0.402c-8.389,0-15.213,6.825-15.213,15.213c0,8.389,6.825,15.214,15.213,15.214
		s15.214-6.824,15.214-15.213S35.122,0.402,26.733,0.402z M26.733,27.829c-6.734,0-12.213-5.479-12.213-12.214
		c0-6.734,5.479-12.213,12.213-12.213s12.214,5.479,12.214,12.214S33.468,27.829,26.733,27.829z"/>
	<path fill="#cbcbcb" d="M12.799,27.713L0.956,39.558c-0.586,0.586-0.586,1.535,0,2.121c0.293,0.293,0.677,0.439,1.061,0.439
		s0.768-0.146,1.061-0.439L14.92,29.834c0.586-0.586,0.586-1.535,0-2.121S13.384,27.127,12.799,27.713z"/>
</g>
</svg>
