<?xml version="1.0" encoding="utf-8"?>
<!-- Generator: Adobe Illustrator 16.0.0, SVG Export Plug-In . SVG Version: 6.00 Build 0)  -->
<!DOCTYPE svg PUBLIC "-//W3C//DTD SVG 1.1//EN" "http://www.w3.org/Graphics/SVG/1.1/DTD/svg11.dtd">
<svg version="1.1" id="Layer_1" xmlns="http://www.w3.org/2000/svg" xmlns:xlink="http://www.w3.org/1999/xlink" x="0px" y="0px"
	 width="48px" height="22px" viewBox="0 0 48 22" enable-background="new 0 0 48 22" xml:space="preserve">
<g>
	<g>
		<path fill="#C8A985" d="M9.209,0.551v3h38v-3H9.209z M2.98,0.051c-1.104,0-2,0.896-2,2c0,1.104,0.896,2,2,2c1.104,0,2-0.896,2-2
			C4.98,0.947,4.085,0.051,2.98,0.051z"/>
	</g>
</g>
<g>
	<g>
		<path fill="#C8A985" d="M9.209,9.84v3h38v-3H9.209z M2.98,9.34c-1.104,0-2,0.896-2,2c0,1.104,0.896,2,2,2c1.104,0,2-0.896,2-2
			C4.98,10.236,4.085,9.34,2.98,9.34z"/>
	</g>
</g>
<g>
	<g>
		<path fill="#C8A985" d="M9.209,19.129v3h38v-3H9.209z M2.98,18.629c-1.104,0-2,0.896-2,2c0,1.104,0.896,2,2,2c1.104,0,2-0.896,2-2
			C4.98,19.525,4.085,18.629,2.98,18.629z"/>
	</g>
</g>
</svg>
