<?xml version="1.0" encoding="utf-8"?>
<!-- Generator: Adobe Illustrator 16.0.0, SVG Export Plug-In . SVG Version: 6.00 Build 0)  -->
<!DOCTYPE svg PUBLIC "-//W3C//DTD SVG 1.1//EN" "http://www.w3.org/Graphics/SVG/1.1/DTD/svg11.dtd">
<svg version="1.1" id="Layer_1" xmlns="http://www.w3.org/2000/svg" xmlns:xlink="http://www.w3.org/1999/xlink" x="0px" y="0px"
	 width="42px" height="42px" viewBox="0 0 42 42" enable-background="new 0 0 42 42" xml:space="preserve">
<g>
	<path fill="#404041" d="M36.102,5.423h-5.18V2.74c0-0.632-0.512-1.146-1.145-1.146c-0.635,0-1.146,0.514-1.146,1.146v2.683h-14.84
		V2.74c0-0.632-0.514-1.146-1.145-1.146c-0.632,0-1.146,0.514-1.146,1.146v2.683H6.417c-2.702,0-4.902,2.2-4.902,4.903v25.695
		c0,2.704,2.2,4.902,4.902,4.902h29.685c2.702,0,4.904-2.198,4.904-4.902V10.326C41.006,7.623,38.804,5.423,36.102,5.423z
		 M39.859,36.021c0,2.072-1.684,3.757-3.758,3.757H6.417c-2.07,0-3.756-1.685-3.756-3.757V10.326c0-2.072,1.687-3.759,3.756-3.759
		h5.082v4.54c0,0.633,0.514,1.146,1.146,1.146c0.631,0,1.145-0.514,1.145-1.146v-4.54h14.84v4.54c0,0.633,0.512,1.146,1.146,1.146
		c0.633,0,1.145-0.514,1.145-1.146v-4.54h5.18c2.074,0,3.758,1.687,3.758,3.759V36.021z"/>
	<rect x="6.749" y="16.05" fill="#404041" width="5.171" height="4.113"/>
	<rect x="14.815" y="16.05" fill="#404041" width="5.169" height="4.113"/>
	<rect x="22.846" y="16.05" fill="#404041" width="5.172" height="4.113"/>
	<rect x="30.602" y="16.05" fill="#404041" width="5.17" height="4.113"/>
	<rect x="6.749" y="23.114" fill="#404041" width="5.171" height="4.115"/>
	<rect x="14.815" y="23.114" fill="#404041" width="5.169" height="4.115"/>
	<rect x="22.846" y="23.114" fill="#404041" width="5.172" height="4.115"/>
	<rect x="30.602" y="23.114" fill="#404041" width="5.17" height="4.115"/>
	<rect x="6.749" y="29.799" fill="#404041" width="5.171" height="4.112"/>
	<rect x="14.815" y="29.799" fill="#404041" width="5.169" height="4.112"/>
	<rect x="22.846" y="29.799" fill="#404041" width="5.172" height="4.112"/>
</g>
</svg>
