<?xml version="1.0" encoding="utf-8"?>
<!-- Generator: Adobe Illustrator 16.0.0, SVG Export Plug-In . SVG Version: 6.00 Build 0)  -->
<!DOCTYPE svg PUBLIC "-//W3C//DTD SVG 1.1//EN" "http://www.w3.org/Graphics/SVG/1.1/DTD/svg11.dtd">
<svg version="1.1" id="Layer_1" xmlns="http://www.w3.org/2000/svg" xmlns:xlink="http://www.w3.org/1999/xlink" x="0px" y="0px"
	 width="42px" height="42px" viewBox="0 0 42 42" enable-background="new 0 0 42 42" xml:space="preserve">
<path fill="#D1D3D4" d="M25.042,4.422c-6.537,0-11.854,5.319-11.854,11.856c0,2.922,1.067,5.595,2.825,7.664L5.482,34.416
	c-0.392,0.39-0.394,1.022-0.004,1.414c0.195,0.196,0.452,0.295,0.709,0.295c0.255,0,0.51-0.097,0.705-0.291l10.537-10.479
	c2.061,1.732,4.715,2.78,7.613,2.78c6.538,0,11.857-5.318,11.857-11.856C36.899,9.741,31.58,4.422,25.042,4.422z M25.042,26.135
	c-5.434,0-9.854-4.421-9.854-9.856s4.421-9.856,9.854-9.856c5.436,0,9.857,4.422,9.857,9.857
	C34.899,21.713,30.478,26.135,25.042,26.135z"/>
</svg>
