<?xml version="1.0" encoding="utf-8"?>
<!-- Generator: Adobe Illustrator 16.0.0, SVG Export Plug-In . SVG Version: 6.00 Build 0)  -->
<!DOCTYPE svg PUBLIC "-//W3C//DTD SVG 1.1//EN" "http://www.w3.org/Graphics/SVG/1.1/DTD/svg11.dtd">
<svg version="1.1" id="Layer_1" xmlns="http://www.w3.org/2000/svg" xmlns:xlink="http://www.w3.org/1999/xlink" x="0px" y="0px"
	 width="42px" height="42px" viewBox="0 0 42 42" enable-background="new 0 0 42 42" xml:space="preserve">
<g>
	<path fill="#9f9f9f" d="M32.812,34.126c-0.383,0-0.768-0.146-1.061-0.439L8.647,10.582c-0.586-0.586-0.586-1.535,0-2.121
		s1.535-0.586,2.121,0l23.104,23.104c0.586,0.586,0.586,1.535,0,2.121C33.579,33.979,33.196,34.126,32.812,34.126z"/>
</g>
<g>
	<path fill="#9f9f9f" d="M9.708,34.126c-0.384,0-0.768-0.146-1.061-0.439c-0.586-0.586-0.586-1.535,0-2.121L31.751,8.461
		c0.586-0.586,1.535-0.586,2.121,0s0.586,1.535,0,2.121L10.768,33.687C10.475,33.979,10.091,34.126,9.708,34.126z"/>
</g>
</svg>
