<?xml version="1.0" encoding="utf-8"?>
<!-- Generator: Adobe Illustrator 16.0.0, SVG Export Plug-In . SVG Version: 6.00 Build 0)  -->
<!DOCTYPE svg PUBLIC "-//W3C//DTD SVG 1.1//EN" "http://www.w3.org/Graphics/SVG/1.1/DTD/svg11.dtd">
<svg version="1.1" id="Layer_1" xmlns="http://www.w3.org/2000/svg" xmlns:xlink="http://www.w3.org/1999/xlink" x="0px" y="0px"
	 width="40px" height="40px" viewBox="0 0 40 40" enable-background="new 0 0 40 40" xml:space="preserve">
<g>
	<g>
		<path fill-rule="evenodd" clip-rule="evenodd" fill="#414042" d="M27.183,22.916c2.856-2.098,9-6.67,9-6.67
			s-2.915-0.01-6.153-0.018L11.578,29.271C10.624,32.238,9.705,35.1,9.705,35.1s6.667-4.361,10.03-6.777
			c3.394,2.447,10.137,7.148,10.137,7.148s-2.51-7.779-3.776-11.709C26.474,23.467,26.819,23.184,27.183,22.916z"/>
	</g>
	<g>
		<path fill-rule="evenodd" clip-rule="evenodd" fill="#ED1C24" d="M9.196,18.783c-0.392-0.29-0.878-0.656-1.392-1.046h9.092
			l2.778-8.548l2.186,6.452l-8.588,6.156C13.271,21.796,10.39,19.662,9.196,18.783z"/>
		<path fill="#ED1C24" d="M19.703,13.949l0.379,1.119l-0.968,0.694C19.3,15.19,19.499,14.578,19.703,13.949 M14.268,19.236
			l-0.982,0.704c-0.317-0.235-0.634-0.47-0.951-0.704H14.268 M19.645,4.426c0,0-2.554,7.852-3.839,11.811
			c-4.178,0-12.416,0-12.416,0s3.268,2.535,4.917,3.754c1.649,1.215,3.296,2.438,4.95,3.662l10.38-7.441L19.645,4.426L19.645,4.426z
			"/>
	</g>
</g>
</svg>
