<?xml version="1.0" encoding="utf-8"?>
<!-- Generator: Adobe Illustrator 16.0.0, SVG Export Plug-In . SVG Version: 6.00 Build 0)  -->
<!DOCTYPE svg PUBLIC "-//W3C//DTD SVG 1.1//EN" "http://www.w3.org/Graphics/SVG/1.1/DTD/svg11.dtd">
<svg version="1.1" id="Layer_1" xmlns="http://www.w3.org/2000/svg" xmlns:xlink="http://www.w3.org/1999/xlink" x="0px" y="0px"
	 width="45.35px" height="45.35px" viewBox="0 0 45.35 45.35" enable-background="new 0 0 45.35 45.35" xml:space="preserve">
<g>
	<g>
		<path fill="#414042" d="M28.318,32.172c-8.515,0-15.441-6.927-15.441-15.441c0-8.514,6.927-15.441,15.441-15.441
			s15.442,6.927,15.442,15.442C43.761,25.245,36.833,32.172,28.318,32.172z M28.318,3.29c-7.412,0-13.441,6.03-13.441,13.441
			c0,7.412,6.03,13.441,13.441,13.441c7.412,0,13.442-6.029,13.442-13.44C41.761,9.319,35.73,3.29,28.318,3.29z"/>
	</g>
</g>
<g>
	<g>
		<path fill="#414042" d="M2.289,44.061c-0.256,0-0.512-0.098-0.707-0.293c-0.391-0.391-0.391-1.023,0-1.414l12.473-12.473
			c0.391-0.391,1.023-0.391,1.414,0s0.391,1.023,0,1.414L2.996,43.768C2.801,43.963,2.545,44.061,2.289,44.061z"/>
	</g>
</g>
</svg>
