<?xml version="1.0" encoding="utf-8"?>
<!-- Generator: Adobe Illustrator 16.0.0, SVG Export Plug-In . SVG Version: 6.00 Build 0)  -->
<!DOCTYPE svg PUBLIC "-//W3C//DTD SVG 1.1//EN" "http://www.w3.org/Graphics/SVG/1.1/DTD/svg11.dtd">
<svg version="1.1" id="Layer_1" xmlns="http://www.w3.org/2000/svg" xmlns:xlink="http://www.w3.org/1999/xlink" x="0px" y="0px"
	 width="22px" height="25px" viewBox="0 0 22 25" enable-background="new 0 0 22 25" xml:space="preserve">
<path fill="#FFFFFF" d="M20.516,10.675l-8.911-8.91c-0.307-0.307-0.803-0.307-1.109,0l-8.911,8.91c-0.306,0.307-0.306,0.803,0,1.109
	c0.153,0.153,0.354,0.23,0.555,0.23s0.401-0.077,0.555-0.23l7.572-7.571v18.976c0,0.434,0.351,0.785,0.784,0.785
	s0.784-0.352,0.784-0.785V4.213l7.572,7.571c0.153,0.153,0.354,0.23,0.555,0.23s0.401-0.077,0.555-0.23
	C20.821,11.478,20.821,10.982,20.516,10.675z"/>
</svg>
