<?xml version="1.0" encoding="utf-8"?>
<!-- Generator: Adobe Illustrator 16.0.0, SVG Export Plug-In . SVG Version: 6.00 Build 0)  -->
<!DOCTYPE svg PUBLIC "-//W3C//DTD SVG 1.1//EN" "http://www.w3.org/Graphics/SVG/1.1/DTD/svg11.dtd">
<svg version="1.1" id="Layer_1" xmlns="http://www.w3.org/2000/svg" xmlns:xlink="http://www.w3.org/1999/xlink" x="0px" y="0px"
	 width="40px" height="40px" viewBox="0 0 40 40" enable-background="new 0 0 40 40" xml:space="preserve">
<g>
	<g>
		<path fill-rule="evenodd" clip-rule="evenodd" fill="#C9AA86" d="M27.183,22.916c2.856-2.098,9-6.67,9-6.67
			s-2.915-0.01-6.153-0.018L11.578,29.271C10.624,32.238,9.705,35.1,9.705,35.1s6.667-4.361,10.03-6.777
			c3.394,2.447,10.137,7.148,10.137,7.148s-2.51-7.779-3.776-11.709C26.474,23.467,26.819,23.184,27.183,22.916z"/>
	</g>
	<g>
		<path fill-rule="evenodd" clip-rule="evenodd" fill="#414042" d="M13.257,23.652l10.38-7.441L19.645,4.426
			c0,0-2.554,7.852-3.839,11.811c-4.178,0-12.416,0-12.416,0s3.268,2.535,4.917,3.754C9.956,21.205,11.603,22.428,13.257,23.652z"/>
	</g>
</g>
</svg>
