<?xml version="1.0" encoding="utf-8"?>
<!-- Generator: Adobe Illustrator 16.0.0, SVG Export Plug-In . SVG Version: 6.00 Build 0)  -->
<!DOCTYPE svg PUBLIC "-//W3C//DTD SVG 1.1//EN" "http://www.w3.org/Graphics/SVG/1.1/DTD/svg11.dtd">
<svg version="1.1" id="Layer_1" xmlns="http://www.w3.org/2000/svg" xmlns:xlink="http://www.w3.org/1999/xlink" x="0px" y="0px"
	 width="39.69px" height="39.69px" viewBox="0 0 39.69 39.69" enable-background="new 0 0 39.69 39.69" xml:space="preserve">
<g>
	<g>
		<path fill="#939598" d="M19.808,38.979c0,0-0.028,0-0.028,0c-5.044-0.008-9.788-1.982-13.357-5.561
			c-3.57-3.58-5.531-8.328-5.521-13.37C0.918,9.64,9.427,1.171,19.87,1.171C30.342,1.2,38.806,9.69,38.788,20.098
			C38.775,30.508,30.261,38.979,19.808,38.979z M19.917,2.671c-9.665,0-17.501,7.796-17.516,17.379
			c-0.009,4.641,1.796,9.012,5.083,12.307c3.287,3.297,7.654,5.115,12.297,5.121l0.026,0.75v-0.75
			c9.627,0,17.469-7.799,17.48-17.383C37.304,10.514,29.512,2.698,19.917,2.671z"/>
	</g>
</g>
<g>
	<path fill="#939598" d="M19.845,30.705c-0.414,0-0.75-0.336-0.75-0.75V10.194c0-0.414,0.336-0.75,0.75-0.75s0.75,0.336,0.75,0.75
		v19.761C20.595,30.369,20.259,30.705,19.845,30.705z"/>
</g>
<g>
	<path fill="#939598" d="M29.725,20.824H9.965c-0.414,0-0.75-0.336-0.75-0.75s0.336-0.75,0.75-0.75h19.759
		c0.414,0,0.75,0.336,0.75,0.75S30.139,20.824,29.725,20.824z"/>
</g>
</svg>
