<?xml version="1.0" encoding="utf-8"?>
<!-- Generator: Adobe Illustrator 16.0.0, SVG Export Plug-In . SVG Version: 6.00 Build 0)  -->
<!DOCTYPE svg PUBLIC "-//W3C//DTD SVG 1.1//EN" "http://www.w3.org/Graphics/SVG/1.1/DTD/svg11.dtd">
<svg version="1.1" id="Layer_1" xmlns="http://www.w3.org/2000/svg" xmlns:xlink="http://www.w3.org/1999/xlink" x="0px" y="0px"
	 width="39px" height="39px" viewBox="0 0 39 39" enable-background="new 0 0 39 39" xml:space="preserve">
<g>
	<g>
		<path fill="#939598" d="M19.807,39.121c0,0-0.028,0-0.028,0c-5.044-0.006-9.787-1.98-13.357-5.561
			c-3.57-3.578-5.531-8.326-5.521-13.368C0.918,9.784,9.427,1.315,19.87,1.315c10.472,0.028,18.935,8.519,18.919,18.926
			C38.773,30.652,30.26,39.121,19.807,39.121z M19.917,2.815c-9.665,0-17.501,7.796-17.516,17.379
			c-0.009,4.641,1.796,9.012,5.083,12.307s7.654,5.113,12.297,5.119l0.026,0.75v-0.75c9.626,0,17.468-7.797,17.482-17.381
			C37.303,10.658,29.512,2.842,19.917,2.815z"/>
	</g>
</g>
<g>
	<path fill="#939598" d="M29.725,20.968H9.965c-0.414,0-0.75-0.336-0.75-0.75s0.336-0.75,0.75-0.75h19.759
		c0.414,0,0.75,0.336,0.75,0.75S30.139,20.968,29.725,20.968z"/>
</g>
</svg>
