<?xml version="1.0" encoding="utf-8"?>
<!-- Generator: Adobe Illustrator 16.0.0, SVG Export Plug-In . SVG Version: 6.00 Build 0)  -->
<!DOCTYPE svg PUBLIC "-//W3C//DTD SVG 1.1//EN" "http://www.w3.org/Graphics/SVG/1.1/DTD/svg11.dtd">
<svg version="1.1" id="Layer_1" xmlns="http://www.w3.org/2000/svg" xmlns:xlink="http://www.w3.org/1999/xlink" x="0px" y="0px"
	 width="38px" height="38px" viewBox="0 0 38 38" enable-background="new 0 0 38 38" xml:space="preserve">
<g>
	<g>
		<path fill="#C9AA86" d="M18.425,0.235c-10.044,0-18.188,8.145-18.188,18.19c0,10.045,8.145,18.188,18.188,18.188
			c10.047,0,18.189-8.144,18.189-18.188C36.614,8.38,28.472,0.235,18.425,0.235z"/>
	</g>
</g>
<g>
	<path fill="#FFFFFF" d="M18.429,28.969h-0.024c0,0,0,0-0.001,0c-0.383,0-0.641-0.248-0.75-0.354l0.419-0.636l-0.508,0.552
		l-0.379-0.352c-0.337-0.313-0.675-0.628-1.025-0.925c-0.708-0.6-1.43-1.185-2.151-1.77l-0.295-0.239
		c-0.907-0.736-1.958-1.629-2.872-2.661c-0.653-0.73-1.155-1.445-1.532-2.181c-0.616-1.202-0.909-2.483-0.87-3.809
		c0.025-0.977,0.247-1.896,0.658-2.731c0.281-0.571,0.675-1.106,1.172-1.593c0.198-0.189,0.585-0.502,0.836-0.661
		c1.262-0.819,2.639-1.146,4.114-0.952c1.267,0.164,2.087,0.778,2.885,1.448c0.064,0.054,0.187,0.16,0.319,0.276
		c0.133-0.117,0.256-0.223,0.321-0.278c0.797-0.667,1.62-1.282,2.883-1.445c1.473-0.194,2.852,0.132,4.121,0.957
		c0.246,0.155,0.633,0.469,0.822,0.651c0.504,0.492,0.898,1.028,1.178,1.6c0.411,0.831,0.633,1.751,0.659,2.731
		c0.038,1.324-0.255,2.605-0.872,3.808c-0.372,0.73-0.874,1.445-1.532,2.183c-0.907,1.022-1.916,1.882-2.87,2.658l-0.356,0.289
		c-0.701,0.568-1.402,1.138-2.094,1.721c-0.344,0.292-0.676,0.603-1.009,0.912l-0.501,0.467
		C19.096,28.711,18.828,28.969,18.429,28.969z M14.406,12.104c-0.879,0-1.693,0.251-2.49,0.768c-0.15,0.095-0.462,0.343-0.604,0.478
		c-0.373,0.365-0.659,0.752-0.868,1.176c-0.319,0.648-0.484,1.339-0.504,2.11c-0.031,1.087,0.2,2.095,0.706,3.084
		c0.317,0.62,0.748,1.23,1.317,1.867c0.843,0.951,1.794,1.761,2.697,2.494l0.294,0.238c0.729,0.592,1.459,1.184,2.176,1.79
		c0.369,0.313,0.723,0.642,1.078,0.972l0.217,0.201l0.228-0.213c0.35-0.325,0.699-0.65,1.063-0.959
		c0.7-0.591,1.409-1.166,2.117-1.741l0.355-0.288c0.904-0.736,1.857-1.547,2.695-2.492c0.574-0.641,1.004-1.251,1.318-1.868
		c0.508-0.989,0.738-1.997,0.707-3.083c-0.021-0.774-0.186-1.464-0.506-2.111c-0.207-0.426-0.493-0.812-0.874-1.184
		c-0.134-0.128-0.445-0.375-0.589-0.467c-0.989-0.643-2.003-0.877-3.117-0.731c-0.796,0.103-1.316,0.44-2.116,1.11
		c-0.153,0.127-0.628,0.548-0.772,0.682l-0.509,0.472l-0.51-0.47c-0.145-0.134-0.622-0.556-0.773-0.682
		c-0.799-0.671-1.319-1.008-2.116-1.111C14.816,12.118,14.609,12.104,14.406,12.104z"/>
</g>
</svg>
