<?xml version="1.0" encoding="utf-8"?>
<!-- Generator: Adobe Illustrator 16.0.0, SVG Export Plug-In . SVG Version: 6.00 Build 0)  -->
<!DOCTYPE svg PUBLIC "-//W3C//DTD SVG 1.1//EN" "http://www.w3.org/Graphics/SVG/1.1/DTD/svg11.dtd">
<svg version="1.1" id="Layer_1" xmlns="http://www.w3.org/2000/svg" xmlns:xlink="http://www.w3.org/1999/xlink" x="0px" y="0px"
	 width="40px" height="40px" viewBox="0 0 40 40" enable-background="new 0 0 40 40" xml:space="preserve">
<path fill-rule="evenodd" clip-rule="evenodd" fill="#C8A985" d="M36.644,9.948c-0.497-1.014-1.175-1.904-1.987-2.692
	c-0.316-0.309-0.999-0.855-1.38-1.1c-2.146-1.39-4.475-1.966-7.022-1.632c-2.006,0.259-3.304,1.179-4.854,2.482
	c-0.306,0.254-1.263,1.104-1.556,1.374c-0.293-0.27-1.25-1.12-1.556-1.374c-1.551-1.303-2.849-2.223-4.854-2.482
	C10.886,4.19,8.557,4.766,6.412,6.156c-0.381,0.245-1.063,0.791-1.38,1.1c-0.813,0.788-1.49,1.678-1.987,2.692
	c-0.727,1.478-1.088,3.045-1.13,4.7c-0.066,2.373,0.458,4.596,1.53,6.691c0.736,1.439,1.696,2.732,2.769,3.934
	c1.637,1.844,3.495,3.449,5.404,5.002c1.598,1.297,3.202,2.59,4.776,3.918c0.949,0.805,1.847,1.674,2.769,2.518
	c0.064,0.059,0.124,0.125,0.193,0.188c0.207,0.195,0.345,0.285,0.488,0.28c0.144,0.005,0.281-0.085,0.488-0.28
	c0.069-0.063,0.129-0.129,0.193-0.188c0.922-0.844,1.819-1.713,2.769-2.518c1.574-1.328,3.179-2.621,4.776-3.918
	c1.909-1.553,3.768-3.158,5.404-5.002c1.072-1.201,2.032-2.494,2.769-3.934c1.072-2.096,1.597-4.318,1.53-6.691
	C37.732,12.993,37.371,11.426,36.644,9.948z"/>
</svg>
