<?xml version="1.0" encoding="utf-8"?>
<!-- Generator: Adobe Illustrator 16.0.0, SVG Export Plug-In . SVG Version: 6.00 Build 0)  -->
<!DOCTYPE svg PUBLIC "-//W3C//DTD SVG 1.1//EN" "http://www.w3.org/Graphics/SVG/1.1/DTD/svg11.dtd">
<svg version="1.1" id="Layer_1" xmlns="http://www.w3.org/2000/svg" xmlns:xlink="http://www.w3.org/1999/xlink" x="0px" y="0px"
	 width="40px" height="40px" viewBox="0 0 40 40" enable-background="new 0 0 40 40" xml:space="preserve">
<g>
	<g>
		<path fill="#ed1c24" d="M27.67,6.431c1.598,0,3.083,0.458,4.547,1.407c0.261,0.167,0.837,0.627,1.068,0.853
			c0.688,0.667,1.206,1.367,1.585,2.139c0.587,1.194,0.89,2.459,0.926,3.874c0.057,2.017-0.373,3.889-1.312,5.724
			c-0.593,1.157-1.403,2.307-2.484,3.517c-1.607,1.812-3.435,3.367-5.169,4.777l-0.655,0.531c-1.365,1.107-2.776,2.252-4.153,3.414
			c-0.701,0.594-1.369,1.216-2.015,1.817c-0.047,0.044-0.095,0.088-0.142,0.132c-0.047-0.044-0.095-0.088-0.142-0.132
			c-0.646-0.602-1.314-1.224-2.019-1.82c-1.374-1.159-2.785-2.304-4.15-3.411l-0.654-0.53c-1.735-1.411-3.563-2.967-5.174-4.782
			c-1.077-1.206-1.888-2.355-2.48-3.513c-0.939-1.835-1.368-3.708-1.311-5.729c0.036-1.409,0.338-2.674,0.926-3.87
			c0.377-0.77,0.896-1.469,1.589-2.142c0.226-0.221,0.802-0.681,1.07-0.852c1.458-0.944,2.943-1.403,4.541-1.403
			c0.37,0,0.752,0.025,1.138,0.076c1.416,0.183,2.361,0.8,3.833,2.037c0.274,0.228,1.203,1.052,1.478,1.306l1.355,1.249L21.22,9.85
			c0.275-0.254,1.204-1.078,1.487-1.313c1.463-1.229,2.408-1.847,3.827-2.03C26.918,6.457,27.3,6.431,27.67,6.431 M27.67,4.431
			c-0.458,0-0.923,0.03-1.395,0.092c-2.006,0.259-3.304,1.179-4.854,2.482c-0.306,0.254-1.263,1.104-1.556,1.374
			c-0.293-0.27-1.25-1.12-1.556-1.374c-1.551-1.303-2.849-2.223-4.854-2.482c-0.472-0.062-0.937-0.092-1.394-0.092
			c-2.011,0-3.88,0.592-5.628,1.724c-0.381,0.245-1.063,0.791-1.38,1.1C4.24,8.044,3.562,8.934,3.065,9.948
			c-0.727,1.478-1.088,3.045-1.13,4.7c-0.066,2.373,0.458,4.596,1.53,6.691c0.736,1.439,1.696,2.732,2.769,3.934
			c1.637,1.844,3.495,3.449,5.404,5.002c1.598,1.297,3.202,2.59,4.776,3.918c0.949,0.805,1.847,1.674,2.769,2.518
			c0.064,0.059,0.124,0.125,0.193,0.188c0.202,0.19,0.337,0.28,0.477,0.28c0.004,0,0.007,0,0.011,0s0.007,0,0.011,0
			c0.14,0,0.275-0.09,0.477-0.28c0.069-0.063,0.129-0.129,0.193-0.188c0.922-0.844,1.819-1.713,2.769-2.518
			c1.574-1.328,3.179-2.621,4.776-3.918c1.909-1.553,3.768-3.158,5.404-5.002c1.072-1.201,2.032-2.494,2.769-3.934
			c1.072-2.096,1.597-4.318,1.53-6.691c-0.042-1.654-0.403-3.222-1.13-4.7c-0.497-1.014-1.175-1.904-1.987-2.692
			c-0.316-0.309-0.999-0.855-1.38-1.1C31.55,5.023,29.679,4.431,27.67,4.431L27.67,4.431z"/>
	</g>
</g>
</svg>
