<?xml version="1.0" encoding="utf-8"?>
<!-- Generator: Adobe Illustrator 16.0.0, SVG Export Plug-In . SVG Version: 6.00 Build 0)  -->
<!DOCTYPE svg PUBLIC "-//W3C//DTD SVG 1.1//EN" "http://www.w3.org/Graphics/SVG/1.1/DTD/svg11.dtd">
<svg version="1.1" id="Layer_1" xmlns="http://www.w3.org/2000/svg" xmlns:xlink="http://www.w3.org/1999/xlink" x="0px" y="0px"
	 width="36.85px" height="45.35px" viewBox="0 0 36.85 45.35" enable-background="new 0 0 36.85 45.35" xml:space="preserve">
<g>
	<g>
		<path fill="#b59c71" d="M18.424,24.808c-3.84,0-6.965-3.125-6.965-6.965c0-3.84,3.125-6.964,6.965-6.964
			c3.841,0,6.965,3.124,6.965,6.964C25.389,21.683,22.265,24.808,18.424,24.808z M18.424,12.879c-2.738,0-4.965,2.227-4.965,4.964
			s2.227,4.964,4.965,4.964c2.737,0,4.965-2.227,4.965-4.964S21.161,12.879,18.424,12.879z"/>
	</g>
</g>
<g>
	<g>
		<path fill="#b59c71" d="M18.911,43.969h-0.954c-0.087,0-0.174-0.012-0.258-0.034c-1.027-0.274-1.742-0.938-2.362-1.614
			c-2.357-2.57-4.515-5.265-6.413-8.007c-2.617-3.79-4.378-7.09-5.545-10.386c-1.332-3.744-1.583-7.071-0.77-10.169
			C4.264,7.456,8.314,3.396,14.648,1.69c0.579-0.154,1.154-0.239,1.711-0.321c0.238-0.035,0.477-0.07,0.713-0.11
			c0.056-0.01,0.113-0.015,0.169-0.015h2.386c0.054,0,0.108,0.004,0.161,0.013c0.22,0.036,0.439,0.067,0.659,0.099
			c0.492,0.071,0.984,0.143,1.47,0.253c8.778,1.948,14.344,10.662,12.4,19.423c-0.615,2.759-1.703,5.479-3.424,8.559
			c-2.231,4.008-5.101,7.957-8.769,12.07l-0.258,0.294c-0.67,0.771-1.43,1.646-2.703,1.979
			C19.082,43.958,18.996,43.969,18.911,43.969z M18.104,41.969h0.664c0.619-0.205,1.071-0.727,1.591-1.324l0.275-0.313
			c3.569-4.003,6.354-7.834,8.514-11.714c1.625-2.907,2.647-5.455,3.218-8.018c1.705-7.684-3.179-15.327-10.886-17.038
			c-0.438-0.1-0.878-0.162-1.316-0.225c-0.205-0.03-0.411-0.059-0.615-0.092h-2.222c-0.225,0.038-0.45,0.071-0.675,0.104
			c-0.524,0.077-1.019,0.15-1.484,0.274C9.499,5.148,6.023,8.63,4.543,14.266c-0.718,2.734-0.49,5.592,0.72,8.993
			c1.106,3.126,2.792,6.277,5.305,9.917c1.846,2.667,3.946,5.289,6.242,7.793C17.268,41.467,17.65,41.813,18.104,41.969z"/>
	</g>
</g>
</svg>
