<?xml version="1.0" encoding="utf-8"?>
<!-- Generator: Adobe Illustrator 19.2.1, SVG Export Plug-In . SVG Version: 6.00 Build 0)  -->
<svg version="1.1" id="Слой_1" xmlns="http://www.w3.org/2000/svg" xmlns:xlink="http://www.w3.org/1999/xlink" x="0px" y="0px"
	 viewBox="0 0 36.8 28.4" style="enable-background:new 0 0 36.8 28.4;" xml:space="preserve">
<style type="text/css">
	.st0{fill:#3C3C3B;}
</style>
<g>
	<path class="st0" d="M35.4,3.1H1.5c-0.5,0-1-0.4-1-1s0.4-1,1-1h33.9c0.5,0,1,0.4,1,1S35.9,3.1,35.4,3.1z"/>
</g>
<g>
	<path class="st0" d="M35.4,15.2H1.5c-0.5,0-1-0.4-1-1s0.4-1,1-1h33.9c0.5,0,1,0.4,1,1S35.9,15.2,35.4,15.2z"/>
</g>
<g>
	<path class="st0" d="M35.4,27.2H1.5c-0.5,0-1-0.4-1-1s0.4-1,1-1h33.9c0.5,0,1,0.4,1,1S35.9,27.2,35.4,27.2z"/>
</g>
</svg>
