<?xml version="1.0" encoding="utf-8"?>
<!-- Generator: Adobe Illustrator 16.0.0, SVG Export Plug-In . SVG Version: 6.00 Build 0)  -->
<!DOCTYPE svg PUBLIC "-//W3C//DTD SVG 1.0//EN" "http://www.w3.org/TR/2001/REC-SVG-20010904/DTD/svg10.dtd">
<svg version="1.0" id="Layer_1" xmlns="http://www.w3.org/2000/svg" xmlns:xlink="http://www.w3.org/1999/xlink" x="0px" y="0px"
	 width="25px" height="25px" viewBox="0 0 25 25" enable-background="new 0 0 25 25" xml:space="preserve">
<g>
	<path fill-rule="evenodd" clip-rule="evenodd" fill="#CCC6C1" d="M3.357,8.972C3.373,7.013,3.943,5.44,5.227,4.17
		c0.466-0.46,0.976-0.88,1.495-1.278c0.605-0.465,1.296-0.404,1.852,0.155c0.326,0.329,0.631,0.69,0.89,1.074
		c0.51,0.756,1.04,1.504,1.338,2.38c0.298,0.872,0.184,1.658-0.525,2.296C9.914,9.122,9.55,9.453,9.151,9.727
		c-0.86,0.588-0.989,1.325-0.654,2.274c0.296,0.841,0.801,1.563,1.346,2.254c0.727,0.92,1.5,1.8,2.413,2.544
		c0.505,0.412,1.037,0.782,1.687,0.938c0.576,0.137,1.064-0.021,1.488-0.427c0.404-0.388,0.809-0.778,1.236-1.143
		c0.717-0.61,1.512-0.646,2.322-0.219c0.393,0.207,0.771,0.455,1.113,0.737c0.582,0.482,1.139,0.998,1.689,1.519
		c0.182,0.174,0.328,0.397,0.455,0.618c0.338,0.589,0.299,1.165-0.188,1.636c-0.664,0.644-1.32,1.304-2.135,1.771
		c-1.004,0.573-2.08,0.852-3.236,0.845c-1.648-0.01-3.125-0.564-4.513-1.401c-1.566-0.945-2.9-2.17-4.126-3.518
		c-1.232-1.354-2.354-2.792-3.24-4.403c-0.652-1.187-1.149-2.431-1.355-3.776C3.393,9.587,3.377,9.193,3.357,8.972z"/>
</g>
</svg>
