<?xml version="1.0" encoding="utf-8"?>
<!-- Generator: Adobe Illustrator 16.0.0, SVG Export Plug-In . SVG Version: 6.00 Build 0)  -->
<!DOCTYPE svg PUBLIC "-//W3C//DTD SVG 1.1//EN" "http://www.w3.org/Graphics/SVG/1.1/DTD/svg11.dtd">
<svg version="1.1" id="Layer_1" xmlns="http://www.w3.org/2000/svg" xmlns:xlink="http://www.w3.org/1999/xlink" x="0px" y="0px"
	 width="38px" height="38px" viewBox="0 0 38 38" enable-background="new 0 0 38 38" xml:space="preserve">
<g>
	<g>
		<path fill="#C8A985" d="M0.236,18.424c0,10.046,8.145,18.19,18.188,18.19c10.047,0,18.19-8.145,18.19-18.19
			c0-10.044-8.144-18.188-18.19-18.188C8.38,0.236,0.236,8.38,0.236,18.424z"/>
	</g>
</g>
<g>
	<path fill="#FFFFFF" d="M10.45,27.198c-1.972,0-3.58-1.604-3.583-3.577L6.843,13.281c-0.002-0.954,0.369-1.854,1.046-2.535
		c0.677-0.68,1.575-1.056,2.53-1.059l15.972-0.035c1.981,0,3.589,1.604,3.593,3.577l0.023,10.339
		c0.004,1.977-1.601,3.589-3.577,3.594L10.45,27.198z M26.4,11.153l-15.977,0.035c-0.554,0.001-1.076,0.22-1.47,0.617
		c-0.395,0.396-0.611,0.919-0.609,1.473l0.023,10.34c0.002,1.147,0.937,2.08,2.083,2.08v0.75l0.005-0.75l15.971-0.035
		c1.149-0.003,2.083-0.94,2.081-2.091l-0.023-10.339C28.482,12.086,27.547,11.153,26.4,11.153z"/>
</g>
<g>
	<rect x="11.235" y="18.371" fill="#FFFFFF" width="12.626" height="1.5"/>
</g>
<g>
	<rect x="11.115" y="21.173" fill="#FFFFFF" width="9" height="1.5"/>
</g>
</svg>
