<?xml version="1.0" encoding="utf-8"?>
<!-- Generator: Adobe Illustrator 19.2.1, SVG Export Plug-In . SVG Version: 6.00 Build 0)  -->
<svg version="1.1" id="Слой_1" xmlns="http://www.w3.org/2000/svg" xmlns:xlink="http://www.w3.org/1999/xlink" x="0px" y="0px"
	 viewBox="0 0 28.4 28.4" style="enable-background:new 0 0 28.4 28.4;" xml:space="preserve">
<style type="text/css">
	.st0{fill:#575756;}
</style>
<g>
	<g>
		<path class="st0" d="M17.3,19.3c-4.8,0-8.7-3.9-8.7-8.7c0-4.8,3.9-8.7,8.7-8.7S26,5.8,26,10.6C26,15.4,22.1,19.3,17.3,19.3z
			 M17.3,2.9c-4.3,0-7.7,3.5-7.7,7.7c0,4.3,3.5,7.7,7.7,7.7c4.3,0,7.7-3.5,7.7-7.7S21.5,2.9,17.3,2.9z"/>
	</g>
</g>
<g>
	<g>
		<path class="st0" d="M2.5,26.1c-0.1,0-0.3,0-0.4-0.1c-0.2-0.2-0.2-0.5,0-0.7l7.1-7.1c0.2-0.2,0.5-0.2,0.7,0s0.2,0.5,0,0.7
			l-7.1,7.1C2.7,26,2.6,26.1,2.5,26.1z"/>
	</g>
</g>
</svg>
