<?xml version="1.0" encoding="utf-8"?>
<!-- Generator: Adobe Illustrator 19.2.1, SVG Export Plug-In . SVG Version: 6.00 Build 0)  -->
<svg version="1.1" id="Слой_1" xmlns="http://www.w3.org/2000/svg" xmlns:xlink="http://www.w3.org/1999/xlink" x="0px" y="0px"
	 viewBox="0 0 17 35" style="enable-background:new 0 0 17 35;" xml:space="preserve">
<style type="text/css">
	.st0{fill-rule:evenodd;clip-rule:evenodd;fill:#FFFFFF;}
</style>
<g>
	<path class="st0" d="M10.5,34.3C10.5,34.3,10.5,34.4,10.5,34.3c-2.1,0-4,0-6,0c0,0,0,0-0.1,0c0,0,0-0.1,0-0.1c0-0.1,0-0.2,0-0.3
		c0-5,0-9.9,0-14.9c0-0.1,0-0.2,0-0.4c-0.1,0-0.2,0-0.3,0c-1.2,0-2.4,0-3.6,0c-0.1,0-0.2,0-0.3,0c-0.1-0.1,0-0.2,0-0.3
		c0-0.8,0-1.6,0-2.4c0-0.9,0-1.8,0-2.7c0-0.1,0-0.2,0-0.3c0.1,0,0.1,0,0.2,0c0.1,0,0.3,0,0.4,0c1.1,0,2.2,0,3.3,0c0.1,0,0.2,0,0.3,0
		c0-0.1,0-0.2,0-0.3c0-1.4,0-2.9,0-4.3c0-0.5,0-1.1,0.1-1.6C5.1,4,6.5,2.3,8.8,1.3c0.6-0.3,1.3-0.4,2-0.5c0.9-0.1,1.9-0.2,2.8-0.1
		c0.2,0,0.4,0,0.6,0c0.7,0,1.4,0.1,2.1,0.2c0.1,0,0.2,0,0.4,0.1c0,0.1,0,0.2,0,0.3c0,0.6,0,1.1,0,1.7c0,1,0,2-0.1,3
		c0,0.1,0,0.3,0,0.5c-0.1,0-0.2,0-0.3,0c-1.1,0-2.2,0-3.3,0c-0.3,0-0.6,0-0.8,0.1c-0.1,0-0.1,0-0.2,0c-0.7,0.2-1.1,0.6-1.2,1.3
		c-0.1,0.3-0.1,0.6-0.1,0.9c0,1.3,0,2.6,0,4c0,0.1,0,0.1,0,0.2c0.1,0,0.2,0,0.3,0c1.8,0,3.6,0,5.5,0c0.1,0,0.2,0,0.3,0
		c0,0,0,0.1,0,0.1c0,0.4-0.2,5.4-0.3,5.6c-0.1,0-0.2,0-0.3,0c-1.8,0-3.5,0-5.3,0c-0.1,0-0.2,0-0.3,0c0,0.1,0,0.1,0,0.2
		c0,0.1,0,0.2,0,0.3c0,5,0,10,0,15C10.6,34.1,10.6,34.2,10.5,34.3z"/>
</g>
</svg>
