<?xml version="1.0" encoding="utf-8"?>
<!-- Generator: Adobe Illustrator 19.2.1, SVG Export Plug-In . SVG Version: 6.00 Build 0)  -->
<svg version="1.1" id="Слой_1" xmlns="http://www.w3.org/2000/svg" xmlns:xlink="http://www.w3.org/1999/xlink" x="0px" y="0px"
	 viewBox="0 0 37 30" style="enable-background:new 0 0 37 30;" xml:space="preserve">
<style type="text/css">
	.st0{fill-rule:evenodd;clip-rule:evenodd;fill:#FFFFFF;}
</style>
<g>
	<path class="st0" d="M0.8,26.3c2.2,0.1,4.3,0,6.4-0.8c0.9-0.3,1.8-0.7,2.7-1.2c0.5-0.3,1-0.6,1.5-1c-0.4-0.1-0.8-0.1-1.1-0.2
		c-2.6-0.6-4.4-2.1-5.4-4.5c0-0.1-0.1-0.2-0.1-0.3c0,0,0-0.1,0-0.1c1,0,2,0.1,3-0.1c-1.6-0.5-3-1.3-4-2.7c-1-1.3-1.6-2.9-1.5-4.7
		c1,0.5,2,0.8,3.1,0.9c-1.8-1.4-2.8-3.2-3-5.4C2,4.3,2.4,2.8,3.1,1.8c0.4,0.4,0.8,0.7,1.1,1.1C5.3,4,6.4,5,7.7,5.8
		c2.7,1.8,5.7,2.9,8.9,3.4c0.5,0.1,1.1,0.1,1.7,0.2c0-0.2,0-0.3,0-0.5c-0.1-1.3-0.1-2.6,0.4-3.8c1-2.5,2.9-4.1,5.5-4.6
		c2.3-0.5,4.5,0.1,6.3,1.7c0.1,0.1,0.2,0.2,0.3,0.2c0.2,0.2,0.4,0.2,0.6,0.2c1.1-0.2,2.1-0.7,3.2-1.1c0.4-0.2,0.7-0.3,1.1-0.5
		C35,2.6,34,3.8,32.7,4.9c0.7,0,1.3-0.2,1.9-0.4c0.6-0.2,1.2-0.4,1.9-0.6c-0.1,0.2-0.1,0.3-0.2,0.4c-0.8,1.2-1.8,2.2-2.9,3.1
		C33.1,7.5,33,7.7,33,8c0,0.9-0.1,1.8-0.2,2.7c-0.1,1.5-0.5,3-1,4.5c-0.8,2.3-1.8,4.5-3.3,6.4c-2.9,3.8-6.7,6.4-11.5,7.5
		c-1.4,0.3-2.9,0.5-4.3,0.5c-0.6,0-1.1,0-1.7,0c-1.7,0-3.3-0.3-4.8-0.7c-1.7-0.5-3.2-1.2-4.8-2c-0.2-0.1-0.5-0.3-0.7-0.4
		C0.7,26.4,0.7,26.4,0.8,26.3z"/>
</g>
</svg>
