<?xml version="1.0" encoding="utf-8"?>
<!-- Generator: Adobe Illustrator 19.2.1, SVG Export Plug-In . SVG Version: 6.00 Build 0)  -->
<svg version="1.1" id="Слой_1" xmlns="http://www.w3.org/2000/svg" xmlns:xlink="http://www.w3.org/1999/xlink" x="0px" y="0px"
	 viewBox="0 0 44 30" style="enable-background:new 0 0 44 30;" xml:space="preserve">
<style type="text/css">
	.st0{fill:#FFFFFF;}
</style>
<g>
	<path class="st0" d="M25.6,17.5c-1,0.8-2.3,1.2-3.6,1.2c-1.3,0-2.5-0.4-3.5-1.1L0.8,4C0.6,4.4,0.5,4.9,0.5,5.4v20.4
		c0,2,1.6,3.5,3.5,3.5h35.9c2,0,3.5-1.6,3.5-3.5V5.4c0-0.6-0.1-1.1-0.4-1.6L25.6,17.5z"/>
	<path class="st0" d="M20,14.3c1.1,0.8,3,0.8,4.1,0L41.2,0.9c-0.4-0.2-0.8-0.3-1.3-0.3H4C3.5,0.6,3,0.8,2.5,1L20,14.3z"/>
</g>
</svg>
