<?xml version="1.0" encoding="utf-8"?>
<!-- Generator: Adobe Illustrator 19.2.1, SVG Export Plug-In . SVG Version: 6.00 Build 0)  -->
<svg version="1.1" id="Слой_1" xmlns="http://www.w3.org/2000/svg" xmlns:xlink="http://www.w3.org/1999/xlink" x="0px" y="0px"
	 viewBox="0 0 35 35" style="enable-background:new 0 0 35 35;" xml:space="preserve">
<style type="text/css">
	.st0{fill:#FFFFFF;}
</style>
<g>
	<path class="st0" d="M0.6,34.6c0-0.1,0-0.1,0.1-0.2c1-2.9,1.9-5.7,2.9-8.6c0-0.1,0-0.2,0-0.3c-1.1-1.9-1.9-4-2.2-6.2
		c-0.5-3.7,0.2-7.2,2-10.4C5.1,5.8,7.6,3.5,10.8,2c1.6-0.7,3.2-1.2,4.9-1.4c2.9-0.4,5.7,0,8.4,1.1c2.2,0.9,4.1,2.2,5.8,4
		c2.1,2.3,3.5,4.9,4.2,8c0.3,1.4,0.4,2.9,0.3,4.4c-0.2,3.4-1.3,6.5-3.5,9.3c-2.4,3.1-5.6,5.2-9.5,6.1c-1.6,0.4-3.1,0.5-4.7,0.4
		c-2.4-0.2-4.7-0.8-6.8-2c-0.1-0.1-0.2-0.1-0.3,0c-2.9,0.9-5.9,1.9-8.8,2.8C0.7,34.5,0.7,34.5,0.6,34.6z M4.9,30.3
		c0.1,0,0.1,0,0.2-0.1c1.7-0.5,3.3-1.1,5-1.6c0.1,0,0.2,0,0.3,0c3,1.9,6.3,2.6,9.9,2c3.3-0.6,6.1-2.2,8.2-4.7
		c2.7-3.2,3.7-6.9,3.1-11c-0.5-3.3-2-6-4.5-8.2c-2.3-2-4.9-3.1-7.9-3.4c-1.3-0.1-2.6-0.1-3.9,0.2c-3.2,0.7-5.9,2.3-8,4.8
		c-2.6,3.1-3.5,6.8-3,10.8c0.3,2.2,1.1,4.2,2.4,5.9c0.1,0.1,0.1,0.2,0,0.3c-0.5,1.6-1.1,3.2-1.6,4.8C4.9,30.2,4.9,30.2,4.9,30.3z"/>
	<path class="st0" d="M9.5,13.1c0-1.3,0.5-2.5,1.4-3.4c0.2-0.2,0.5-0.5,0.8-0.6c0.3-0.1,0.7-0.1,1-0.1c0.2,0,0.4,0,0.5,0
		c0.3,0,0.5,0.1,0.6,0.3C13.9,9.4,14,9.6,14,9.7c0.4,1,0.7,2,1.1,3c0,0.1,0.1,0.2,0.1,0.4c0.1,0.2,0.1,0.4,0,0.5
		c-0.1,0.3-0.3,0.6-0.5,0.8c-0.2,0.2-0.5,0.5-0.7,0.8c-0.2,0.2-0.3,0.4-0.1,0.7c1.2,2.2,2.8,3.9,5,5c0.2,0.1,0.4,0.2,0.7,0.3
		c0.4,0.2,0.6,0.1,0.8-0.1c0.5-0.5,0.9-1.1,1.4-1.6c0.3-0.3,0.5-0.4,0.8-0.2c0.5,0.2,0.9,0.4,1.4,0.7c0.7,0.3,1.3,0.7,2,1.1
		c0.4,0.2,0.5,0.3,0.5,0.8c0,0.5-0.2,1-0.3,1.5c-0.2,0.4-0.5,0.7-0.8,1c-0.6,0.5-1.3,0.8-2,1c-0.3,0.1-0.6,0.1-0.9,0.1
		c-0.4,0-0.9-0.1-1.3-0.2c-1.4-0.4-2.7-0.9-3.9-1.6c-1.3-0.7-2.5-1.7-3.5-2.8c-0.9-1-1.8-2.1-2.5-3.3c-0.5-0.7-0.9-1.4-1.2-2.2
		C9.7,14.5,9.5,13.8,9.5,13.1z"/>
</g>
</svg>
