<?xml version="1.0" encoding="utf-8"?>
<!-- Generator: Adobe Illustrator 16.0.0, SVG Export Plug-In . SVG Version: 6.00 Build 0)  -->
<!DOCTYPE svg PUBLIC "-//W3C//DTD SVG 1.1//EN" "http://www.w3.org/Graphics/SVG/1.1/DTD/svg11.dtd">
<svg version="1.1" id="Layer_1" xmlns="http://www.w3.org/2000/svg" xmlns:xlink="http://www.w3.org/1999/xlink" x="0px" y="0px"
	 width="40px" height="40px" viewBox="0 0 40 40" enable-background="new 0 0 40 40" xml:space="preserve">
<path fill="#414042" d="M21.618,20.063L39.023,2.658c0.392-0.392,0.392-1.023,0-1.414c-0.391-0.392-1.022-0.392-1.414,0
	L20.204,18.649L2.799,1.244c-0.391-0.392-1.023-0.392-1.414,0c-0.391,0.391-0.391,1.022,0,1.414L18.79,20.063L1.385,37.469
	c-0.391,0.391-0.391,1.023,0,1.414c0.195,0.195,0.451,0.293,0.707,0.293s0.512-0.098,0.707-0.293l17.405-17.406l17.404,17.406
	c0.195,0.195,0.451,0.293,0.707,0.293s0.513-0.098,0.707-0.293c0.392-0.391,0.392-1.023,0-1.414L21.618,20.063z"/>
</svg>
