<?xml version="1.0" encoding="utf-8"?>
<!-- Generator: Adobe Illustrator 19.2.1, SVG Export Plug-In . SVG Version: 6.00 Build 0)  -->
<svg version="1.1" id="Слой_1" xmlns="http://www.w3.org/2000/svg" xmlns:xlink="http://www.w3.org/1999/xlink" x="0px" y="0px"
	 viewBox="0 0 37 30" style="enable-background:new 0 0 37 30;" xml:space="preserve">
<style type="text/css">
	.st0{fill:#FFFFFF;}
</style>
<g>
	<path class="st0" d="M35.4,1.4c-0.1,0.4-0.1,1-0.2,1.6c-0.3,1.5-0.6,2.9-0.9,4.4c-0.5,2.5-1,4.9-1.5,7.4c-0.3,1.7-0.7,3.3-1.1,5
		c-0.5,2.5-1,4.9-1.5,7.4c-0.1,0.6-0.2,1.1-0.4,1.6c-0.2,0.8-1,1.1-1.7,0.7c-1.9-1.3-3.8-2.6-5.8-3.9c-0.8-0.6-1.6-1.1-2.5-1.7
		c-0.5-0.3-0.6-0.3-1.1,0.1c-0.1,0.1-0.1,0.1-0.2,0.2c-1.3,1.2-2.5,2.4-3.8,3.6c-0.1,0.1-0.2,0.2-0.3,0.3c-0.5,0.4-0.8,0.3-1.1-0.3
		c-0.2-0.3-0.3-0.7-0.4-1c-0.8-2.4-1.5-4.8-2.3-7.1c-0.1-0.3-0.2-0.7-0.3-1c-0.1-0.6-0.5-0.9-1-1c-1.2-0.4-2.4-0.9-3.6-1.3
		c-1.1-0.4-2.3-0.8-3.4-1.3c-0.4-0.2-0.8-0.5-1.2-0.8c-0.2-0.2-0.3-0.5,0-0.7c0.3-0.3,0.6-0.6,1-0.8c2.4-1,4.9-1.9,7.4-2.8
		c1.9-0.7,3.8-1.5,5.7-2.2c2.1-0.8,4.2-1.6,6.3-2.4c2.3-0.9,4.5-1.7,6.8-2.6c1.8-0.7,3.7-1.4,5.5-2.1c0.2-0.1,0.4-0.1,0.6-0.1
		C35.2,0.3,35.4,0.4,35.4,1.4z M29.1,5.4c-0.1,0-0.2,0.1-0.2,0.2c-1.5,1-3,2-4.5,3c-1.7,1.1-3.4,2.2-5.1,3.3
		c-1.4,0.9-2.7,1.8-4.1,2.7c-1.1,0.7-2.2,1.5-3.4,2.2c-0.3,0.2-0.3,0.4-0.2,0.7c0.6,2,1.2,3.9,1.8,5.9c0.1,0.4,0.2,0.8,0.4,1.1
		c0,0.1,0.1,0.2,0.2,0.3c0-0.1,0.1-0.2,0.1-0.3c0.2-1.4,0.4-2.7,0.6-4.1c0-0.4,0.1-0.8,0.5-1c0.6-0.5,1.2-1,1.7-1.5
		c2.8-2.7,5.6-5.4,8.3-8.1c1.2-1.2,2.4-2.4,3.6-3.6c0.1-0.1,0.3-0.3,0.4-0.4c0,0,0-0.1,0-0.2C29.2,5.4,29.1,5.4,29.1,5.4z"/>
</g>
</svg>
