<?xml version="1.0" encoding="utf-8"?>
<!-- Generator: Adobe Illustrator 16.0.0, SVG Export Plug-In . SVG Version: 6.00 Build 0)  -->
<!DOCTYPE svg PUBLIC "-//W3C//DTD SVG 1.1//EN" "http://www.w3.org/Graphics/SVG/1.1/DTD/svg11.dtd">
<svg version="1.1" id="Layer_1" xmlns="http://www.w3.org/2000/svg" xmlns:xlink="http://www.w3.org/1999/xlink" x="0px" y="0px"
	 width="36.85px" height="45.35px" viewBox="0 0 36.85 45.35" enable-background="new 0 0 36.85 45.35" xml:space="preserve">
<g>
	<path fill="#414042" d="M6.021,41.185c-0.552,0-1-0.447-1-1V15.111c0-0.552,0.448-1,1-1s1,0.448,1,1v25.074
		C7.021,40.737,6.573,41.185,6.021,41.185z"/>
</g>
<g>
	<path fill="#414042" d="M18.417,28.647c-0.552,0-1-0.447-1-1V6.396c0-0.552,0.448-1,1-1s1,0.448,1,1v21.251
		C19.417,28.2,18.969,28.647,18.417,28.647z"/>
</g>
<g>
	<path fill="#414042" d="M30.978,41.185c-0.553,0-1-0.447-1-1V15.111c0-0.552,0.447-1,1-1s1,0.448,1,1v25.074
		C31.978,40.737,31.53,41.185,30.978,41.185z"/>
</g>
<g>
	<path fill="#414042" d="M30.978,41.185H6.021c-0.552,0-1-0.447-1-1s0.448-1,1-1h24.957c0.553,0,1,0.447,1,1
		S31.53,41.185,30.978,41.185z"/>
</g>
<g>
	<path fill="#414042" d="M14.448,16.149H6.021c-0.552,0-1-0.448-1-1s0.448-1,1-1h8.428c0.552,0,1,0.448,1,1S15,16.149,14.448,16.149
		z"/>
</g>
<g>
	<path fill="#414042" d="M30.978,16.149H22.55c-0.553,0-1-0.448-1-1s0.447-1,1-1h8.428c0.553,0,1,0.448,1,1
		S31.53,16.149,30.978,16.149z"/>
</g>
<g>
	<path fill="#414042" d="M11.99,11.672c-0.287,0-0.571-0.123-0.769-0.36c-0.354-0.424-0.296-1.055,0.128-1.408l6.427-5.358
		c0.37-0.31,0.909-0.31,1.281,0l6.429,5.358c0.424,0.354,0.481,0.984,0.128,1.408c-0.354,0.424-0.982,0.482-1.409,0.128
		l-5.788-4.824l-5.787,4.824C12.443,11.596,12.215,11.672,11.99,11.672z"/>
</g>
</svg>
