<?xml version="1.0" encoding="utf-8"?>
<!-- Generator: Adobe Illustrator 16.0.0, SVG Export Plug-In . SVG Version: 6.00 Build 0)  -->
<!DOCTYPE svg PUBLIC "-//W3C//DTD SVG 1.0//EN" "http://www.w3.org/TR/2001/REC-SVG-20010904/DTD/svg10.dtd">
<svg version="1.0" id="Layer_1" xmlns="http://www.w3.org/2000/svg" xmlns:xlink="http://www.w3.org/1999/xlink" x="0px" y="0px"
	 width="25px" height="25px" viewBox="0 0 25 25" enable-background="new 0 0 25 25" xml:space="preserve">
<g>
	<g>
		<path fill-rule="evenodd" clip-rule="evenodd" fill="#CCC6C1" d="M12.746,0.953c6.606,0.065,11.867,5.391,11.792,11.943
			c-0.074,6.518-5.473,11.887-12.211,11.67C6.062,24.365,0.835,19.197,0.925,12.599C1.013,6.101,6.3,0.968,12.746,0.953z
			 M2.914,14.973c0.045-0.262,0.072-0.529,0.141-0.787c0.094-0.357,0.204-0.714,0.335-1.062c0.052-0.134,0.171-0.287,0.354-0.166
			c0.453,0.298,0.923,0.58,1.337,0.927c0.328,0.275,0.68,0.479,1.07,0.633c0.355,0.141,0.717,0.27,1.057,0.441
			c0.529,0.268,0.56,0.484,0.103,0.854c-0.656,0.531-1.11,1.195-1.397,1.98c-0.189,0.518-0.379,1.037-0.585,1.547
			c-0.071,0.176-0.043,0.285,0.09,0.416c2.853,2.814,6.233,3.775,10.096,2.721c6.065-1.654,9.106-8.611,6.272-14.224
			c-0.036-0.073-0.08-0.143-0.121-0.213c-0.021,0.007-0.045,0.013-0.066,0.019c0,0.326-0.008,0.652,0.001,0.979
			c0.011,0.326-0.058,0.645-0.284,0.866c-0.359,0.351-0.758,0.663-1.156,0.973c-0.201,0.156-0.445,0.259-0.657,0.405
			c-0.26,0.18-0.359,0.437-0.277,0.747c0.075,0.283,0.137,0.573,0.247,0.844c0.206,0.503,0.2,1.003,0.063,1.515
			c-0.375,1.398-1.099,2.621-1.937,3.779c-0.253,0.352-0.549,0.68-0.862,0.98c-0.337,0.32-0.644,0.254-0.807-0.184
			c-0.131-0.354-0.22-0.734-0.25-1.111c-0.081-0.947-0.095-1.9-0.179-2.848c-0.092-1.025-0.346-1.997-1.199-2.693
			c-0.062-0.05-0.104-0.123-0.164-0.174C14.07,12.08,14,12.019,13.92,11.99c-0.929-0.33-1.855-0.665-2.793-0.974
			c-0.473-0.154-0.705-0.406-0.692-0.906c0.024-0.986,0.802-1.812,1.748-1.639c0.262,0.048,0.375-0.087,0.368-0.319
			c-0.009-0.346-0.022-0.695-0.077-1.037c-0.126-0.791-0.53-1.123-1.334-1.11c-0.355,0.006-0.711,0.068-1.065,0.071
			C9.6,6.079,9.325,6.322,9.201,6.752c-0.123,0.426-0.223,0.859-0.33,1.29C8.788,8.379,8.732,8.724,8.621,9.05
			C8.507,9.384,8.275,9.43,7.998,9.207c-0.063-0.051-0.114-0.112-0.17-0.17C7.526,8.718,7.543,8.302,7.491,7.909
			C7.437,7.487,7.407,7.062,7.36,6.567C7.089,7.045,6.848,7.451,6.625,7.866C6.219,8.623,5.51,8.905,4.735,9.063
			C4.406,9.13,4.203,8.951,4.176,8.61C4.154,8.357,4.185,8.098,4.203,7.842C4.21,7.736,4.248,7.634,4.27,7.529
			c0.022-0.103,0.04-0.206,0.06-0.308C2.75,9.606,2.272,12.19,2.914,14.973z"/>
	</g>
</g>
</svg>
