<?xml version="1.0" encoding="utf-8"?>
<!-- Generator: Adobe Illustrator 16.0.0, SVG Export Plug-In . SVG Version: 6.00 Build 0)  -->
<!DOCTYPE svg PUBLIC "-//W3C//DTD SVG 1.1//EN" "http://www.w3.org/Graphics/SVG/1.1/DTD/svg11.dtd">
<svg version="1.1" id="Layer_1" xmlns="http://www.w3.org/2000/svg" xmlns:xlink="http://www.w3.org/1999/xlink" x="0px" y="0px"
	 width="28.35px" height="28.35px" viewBox="0 0 28.35 28.35" enable-background="new 0 0 28.35 28.35" xml:space="preserve">
<g>
	<g>
		<path fill="#FFFFFF" d="M5.658,26.133l0.724-2.047c0,0,1.685-4.763,2.52-7.07c-2.112-1.389-6.622-4.4-6.622-4.4l-2.014-1.345
			l10.7,0.005c0.547-1.538,2.596-7.089,2.596-7.089l0.691-1.875l0.686,1.877c0,0,1.765,4.83,2.555,7.038
			c0.007,0.018,0.013,0.034,0.019,0.049c0.023,0.001,0.034,0,0.053,0H17.8c2.719,0,7.987,0.034,7.987,0.034l2.406,0.015l-2.006,1.33
			c0,0-4.346,2.881-6.604,4.363c0.837,2.319,2.489,6.937,2.545,7.115l0.61,1.916l-1.7-1.073c-0.122-0.076-4.703-3.084-6.747-4.427
			c-0.018-0.012-0.035-0.023-0.051-0.035c-0.017,0.012-0.033,0.021-0.052,0.035c-2.1,1.381-6.714,4.396-6.714,4.396L5.658,26.133z
			 M14.241,18.999c0.333,0,0.583,0.146,0.855,0.321c1.293,0.852,3.4,2.234,4.913,3.227c-0.586-1.64-1.393-3.889-1.887-5.256
			c-0.23-0.641-0.111-0.995,0.451-1.366c1.246-0.817,3.274-2.157,4.793-3.162c-1.745-0.009-4.053-0.019-5.567-0.019h-0.214
			c-0.83,0-1.197-0.257-1.474-1.02c-0.47-1.313-1.284-3.552-1.865-5.151c-0.664,1.804-1.61,4.38-1.915,5.244
			c-0.21,0.591-0.663,0.919-1.275,0.927l-5.946-0.003c1.49,0.993,3.457,2.301,4.634,3.074c0.688,0.443,0.835,0.877,0.555,1.65
			c-0.475,1.313-1.242,3.468-1.809,5.063c1.527-0.999,3.651-2.39,4.897-3.209C13.599,19.182,13.883,18.999,14.241,18.999z"/>
	</g>
</g>
</svg>
