<?xml version="1.0" encoding="utf-8"?>
<!-- Generator: Adobe Illustrator 16.0.0, SVG Export Plug-In . SVG Version: 6.00 Build 0)  -->
<!DOCTYPE svg PUBLIC "-//W3C//DTD SVG 1.1//EN" "http://www.w3.org/Graphics/SVG/1.1/DTD/svg11.dtd">
<svg version="1.1" id="Layer_1" xmlns="http://www.w3.org/2000/svg" xmlns:xlink="http://www.w3.org/1999/xlink" x="0px" y="0px"
	 width="31px" height="31px" viewBox="0 0 31 31" enable-background="new 0 0 31 31" xml:space="preserve">
<path fill="#FFFFFF" d="M23.955,29.696H7.728V1.482h16.227V29.696z M10.507,15.078c-0.646,0-1.169,0.523-1.169,1.17
	c0,0.646,0.523,1.169,1.169,1.169c0.646,0,1.169-0.523,1.169-1.169C11.676,15.602,11.152,15.078,10.507,15.078 M13.768,7.981V6.634
	c0-1.146,0.929-2.074,2.075-2.074c1.146,0,2.074,0.929,2.074,2.074v1.348H13.768 M12.334,13.786h7.018V7.981h-0.575V6.573
	c0-1.62-1.313-2.935-2.934-2.935s-2.935,1.314-2.935,2.935v1.408h-0.574V13.786z"/>
</svg>
