<?xml version="1.0" encoding="utf-8"?>
<!-- Generator: Adobe Illustrator 16.0.0, SVG Export Plug-In . SVG Version: 6.00 Build 0)  -->
<!DOCTYPE svg PUBLIC "-//W3C//DTD SVG 1.1//EN" "http://www.w3.org/Graphics/SVG/1.1/DTD/svg11.dtd">
<svg version="1.1" id="Layer_1" xmlns="http://www.w3.org/2000/svg" xmlns:xlink="http://www.w3.org/1999/xlink" x="0px" y="0px"
	 width="73.7px" height="22.68px" viewBox="0 0 73.7 22.68" enable-background="new 0 0 73.7 22.68" xml:space="preserve">
<rect x="3.236" y="7.603" fill-rule="evenodd" clip-rule="evenodd" fill="#2160A8" width="67.831" height="11.428"/>
<polygon fill-rule="evenodd" clip-rule="evenodd" fill="#F8EB36" points="58.191,17.512 3.236,17.512 3.236,16.796 58.434,16.796 
	"/>
<g>
	<path fill-rule="evenodd" clip-rule="evenodd" d="M2.795,0.953c0.11,0.063,0.219,0.109,0.354,0.114
		c0.098,0.002,0.21,0.044,0.285,0.106c0.141,0.117,0.26,0.259,0.384,0.395c0.042,0.046,0.071,0.104,0.112,0.166
		C3.956,1.716,3.979,1.702,4,1.686c0.271-0.21,0.657-0.126,0.806,0.185c0.03,0.063,0.038,0.17,0.004,0.227
		C4.69,2.306,4.711,2.513,4.798,2.713C4.9,2.949,4.995,3.182,4.975,3.445c0.261,0.14,0.449,0.333,0.539,0.614
		c0.012,0.038,0.063,0.063,0.095,0.094c0.104,0.098,0.207,0.198,0.313,0.293c0.041,0.037,0.09,0.064,0.136,0.096
		C6.068,4.549,6.08,4.551,6.09,4.556c0.194,0.093,0.395,0.125,0.613,0.121c0.149-0.002,0.3,0.072,0.451,0.108
		c0.058,0.014,0.128,0.04,0.178,0.021C7.671,4.681,8.02,4.613,8.41,4.621C8.371,4.555,8.341,4.508,8.316,4.458
		c-0.24-0.461-0.254-0.914,0.051-1.356c0.03-0.044,0.049-0.105,0.049-0.158c0.004-0.669,0.291-1.162,0.895-1.465
		C9.346,1.463,9.383,1.438,9.4,1.405c0.099-0.188,0.274-0.261,0.464-0.297c0.194-0.038,0.393-0.041,0.582,0.028
		c0.09,0.033,0.192,0.075,0.25,0.145c0.092,0.113,0.212,0.169,0.331,0.238c0.444,0.257,0.71,0.632,0.744,1.156
		c0.003,0.048,0.02,0.104,0.051,0.14c0.416,0.489,0.453,1.014,0.157,1.574c-0.005,0.01-0.009,0.021-0.013,0.032
		c-0.002,0.005,0,0.011,0,0.022c0.15,0.028,0.301,0.052,0.452,0.083c0.24,0.048,0.446,0.177,0.667,0.275
		c0.216,0.096,0.466,0.116,0.68,0.237c0.219,0.124,0.413,0.276,0.563,0.48c0.189,0.257,0.278,0.544,0.226,0.864
		c-0.021,0.117,0.005,0.197,0.091,0.289c0.369,0.4,0.438,0.879,0.305,1.389c-0.035,0.136-0.022,0.219,0.077,0.317
		c0.189,0.187,0.264,0.432,0.282,0.69c0.008,0.106,0.053,0.163,0.139,0.217c0.351,0.221,0.575,0.528,0.619,0.951
		c0.018,0.182-0.02,0.355-0.08,0.525c-0.066,0.183-0.057,0.192,0.099,0.316c0.185,0.147,0.375,0.292,0.538,0.461
		c0.193,0.202,0.332,0.443,0.373,0.728c0.028,0.188-0.023,0.369-0.088,0.536c-0.082,0.212-0.423,0.34-0.673,0.282
		c-0.078-0.017-0.152-0.048-0.233-0.074c-0.124,0.076-0.25,0.158-0.38,0.23c-0.178,0.1-0.3,0.089-0.432-0.064
		c-0.111-0.13-0.193-0.284-0.292-0.426c-0.048-0.069-0.098-0.14-0.157-0.2c-0.161-0.165-0.253-0.347-0.159-0.577
		c0.033-0.083,0.001-0.145-0.048-0.213c-0.362-0.03-0.704-0.119-0.939-0.427c-0.012,0.212-0.007,0.421-0.041,0.625
		c-0.027,0.163-0.088,0.324-0.158,0.474c-0.054,0.114-0.075,0.214-0.056,0.343c0.081,0.561-0.073,1.051-0.481,1.452
		c-0.021,0.021-0.038,0.044-0.063,0.071c0.008,0.036,0.015,0.076,0.024,0.113c0.044,0.188,0.043,0.377,0,0.566
		c-0.012,0.05-0.009,0.117,0.017,0.159c0.233,0.368,0.21,0.745,0.039,1.124c-0.061,0.136-0.154,0.257-0.225,0.389
		c-0.036,0.069-0.069,0.146-0.077,0.222c-0.042,0.396-0.115,0.783-0.389,1.09c-0.136,0.154-0.303,0.278-0.481,0.439
		c0.046,0.207,0.125,0.442,0.267,0.646c0.054,0.079,0.167,0.116,0.253,0.175c0.195,0.132,0.399,0.254,0.583,0.4
		c0.25,0.199,0.324,0.492,0.319,0.793c-0.003,0.234-0.129,0.427-0.329,0.561c-0.256,0.17-0.545,0.255-0.845,0.29
		c-0.238,0.027-0.482,0.025-0.724,0.016c-0.242-0.01-0.432-0.146-0.546-0.351c-0.2-0.356-0.453-0.66-0.741-0.951
		c-0.4-0.403-0.453-0.91-0.201-1.421c0.049-0.099,0.104-0.191,0.159-0.293c-0.034-0.032-0.062-0.061-0.091-0.086
		c-0.515-0.439-0.658-0.994-0.508-1.639c0.02-0.085,0.014-0.153-0.031-0.229c-0.088-0.148-0.167-0.302-0.253-0.461
		c-0.081,0.123-0.172,0.233-0.125,0.419c0.059,0.229,0.002,0.457-0.089,0.676c-0.128,0.303-0.308,0.567-0.584,0.756
		c-0.087,0.059-0.127,0.128-0.154,0.231c-0.15,0.564-0.497,0.942-1.075,1.082c-0.082,0.02-0.134,0.052-0.159,0.135
		c-0.034,0.116-0.081,0.229-0.117,0.344c-0.067,0.22-0.069,0.44-0.016,0.667c0.054,0.223,0.105,0.449,0.129,0.679
		c0.018,0.163,0.009,0.336-0.027,0.496c-0.055,0.249-0.235,0.401-0.469,0.494c-0.252,0.1-0.517,0.11-0.784,0.118
		c-0.714,0.021-1.217-0.327-1.584-0.909c-0.14-0.222-0.147-0.446,0.003-0.667c0.111-0.162,0.229-0.318,0.343-0.477
		c0.125-0.174,0.25-0.349,0.376-0.52c0.157-0.213,0.244-0.458,0.352-0.693c0.042-0.095,0.031-0.166-0.042-0.248
		c-0.202-0.222-0.354-0.478-0.381-0.779c-0.018-0.182-0.004-0.372,0.033-0.549c0.046-0.227,0.128-0.445,0.301-0.613
		c0.064-0.062,0.062-0.132,0.052-0.207C4.99,16.2,4.975,16.114,4.963,16.028c-0.081-0.613,0.157-1.098,0.632-1.465
		c0.141-0.108,0.194-0.252,0.266-0.393c0.018-0.036-0.006-0.1-0.022-0.147c-0.19-0.619-0.107-1.197,0.261-1.73
		c0.043-0.064,0.05-0.12,0.034-0.194c-0.111-0.494-0.029-0.951,0.274-1.361c0.041-0.057,0.055-0.104,0.034-0.174
		C6.34,10.224,6.339,9.881,6.413,9.535c0.013-0.061-0.008-0.134-0.028-0.197c-0.05-0.152-0.117-0.3-0.162-0.454
		c-0.023-0.081-0.06-0.109-0.14-0.121C5.639,8.699,5.279,8.482,5.004,8.132c-0.079-0.1-0.167-0.16-0.29-0.198
		C4.2,7.775,3.821,7.446,3.621,6.948c-0.084-0.211-0.18-0.393-0.337-0.562C3.017,6.098,2.885,5.743,2.9,5.341
		C2.902,5.291,2.895,5.236,2.877,5.19C2.736,4.828,2.774,4.489,3.008,4.175c0.007-0.008,0.008-0.021,0.016-0.047
		C2.962,4.072,2.896,4.009,2.827,3.951C2.396,3.589,2.185,3.129,2.205,2.565c0.002-0.058-0.003-0.116,0.001-0.173
		c0.018-0.216-0.008-0.417-0.109-0.618c-0.117-0.23-0.091-0.287,0.1-0.463C2.213,1.296,2.239,1.28,2.241,1.262
		c0.027-0.163,0.165-0.224,0.276-0.309C2.61,0.953,2.703,0.953,2.795,0.953z M7.556,5.108c0.336,0.288,0.499,0.646,0.603,1.035
		C8.18,6.221,8.235,6.238,8.292,6.261c0.414,0.171,0.845,0.274,1.29,0.31c0.717,0.057,1.431,0.014,2.135-0.134
		c0.373-0.079,0.737-0.188,1.071-0.378c0.152-0.086,0.294-0.185,0.393-0.333c0.118-0.176,0.112-0.34-0.042-0.484
		c-0.096-0.088-0.21-0.165-0.328-0.219c-0.338-0.157-0.703-0.216-1.071-0.257c-0.072-0.008-0.13,0.012-0.19,0.057
		c-0.074,0.054-0.161,0.089-0.245,0.125c-0.027,0.012-0.065-0.003-0.098-0.006c0.189-0.119,0.252-0.268,0.172-0.464
		c0.579-0.35,0.575-1.042,0.002-1.61c0.061-0.299-0.021-0.557-0.217-0.784c-0.193-0.222-0.455-0.325-0.747-0.409
		c0.085-0.116,0.009-0.158-0.073-0.183c-0.081-0.025-0.169-0.048-0.252-0.048C9.962,1.445,9.829,1.453,9.719,1.579
		C9.792,1.62,9.853,1.655,9.942,1.706C9.587,1.717,9.31,1.834,9.095,2.083C8.878,2.335,8.801,2.63,8.8,2.957
		c0.294,0.007,0.305,0.008,0.332,0.046c-0.004,0.004-0.006,0.011-0.01,0.012C9.099,3.022,9.077,3.028,9.055,3.033
		C8.821,3.083,8.669,3.229,8.581,3.447C8.423,3.835,8.555,4.261,8.908,4.498c0.061,0.041,0.124,0.077,0.19,0.117
		C9.081,4.635,9.071,4.649,9.06,4.661C8.927,4.808,8.93,4.837,9.071,4.984c0.023,0.025,0.024,0.071,0.037,0.108
		C9.098,5.105,9.087,5.118,9.077,5.13c-0.229-0.117-0.47-0.194-0.724-0.183C8.092,4.958,7.837,5.002,7.556,5.108z M13.712,7.913
		c-0.03,0.014-0.049,0.019-0.061,0.029c-0.287,0.27-0.628,0.45-0.991,0.588c-1.072,0.408-2.18,0.534-3.314,0.354
		C8.765,8.792,8.219,8.597,7.742,8.239c-0.013-0.01-0.031-0.012-0.057-0.021C7.407,8.526,7.025,8.638,6.637,8.729
		C6.64,8.927,6.721,9.08,6.817,9.223C6.975,9.457,7.18,9.642,7.411,9.798c0.693,0.471,1.472,0.701,2.294,0.798
		c0.629,0.074,1.257,0.044,1.879-0.067c0.521-0.094,1.017-0.257,1.451-0.571c0.444-0.321,0.739-0.739,0.812-1.295
		C13.882,8.4,13.835,8.152,13.712,7.913z M13.385,5.946c-0.249,0.252-0.557,0.405-0.883,0.528c-0.55,0.208-1.121,0.322-1.702,0.364
		c-0.841,0.06-1.673,0.014-2.473-0.292c-0.02-0.008-0.044-0.003-0.079-0.005c0.035,0.515-0.094,0.987-0.341,1.43
		c0.324,0.27,0.679,0.443,1.066,0.547c0.995,0.268,1.988,0.231,2.977-0.023c0.474-0.122,0.919-0.306,1.302-0.619
		C13.895,7.351,13.917,6.607,13.385,5.946z M6.817,9.725C6.802,9.743,6.791,9.751,6.79,9.76c-0.059,0.469,0.043,0.894,0.356,1.258
		c0.319,0.37,0.731,0.599,1.182,0.758c1.006,0.354,2.037,0.436,3.086,0.234c0.461-0.089,0.904-0.232,1.293-0.508
		c0.306-0.217,0.54-0.488,0.649-0.851c0.055-0.18,0.083-0.364,0.027-0.569c-0.073,0.048-0.13,0.085-0.187,0.123
		c-0.708,0.459-1.501,0.64-2.327,0.692c-0.607,0.039-1.211-0.002-1.808-0.132c-0.782-0.172-1.51-0.458-2.138-0.97
		C6.891,9.769,6.853,9.748,6.817,9.725z M4.446,4.449c0.02-0.072,0.037-0.125,0.047-0.178c0.012-0.061,0.042-0.131,0.024-0.184
		C4.465,3.934,4.508,3.805,4.582,3.675C4.681,3.5,4.696,3.314,4.627,3.124C4.589,3.021,4.549,2.919,4.511,2.816
		C4.408,2.544,4.378,2.271,4.519,2.005C4.35,1.831,4.266,1.839,4.154,2.032C4.063,2.19,4.055,2.36,4.092,2.534
		c0.019,0.088,0.046,0.174,0.075,0.278C3.944,2.832,3.988,3.094,3.796,3.19c0.011-0.113-0.002-0.202,0.03-0.268
		C3.891,2.79,3.886,2.668,3.843,2.53C3.807,2.417,3.828,2.285,3.79,2.173C3.7,1.907,3.558,1.67,3.343,1.484
		C3.3,1.446,3.245,1.422,3.195,1.392c-0.008,0.01-0.015,0.02-0.023,0.03C3.198,1.47,3.224,1.52,3.25,1.568
		c0.125,0.227,0.25,0.455,0.374,0.683c0.044,0.083,0.08,0.167-0.021,0.26C3.568,2.448,3.539,2.394,3.508,2.34
		c-0.149-0.26-0.289-0.525-0.453-0.776C2.986,1.457,2.872,1.377,2.771,1.293c-0.052-0.044-0.12-0.051-0.164-0.019
		C2.722,1.432,2.84,1.573,2.934,1.728c0.155,0.263,0.294,0.536,0.438,0.805C3.386,2.56,3.39,2.593,3.399,2.623
		c-0.008,0.01-0.016,0.02-0.024,0.03C3.33,2.632,3.278,2.619,3.243,2.587C3.21,2.558,3.196,2.509,3.172,2.47
		C3.03,2.233,2.889,1.995,2.743,1.761C2.7,1.693,2.647,1.629,2.59,1.573C2.52,1.503,2.484,1.512,2.399,1.596
		c0.045,0.106,0.09,0.211,0.14,0.327c0.027,0.001,0.062,0,0.095,0.005c0.145,0.021,0.269,0.139,0.294,0.279
		C2.974,2.448,3.017,2.689,3.063,2.94C3.044,2.95,3.012,2.968,2.961,2.996C2.926,2.895,2.89,2.811,2.869,2.723
		C2.83,2.561,2.798,2.396,2.768,2.232C2.75,2.134,2.699,2.08,2.587,2.063c-0.013,0.04-0.035,0.074-0.036,0.111
		C2.545,2.353,2.543,2.532,2.541,2.711C2.536,3.083,2.698,3.378,2.962,3.625C3.042,3.7,3.123,3.776,3.211,3.841
		C3.387,3.967,3.534,4.112,3.63,4.313c0.068,0.145,0.18,0.254,0.361,0.255c0.021,0,0.041,0.03,0.063,0.047
		C3.87,4.759,3.64,4.728,3.523,4.552C3.481,4.486,3.438,4.42,3.394,4.354C3.112,4.579,3.096,5.002,3.357,5.253
		c0.156,0.151,0.339,0.236,0.555,0.25c0.434,0.026,0.787-0.145,1.081-0.451c0.157-0.164,0.237-0.366,0.25-0.594
		c0.015-0.282-0.146-0.62-0.417-0.688C4.71,3.899,4.733,4.059,4.729,4.213C4.724,4.377,4.659,4.439,4.446,4.449z M6.704,11.02
		c-0.215,0.286-0.29,0.679-0.18,1.087c0.171,0.637,0.585,1.076,1.159,1.371c0.518,0.268,1.068,0.266,1.621,0.151
		c0.365-0.074,0.686-0.241,0.929-0.531c0.167-0.198,0.263-0.426,0.262-0.701c-0.071-0.006-0.127-0.013-0.183-0.015
		c-0.485-0.018-0.968-0.053-1.443-0.161c-0.608-0.139-1.181-0.357-1.667-0.761C7.033,11.32,6.872,11.169,6.704,11.02z M9.908,13.69
		c-1.461,0.513-2.638,0.209-3.497-1.104c-0.343,0.48-0.375,1.179,0.008,1.716c0.652,0.913,1.746,1.13,2.7,0.611
		C9.592,14.655,9.826,14.224,9.908,13.69z M11.469,20.774c0.002-0.018,0.003-0.035,0.006-0.054c0.09-0.008,0.179-0.016,0.269-0.027
		c0.16-0.022,0.321-0.037,0.476-0.077c0.115-0.029,0.237-0.073,0.328-0.146c0.239-0.192,0.303-0.435,0.024-0.666
		c-0.093-0.076-0.199-0.138-0.303-0.198c-0.125-0.073-0.259-0.13-0.378-0.209c-0.114-0.076-0.229-0.099-0.361-0.078
		c-0.134,0.021-0.271,0.034-0.413,0.052c-0.022-0.063-0.041-0.115-0.068-0.19c0.175-0.039,0.335-0.074,0.506-0.111
		c-0.021-0.074-0.042-0.149-0.065-0.234c-0.192,0.032-0.367,0.061-0.55,0.091c-0.03-0.075-0.056-0.141-0.087-0.221
		c0.198-0.037,0.377-0.072,0.559-0.107c-0.008-0.057-0.015-0.102-0.023-0.146c0-0.004-0.009-0.007-0.026-0.023
		c-0.352,0.109-0.714,0.104-1.065-0.038c-0.186,0.177-0.249,0.396-0.303,0.623c-0.045,0.188-0.035,0.369,0.064,0.535
		c0.08,0.132,0.169,0.265,0.277,0.374c0.194,0.199,0.373,0.406,0.502,0.656c0.11,0.209,0.298,0.35,0.531,0.379
		c0.446,0.055,0.874-0.026,1.267-0.253c0.05-0.028,0.088-0.081,0.131-0.123c-0.009-0.014-0.019-0.028-0.028-0.041
		c-0.041,0.017-0.086,0.03-0.123,0.056c-0.307,0.211-0.649,0.258-1.008,0.227C11.559,20.816,11.514,20.79,11.469,20.774z
		 M5.737,15.008c-0.026,0.008-0.04,0.008-0.047,0.015c-0.018,0.014-0.035,0.031-0.049,0.048c-0.311,0.376-0.396,0.807-0.264,1.268
		c0.246,0.863,0.873,1.376,1.843,1.369c0.667-0.004,1.235-0.508,1.327-1.164c0.009-0.063-0.002-0.131-0.004-0.224
		c-0.592,0.334-1.175,0.382-1.763,0.103C6.189,16.141,5.803,15.694,5.737,15.008z M5.479,18.75
		c-0.189,0.416-0.431,0.788-0.699,1.145c-0.149,0.197-0.291,0.401-0.436,0.603c-0.125,0.174-0.129,0.354-0.011,0.532
		c0.035,0.053,0.068,0.107,0.112,0.152c0.286,0.295,0.638,0.449,1.046,0.47c0.097,0.005,0.198-0.006,0.317-0.071
		c-0.188-0.021-0.343-0.024-0.49-0.061c-0.143-0.036-0.285-0.094-0.416-0.163c-0.13-0.069-0.249-0.165-0.328-0.313
		c0.028,0,0.035-0.003,0.04,0c0.04,0.023,0.078,0.049,0.118,0.071c0.511,0.287,1.039,0.315,1.579,0.095
		c0.158-0.063,0.202-0.146,0.172-0.313c-0.037-0.204-0.074-0.408-0.132-0.607c-0.092-0.322-0.077-0.637,0.025-0.951
		c0.021-0.066,0.046-0.13,0.067-0.196c0.011-0.036,0.018-0.071,0.027-0.109C5.787,18.953,5.787,18.953,5.479,18.75z M12.525,15.433
		c-0.449,0.466-0.989,0.652-1.619,0.576c-0.641-0.079-1.12-0.388-1.384-1.03c-0.087,0.169-0.135,0.313-0.14,0.469
		c-0.021,0.575,0.228,1.024,0.686,1.34c0.617,0.426,1.269,0.394,1.912,0.052c0.297-0.156,0.486-0.42,0.583-0.742
		C12.629,15.88,12.65,15.659,12.525,15.433z M6.765,5.069c0.149,0.315,0.254,0.599,0.306,0.903c0.157,0.926-0.414,1.766-1.337,1.952
		C5.641,7.942,5.548,7.957,5.441,7.976c0.022,0.03,0.033,0.05,0.049,0.064C5.525,8.07,5.56,8.101,5.599,8.126
		c0.347,0.226,0.725,0.313,1.136,0.256c0.563-0.077,0.946-0.38,1.12-0.919c0.062-0.189,0.084-0.395,0.093-0.594
		C7.962,6.52,7.916,6.177,7.757,5.86C7.557,5.457,7.235,5.203,6.765,5.069z M6.11,4.91c0.079,0.644-0.079,1.166-0.556,1.56
		C5.08,6.86,4.545,6.942,3.933,6.729c0.045,0.093,0.07,0.155,0.105,0.211c0.22,0.356,0.542,0.577,0.939,0.691
		C5.72,7.848,6.534,7.415,6.73,6.677c0.164-0.617-0.022-1.16-0.438-1.631C6.253,5.002,6.196,4.973,6.11,4.91z M12.95,12.852
		c-0.045,0.024-0.063,0.029-0.075,0.04c-0.591,0.516-1.279,0.708-2.051,0.612c-0.143-0.019-0.28-0.063-0.419-0.095
		c-0.109-0.024-0.175,0.012-0.191,0.109c-0.04,0.232-0.08,0.464-0.122,0.709c0.014,0.013,0.038,0.036,0.065,0.056
		c0.262,0.192,0.559,0.291,0.883,0.315c0.555,0.042,1.052-0.102,1.46-0.49C12.851,13.775,12.976,13.351,12.95,12.852z M6.178,14.418
		c-0.037,0.089-0.07,0.149-0.089,0.213c-0.149,0.481-0.024,0.902,0.296,1.268c0.439,0.502,1.35,0.611,1.905,0.243
		c0.197-0.13,0.354-0.299,0.419-0.532c0.022-0.078,0.019-0.163,0.028-0.256C7.693,15.546,6.854,15.246,6.178,14.418z M5.493,4.521
		C5.384,5.038,5.078,5.365,4.641,5.575C4.195,5.789,3.746,5.8,3.3,5.533C3.42,6.297,4.168,6.781,4.901,6.59
		c0.53-0.138,0.943-0.622,0.978-1.169C5.9,5.074,5.817,4.759,5.493,4.521z M5.252,16.737c-0.144,0.105-0.214,0.241-0.241,0.396
		c-0.09,0.533,0.109,0.965,0.5,1.311c0.299,0.264,0.67,0.345,1.062,0.34c0.485-0.007,0.922-0.331,1.065-0.793
		c0.01-0.033,0.005-0.071,0.008-0.115C6.561,18.082,5.768,17.702,5.252,16.737z M10.496,13.209c0.561,0.204,1.317,0.135,1.851-0.17
		c0.392-0.224,0.671-0.54,0.805-0.976c0.056-0.186,0.082-0.376,0.069-0.61c-0.361,0.305-0.734,0.526-1.147,0.675
		c-0.419,0.15-0.855,0.217-1.301,0.256C10.751,12.694,10.659,12.964,10.496,13.209z M9.731,14.775
		c0.042,0.252,0.158,0.457,0.34,0.629c0.502,0.475,1.409,0.54,1.97,0.138c0.278-0.201,0.528-0.545,0.408-1.073
		c-0.831,0.474-1.658,0.493-2.477-0.042C9.887,14.55,9.809,14.663,9.731,14.775z M9.682,16.713
		c-0.079,0.154-0.065,0.306-0.055,0.452c0.024,0.396,0.196,0.706,0.545,0.909c0.167,0.099,0.349,0.152,0.538,0.175
		c0.684,0.082,1.257-0.173,1.436-0.929c0.023-0.102,0.03-0.208,0.045-0.312c-0.01-0.008-0.021-0.013-0.032-0.021
		c-0.387,0.277-0.82,0.362-1.28,0.328C10.4,17.28,10.009,17.067,9.682,16.713z M13.712,10.528c0.01,0.092,0.008,0.167,0.026,0.237
		c0.072,0.278,0.257,0.46,0.521,0.559c0.455,0.169,1.177-0.056,1.387-0.637c0.171-0.474-0.03-0.95-0.499-1.124
		C14.881,10.173,14.347,10.403,13.712,10.528z M13.731,10.291c0.089-0.016,0.151-0.022,0.211-0.04
		c0.457-0.129,0.809-0.382,0.974-0.846c0.099-0.277,0.012-0.699-0.274-0.885c-0.176,0.137-0.348,0.27-0.536,0.417
		c-0.035,0.255-0.161,0.497-0.329,0.721C13.743,9.702,13.7,9.756,13.7,9.806C13.699,9.96,13.718,10.114,13.731,10.291z
		 M15.888,11.556c0.016-0.01,0.032-0.02,0.047-0.03c0.064,0.077,0.128,0.156,0.194,0.233c0.068,0.08,0.137,0.158,0.207,0.234
		c0.066,0.071,0.127,0.149,0.22,0.189c-0.071-0.288-0.253-0.489-0.476-0.658c-0.15-0.114-0.308-0.216-0.449-0.314
		c-0.233,0.134-0.464,0.269-0.698,0.403c0.027,0.118,0.059,0.227,0.189,0.285c0.066,0.029,0.123,0.069,0.2,0.084
		c0.072,0.016,0.166,0.055,0.2,0.114c0.067,0.118,0.174,0.178,0.278,0.248c0.09,0.061,0.167,0.14,0.254,0.204
		c0.092,0.067,0.184,0.139,0.286,0.188c0.086,0.04,0.189-0.009,0.242-0.086c0.055-0.084,0.022-0.155-0.034-0.221
		c-0.042-0.048-0.089-0.091-0.13-0.14c-0.145-0.179-0.291-0.358-0.43-0.541C15.945,11.691,15.921,11.621,15.888,11.556z
		 M14.373,6.892c-0.149,0.236-0.298,0.472-0.454,0.719c0.181,0.235,0.247,0.521,0.262,0.828C14.741,8.181,14.835,7.304,14.373,6.892
		z M14.041,6.754c0.364-0.491,0.047-1.316-0.521-1.411c0.009,0.096,0.02,0.192,0.03,0.296C13.89,5.917,14.007,6.305,14.041,6.754z
		 M15.455,12.939c0.136-0.094,0.264-0.183,0.388-0.27c-0.112-0.23-0.187-0.192-0.347-0.087
		C15.341,12.686,15.327,12.783,15.455,12.939z M15.465,12.408c-0.016-0.06-0.018-0.125-0.05-0.166
		c-0.035-0.045-0.097-0.089-0.15-0.092c-0.032-0.002-0.085,0.067-0.102,0.114c-0.038,0.108-0.044,0.221,0.036,0.333
		C15.288,12.534,15.366,12.478,15.465,12.408z M14.941,12.338c0.033-0.091,0.055-0.161,0.083-0.228
		c0.02-0.05,0.026-0.091-0.028-0.117c-0.063-0.03-0.103,0.015-0.119,0.063C14.845,12.147,14.843,12.242,14.941,12.338z"/>
	<path fill-rule="evenodd" clip-rule="evenodd" fill="#FFFFFF" d="M7.556,5.108c0.282-0.105,0.537-0.15,0.797-0.161
		C8.607,4.937,8.847,5.014,9.077,5.13c0.01-0.013,0.021-0.025,0.031-0.038C9.096,5.056,9.095,5.009,9.071,4.984
		C8.93,4.837,8.927,4.808,9.06,4.661c0.012-0.012,0.021-0.026,0.038-0.046c-0.066-0.04-0.129-0.077-0.19-0.117
		C8.555,4.261,8.423,3.835,8.581,3.447c0.088-0.217,0.24-0.364,0.474-0.414c0.022-0.005,0.043-0.011,0.066-0.018
		c0.004-0.001,0.006-0.008,0.01-0.012C9.104,2.965,9.094,2.964,8.8,2.957C8.801,2.63,8.878,2.335,9.095,2.083
		C9.31,1.834,9.587,1.717,9.942,1.706C9.853,1.655,9.792,1.62,9.719,1.579c0.11-0.126,0.244-0.133,0.373-0.135
		c0.083,0,0.171,0.022,0.252,0.048c0.082,0.025,0.158,0.067,0.073,0.183c0.292,0.084,0.554,0.187,0.747,0.409
		c0.196,0.227,0.278,0.485,0.217,0.784c0.572,0.567,0.576,1.26-0.002,1.61c0.081,0.196,0.018,0.345-0.172,0.464
		c0.033,0.002,0.071,0.018,0.098,0.006c0.084-0.036,0.171-0.07,0.245-0.125c0.061-0.045,0.118-0.064,0.19-0.057
		c0.368,0.041,0.732,0.1,1.071,0.257c0.118,0.055,0.232,0.131,0.328,0.219c0.153,0.144,0.16,0.308,0.042,0.484
		c-0.099,0.148-0.241,0.247-0.393,0.333c-0.333,0.19-0.698,0.3-1.071,0.378c-0.705,0.148-1.418,0.191-2.135,0.134
		c-0.444-0.036-0.876-0.138-1.29-0.31C8.235,6.238,8.18,6.221,8.159,6.143C8.055,5.753,7.892,5.396,7.556,5.108z M11.219,2.869
		c-0.01-0.211-0.045-0.412-0.22-0.56c-0.161-0.137-0.306-0.128-0.427,0.042c-0.21,0.299-0.189,0.702,0.04,0.963
		c0.166,0.189,0.322,0.169,0.466-0.007C11.183,3.18,11.211,3.028,11.219,2.869z M10.249,2.924c-0.003-0.289-0.064-0.466-0.234-0.596
		c-0.143-0.11-0.268-0.103-0.396,0.027C9.39,2.587,9.364,3.071,9.565,3.33c0.164,0.211,0.424,0.204,0.551-0.031
		C10.191,3.161,10.222,3,10.249,2.924z M11.03,3.801c-0.08,0.012-0.139,0.036-0.191,0.026C10.533,3.77,10.231,3.805,9.93,3.861
		C9.845,3.877,9.757,3.888,9.721,3.751C9.664,3.87,9.547,3.932,9.578,4.069c0.19-0.099,0.342-0.081,0.5,0.05
		c0.066,0.056,0.131,0.113,0.204,0.159c0.109,0.068,0.22,0.059,0.321-0.022c0.044-0.035,0.087-0.076,0.124-0.12
		c0.091-0.108,0.189-0.201,0.366-0.172C11.067,3.899,11.05,3.854,11.03,3.801z"/>
	<path fill-rule="evenodd" clip-rule="evenodd" fill="#FFFFFF" d="M13.712,7.913c0.124,0.239,0.17,0.487,0.136,0.75
		c-0.072,0.556-0.368,0.974-0.812,1.295c-0.434,0.314-0.93,0.478-1.451,0.571c-0.623,0.111-1.25,0.141-1.879,0.067
		C8.883,10.5,8.104,10.27,7.411,9.798C7.18,9.642,6.975,9.457,6.817,9.223C6.721,9.08,6.64,8.927,6.637,8.729
		c0.389-0.092,0.77-0.203,1.048-0.511c0.026,0.009,0.044,0.011,0.057,0.021c0.477,0.357,1.023,0.553,1.604,0.645
		c1.134,0.18,2.242,0.054,3.314-0.354c0.363-0.138,0.705-0.318,0.991-0.588C13.663,7.932,13.682,7.927,13.712,7.913z"/>
	<path fill-rule="evenodd" clip-rule="evenodd" fill="#FFFFFF" d="M13.385,5.946c0.532,0.661,0.509,1.405-0.132,1.93
		c-0.383,0.313-0.829,0.498-1.302,0.619c-0.989,0.254-1.982,0.291-2.977,0.023C8.586,8.414,8.231,8.24,7.908,7.971
		c0.247-0.443,0.376-0.916,0.341-1.43c0.035,0.002,0.06-0.003,0.079,0.005C9.127,6.852,9.959,6.897,10.8,6.837
		c0.582-0.042,1.152-0.155,1.702-0.364C12.829,6.351,13.137,6.198,13.385,5.946z"/>
	<path fill-rule="evenodd" clip-rule="evenodd" fill="#FFFFFF" d="M6.817,9.725c0.035,0.023,0.074,0.044,0.107,0.071
		c0.627,0.512,1.356,0.798,2.138,0.97c0.597,0.13,1.201,0.171,1.808,0.132c0.826-0.052,1.619-0.233,2.327-0.692
		c0.057-0.038,0.114-0.075,0.187-0.123c0.056,0.205,0.028,0.389-0.027,0.569c-0.11,0.363-0.344,0.634-0.649,0.851
		c-0.389,0.275-0.832,0.419-1.293,0.508c-1.049,0.201-2.081,0.12-3.086-0.234c-0.451-0.16-0.863-0.389-1.182-0.758
		C6.833,10.654,6.731,10.229,6.79,9.76C6.791,9.751,6.802,9.743,6.817,9.725z"/>
	<path fill-rule="evenodd" clip-rule="evenodd" fill="#FFFFFF" d="M4.446,4.449c0.213-0.01,0.278-0.071,0.282-0.236
		C4.733,4.059,4.71,3.899,4.826,3.771c0.27,0.068,0.431,0.406,0.417,0.688c-0.013,0.228-0.093,0.43-0.25,0.594
		C4.699,5.358,4.346,5.529,3.912,5.503c-0.216-0.014-0.399-0.099-0.555-0.25C3.096,5.002,3.112,4.579,3.394,4.354
		C3.438,4.42,3.481,4.486,3.523,4.552C3.64,4.728,3.87,4.759,4.055,4.615C4.032,4.598,4.012,4.568,3.991,4.568
		c-0.181,0-0.293-0.11-0.361-0.255C3.534,4.112,3.387,3.967,3.211,3.841C3.123,3.776,3.042,3.7,2.962,3.625
		C2.698,3.378,2.536,3.083,2.541,2.711c0.002-0.179,0.004-0.358,0.011-0.537c0.001-0.037,0.022-0.071,0.036-0.111
		C2.699,2.08,2.75,2.134,2.768,2.232c0.03,0.164,0.063,0.329,0.101,0.491C2.89,2.811,2.926,2.895,2.961,2.996
		C3.012,2.968,3.044,2.95,3.063,2.94C3.017,2.689,2.974,2.448,2.929,2.207c-0.025-0.14-0.15-0.258-0.294-0.279
		C2.601,1.923,2.566,1.924,2.539,1.922C2.49,1.807,2.445,1.702,2.399,1.596C2.484,1.512,2.52,1.503,2.59,1.573
		c0.057,0.057,0.11,0.12,0.152,0.188C2.889,1.995,3.03,2.233,3.172,2.47C3.196,2.509,3.21,2.558,3.243,2.587
		C3.278,2.619,3.33,2.632,3.375,2.653c0.008-0.01,0.016-0.02,0.024-0.03C3.39,2.593,3.386,2.56,3.372,2.533
		C3.228,2.264,3.088,1.991,2.934,1.728C2.84,1.573,2.722,1.432,2.607,1.274c0.044-0.032,0.112-0.025,0.164,0.019
		c0.101,0.084,0.215,0.164,0.284,0.271C3.219,1.815,3.359,2.081,3.508,2.34c0.03,0.054,0.06,0.108,0.095,0.17
		c0.101-0.093,0.065-0.177,0.021-0.26C3.501,2.023,3.375,1.795,3.25,1.568C3.224,1.52,3.198,1.47,3.172,1.421
		c0.008-0.01,0.015-0.02,0.023-0.03C3.245,1.422,3.3,1.446,3.343,1.484C3.558,1.67,3.7,1.907,3.79,2.173
		C3.828,2.285,3.807,2.417,3.843,2.53C3.886,2.668,3.891,2.79,3.826,2.923C3.793,2.989,3.807,3.078,3.796,3.19
		c0.192-0.097,0.148-0.359,0.372-0.378c-0.029-0.104-0.056-0.19-0.075-0.278C4.055,2.36,4.063,2.19,4.154,2.032
		C4.266,1.839,4.35,1.831,4.519,2.005c-0.14,0.266-0.11,0.539-0.008,0.812c0.039,0.103,0.079,0.205,0.116,0.308
		C4.696,3.314,4.681,3.5,4.582,3.675c-0.074,0.13-0.117,0.259-0.064,0.412c0.018,0.052-0.012,0.123-0.024,0.184
		C4.483,4.324,4.466,4.376,4.446,4.449z M3.286,3.104C3.415,3.17,3.545,3.235,3.676,3.3C3.669,3.094,3.536,3.028,3.286,3.104z"/>
	<path fill-rule="evenodd" clip-rule="evenodd" fill="#FFFFFF" d="M6.704,11.02c0.168,0.149,0.329,0.3,0.497,0.44
		c0.487,0.404,1.06,0.623,1.667,0.761c0.475,0.108,0.958,0.144,1.443,0.161c0.056,0.002,0.112,0.009,0.183,0.015
		c0.001,0.275-0.094,0.503-0.262,0.701c-0.244,0.29-0.564,0.457-0.929,0.531C8.75,13.743,8.2,13.745,7.683,13.478
		c-0.573-0.295-0.988-0.734-1.159-1.371C6.415,11.699,6.489,11.306,6.704,11.02z"/>
	<path fill-rule="evenodd" clip-rule="evenodd" fill="#FFFFFF" d="M9.908,13.69c-0.083,0.533-0.316,0.965-0.789,1.224
		c-0.954,0.519-2.047,0.302-2.7-0.611c-0.384-0.537-0.352-1.235-0.008-1.716C7.271,13.899,8.447,14.203,9.908,13.69z"/>
	<path fill-rule="evenodd" clip-rule="evenodd" fill="#FFFFFF" d="M11.469,20.774c0.045,0.016,0.09,0.042,0.137,0.047
		c0.359,0.031,0.702-0.016,1.008-0.227c0.037-0.025,0.082-0.039,0.123-0.056c0.009,0.013,0.019,0.027,0.028,0.041
		c-0.043,0.042-0.081,0.095-0.131,0.123c-0.393,0.227-0.821,0.308-1.267,0.253c-0.233-0.029-0.421-0.17-0.531-0.379
		c-0.13-0.25-0.308-0.457-0.502-0.656c-0.107-0.109-0.197-0.242-0.277-0.374c-0.1-0.166-0.11-0.348-0.064-0.535
		c0.055-0.227,0.117-0.446,0.303-0.623c0.352,0.142,0.713,0.147,1.065,0.038c0.018,0.017,0.026,0.02,0.026,0.023
		c0.008,0.045,0.015,0.09,0.023,0.146c-0.182,0.035-0.361,0.07-0.559,0.107c0.031,0.08,0.057,0.146,0.087,0.221
		c0.183-0.03,0.358-0.059,0.55-0.091c0.023,0.085,0.044,0.16,0.065,0.234c-0.171,0.037-0.331,0.072-0.506,0.111
		c0.027,0.075,0.046,0.128,0.068,0.19c0.142-0.018,0.279-0.03,0.413-0.052c0.132-0.021,0.247,0.002,0.361,0.078
		c0.119,0.079,0.253,0.136,0.378,0.209c0.104,0.061,0.21,0.122,0.303,0.198c0.279,0.231,0.215,0.474-0.024,0.666
		c-0.091,0.073-0.213,0.117-0.328,0.146c-0.155,0.04-0.316,0.055-0.476,0.077c-0.09,0.012-0.179,0.02-0.269,0.027
		C11.472,20.739,11.471,20.757,11.469,20.774z"/>
	<path fill-rule="evenodd" clip-rule="evenodd" fill="#FFFFFF" d="M5.737,15.008c0.066,0.687,0.452,1.133,1.042,1.414
		c0.587,0.279,1.17,0.231,1.763-0.103c0.002,0.093,0.013,0.16,0.004,0.224c-0.092,0.656-0.66,1.16-1.327,1.164
		c-0.97,0.007-1.597-0.506-1.843-1.369c-0.132-0.461-0.047-0.892,0.264-1.268c0.015-0.017,0.032-0.034,0.049-0.048
		C5.698,15.016,5.711,15.016,5.737,15.008z"/>
	<path fill-rule="evenodd" clip-rule="evenodd" fill="#FFFFFF" d="M5.479,18.75c0.308,0.203,0.308,0.203,0.994,0.282
		c-0.009,0.038-0.016,0.073-0.027,0.109c-0.021,0.066-0.045,0.13-0.067,0.196c-0.103,0.314-0.118,0.629-0.025,0.951
		c0.058,0.199,0.095,0.403,0.132,0.607c0.03,0.167-0.014,0.25-0.172,0.313c-0.54,0.221-1.068,0.192-1.579-0.095
		c-0.04-0.022-0.078-0.048-0.118-0.071c-0.004-0.003-0.011,0-0.04,0c0.08,0.147,0.198,0.243,0.328,0.313
		c0.131,0.069,0.272,0.127,0.416,0.163c0.147,0.036,0.303,0.039,0.49,0.061c-0.119,0.065-0.22,0.076-0.317,0.071
		c-0.408-0.021-0.76-0.175-1.046-0.47c-0.044-0.045-0.078-0.1-0.112-0.152c-0.118-0.179-0.114-0.358,0.011-0.532
		c0.145-0.201,0.287-0.405,0.436-0.603C5.047,19.538,5.29,19.166,5.479,18.75z M5.407,19.376c0.238,0.043,0.466,0.084,0.705,0.128
		c0.018-0.07,0.035-0.134,0.053-0.203c-0.252-0.11-0.499-0.117-0.757-0.093C5.407,19.27,5.407,19.324,5.407,19.376z M5.301,19.859
		c0.225,0.031,0.445,0.063,0.673,0.093c0.018-0.056,0.034-0.109,0.057-0.185c-0.252-0.043-0.485-0.085-0.73-0.127
		C5.301,19.731,5.301,19.792,5.301,19.859z"/>
	<path fill-rule="evenodd" clip-rule="evenodd" fill="#FFFFFF" d="M12.525,15.433c0.125,0.227,0.104,0.447,0.038,0.664
		c-0.097,0.322-0.286,0.586-0.583,0.742c-0.644,0.342-1.295,0.374-1.912-0.052c-0.458-0.315-0.707-0.765-0.686-1.34
		c0.005-0.155,0.053-0.3,0.14-0.469c0.265,0.643,0.743,0.951,1.384,1.03C11.536,16.085,12.076,15.898,12.525,15.433z"/>
	<path fill-rule="evenodd" clip-rule="evenodd" fill="#FFFFFF" d="M6.765,5.069c0.47,0.134,0.792,0.388,0.993,0.791
		c0.158,0.317,0.205,0.66,0.19,1.009c-0.008,0.2-0.031,0.405-0.093,0.594c-0.174,0.54-0.558,0.842-1.12,0.919
		c-0.412,0.057-0.79-0.03-1.136-0.256C5.56,8.101,5.525,8.07,5.491,8.04C5.475,8.025,5.464,8.005,5.441,7.976
		c0.106-0.019,0.2-0.033,0.292-0.051c0.923-0.187,1.494-1.026,1.337-1.952C7.019,5.668,6.914,5.384,6.765,5.069z"/>
	<path fill-rule="evenodd" clip-rule="evenodd" fill="#FFFFFF" d="M6.11,4.91c0.085,0.063,0.143,0.092,0.182,0.136
		C6.708,5.517,6.895,6.06,6.73,6.677c-0.197,0.738-1.01,1.17-1.754,0.955C4.58,7.517,4.258,7.296,4.038,6.94
		c-0.035-0.056-0.06-0.118-0.105-0.211C4.545,6.942,5.08,6.86,5.554,6.469C6.031,6.076,6.189,5.553,6.11,4.91z"/>
	<path fill-rule="evenodd" clip-rule="evenodd" fill="#FFFFFF" d="M12.95,12.852c0.025,0.499-0.1,0.924-0.45,1.257
		c-0.408,0.389-0.905,0.532-1.46,0.49c-0.324-0.024-0.621-0.123-0.883-0.315c-0.027-0.02-0.052-0.043-0.065-0.056
		c0.042-0.245,0.082-0.477,0.122-0.709c0.017-0.098,0.082-0.134,0.191-0.109c0.139,0.032,0.277,0.076,0.419,0.095
		c0.772,0.096,1.46-0.097,2.051-0.612C12.888,12.881,12.905,12.876,12.95,12.852z"/>
	<path fill-rule="evenodd" clip-rule="evenodd" fill="#FFFFFF" d="M6.178,14.418c0.676,0.828,1.515,1.128,2.56,0.936
		c-0.01,0.093-0.006,0.178-0.028,0.256c-0.066,0.233-0.222,0.402-0.419,0.532C7.734,16.51,6.824,16.4,6.384,15.898
		c-0.32-0.365-0.445-0.786-0.296-1.268C6.108,14.567,6.141,14.507,6.178,14.418z"/>
	<path fill-rule="evenodd" clip-rule="evenodd" fill="#FFFFFF" d="M5.493,4.521c0.324,0.238,0.408,0.553,0.386,0.9
		C5.845,5.968,5.431,6.452,4.901,6.59C4.168,6.781,3.42,6.297,3.3,5.533C3.746,5.8,4.195,5.789,4.641,5.575
		C5.078,5.365,5.384,5.038,5.493,4.521z"/>
	<path fill-rule="evenodd" clip-rule="evenodd" fill="#FFFFFF" d="M5.252,16.737c0.516,0.965,1.309,1.345,2.395,1.139
		c-0.003,0.044,0.002,0.082-0.008,0.115c-0.144,0.462-0.581,0.786-1.065,0.793c-0.392,0.005-0.763-0.076-1.062-0.34
		c-0.391-0.346-0.59-0.777-0.5-1.311C5.038,16.979,5.108,16.843,5.252,16.737z"/>
	<path fill-rule="evenodd" clip-rule="evenodd" fill="#FFFFFF" d="M10.496,13.209c0.163-0.245,0.256-0.515,0.276-0.824
		c0.446-0.039,0.881-0.105,1.301-0.256c0.413-0.149,0.786-0.37,1.147-0.675c0.013,0.234-0.013,0.424-0.069,0.61
		c-0.134,0.436-0.413,0.752-0.805,0.976C11.813,13.344,11.056,13.413,10.496,13.209z"/>
	<path fill-rule="evenodd" clip-rule="evenodd" fill="#FFFFFF" d="M9.731,14.775c0.077-0.112,0.155-0.226,0.241-0.349
		c0.819,0.535,1.646,0.516,2.477,0.042c0.121,0.528-0.129,0.872-0.408,1.073c-0.561,0.402-1.468,0.337-1.97-0.138
		C9.89,15.232,9.773,15.027,9.731,14.775z"/>
	<path fill-rule="evenodd" clip-rule="evenodd" fill="#FFFFFF" d="M9.682,16.713c0.327,0.354,0.718,0.567,1.196,0.604
		c0.46,0.034,0.894-0.051,1.28-0.328c0.011,0.008,0.022,0.013,0.032,0.021c-0.015,0.104-0.021,0.21-0.045,0.312
		c-0.179,0.756-0.752,1.011-1.436,0.929c-0.189-0.022-0.372-0.076-0.538-0.175c-0.349-0.203-0.521-0.514-0.545-0.909
		C9.617,17.019,9.603,16.867,9.682,16.713z"/>
	<path fill-rule="evenodd" clip-rule="evenodd" fill="#FFFFFF" d="M13.712,10.528c0.634-0.125,1.169-0.354,1.436-0.964
		c0.469,0.173,0.67,0.649,0.499,1.124c-0.21,0.582-0.932,0.806-1.387,0.637c-0.265-0.099-0.45-0.281-0.521-0.559
		C13.721,10.695,13.722,10.62,13.712,10.528z"/>
	<path fill-rule="evenodd" clip-rule="evenodd" fill="#FFFFFF" d="M13.731,10.291c-0.013-0.176-0.032-0.33-0.031-0.484
		c0-0.05,0.043-0.104,0.077-0.149c0.168-0.224,0.294-0.465,0.329-0.721c0.188-0.146,0.36-0.28,0.536-0.417
		c0.287,0.187,0.374,0.608,0.274,0.885c-0.166,0.464-0.518,0.716-0.974,0.846C13.882,10.268,13.82,10.274,13.731,10.291z"/>
	<path fill-rule="evenodd" clip-rule="evenodd" fill="#FFFFFF" d="M15.888,11.556c0.033,0.065,0.057,0.136,0.101,0.192
		c0.139,0.183,0.285,0.362,0.43,0.541c0.041,0.049,0.088,0.092,0.13,0.14c0.056,0.065,0.089,0.137,0.034,0.221
		c-0.053,0.077-0.156,0.126-0.242,0.086c-0.102-0.049-0.194-0.12-0.286-0.188c-0.086-0.064-0.164-0.144-0.254-0.204
		c-0.104-0.07-0.211-0.13-0.278-0.248c-0.034-0.06-0.128-0.099-0.2-0.114c-0.077-0.015-0.134-0.055-0.2-0.084
		c-0.13-0.059-0.162-0.167-0.189-0.285c0.234-0.134,0.465-0.269,0.698-0.403c0.141,0.098,0.298,0.2,0.449,0.314
		c0.222,0.169,0.405,0.37,0.476,0.658c-0.093-0.04-0.154-0.118-0.22-0.189c-0.069-0.076-0.138-0.154-0.207-0.234
		c-0.065-0.077-0.129-0.156-0.194-0.233C15.919,11.536,15.904,11.546,15.888,11.556z"/>
	<path fill-rule="evenodd" clip-rule="evenodd" fill="#FFFFFF" d="M14.373,6.892c0.462,0.412,0.368,1.289-0.192,1.546
		c-0.015-0.306-0.081-0.593-0.262-0.828C14.074,7.364,14.224,7.128,14.373,6.892z"/>
	<path fill-rule="evenodd" clip-rule="evenodd" fill="#FFFFFF" d="M14.041,6.754c-0.034-0.449-0.151-0.837-0.491-1.115
		c-0.01-0.104-0.021-0.201-0.03-0.296C14.088,5.438,14.405,6.263,14.041,6.754z"/>
	<path fill-rule="evenodd" clip-rule="evenodd" fill="#FFFFFF" d="M15.455,12.939c-0.127-0.156-0.114-0.254,0.042-0.356
		c0.16-0.105,0.235-0.144,0.347,0.087C15.718,12.757,15.59,12.846,15.455,12.939z"/>
	<path fill-rule="evenodd" clip-rule="evenodd" fill="#FFFFFF" d="M15.465,12.408c-0.099,0.069-0.177,0.126-0.265,0.189
		c-0.081-0.112-0.074-0.225-0.036-0.333c0.016-0.047,0.069-0.116,0.102-0.114c0.053,0.003,0.115,0.047,0.15,0.092
		C15.447,12.283,15.449,12.349,15.465,12.408z"/>
	<path fill-rule="evenodd" clip-rule="evenodd" fill="#FFFFFF" d="M14.941,12.338c-0.098-0.096-0.096-0.19-0.064-0.282
		c0.016-0.048,0.056-0.093,0.119-0.063c0.054,0.026,0.048,0.067,0.028,0.117C14.996,12.177,14.974,12.247,14.941,12.338z"/>
	<path fill-rule="evenodd" clip-rule="evenodd" d="M11.219,2.869c-0.008,0.159-0.037,0.311-0.141,0.438
		c-0.145,0.177-0.301,0.196-0.466,0.007c-0.229-0.262-0.25-0.665-0.04-0.963c0.121-0.17,0.266-0.178,0.427-0.042
		C11.174,2.457,11.209,2.658,11.219,2.869z M11.06,3.122c0.095-0.238,0.058-0.437-0.035-0.629c-0.042-0.086-0.1-0.157-0.209-0.153
		c-0.112,0.003-0.185,0.071-0.215,0.169c-0.031,0.101-0.037,0.208-0.055,0.313c0.011,0.002,0.023,0.006,0.035,0.009
		c0.028-0.048,0.052-0.099,0.085-0.143c0.093-0.122,0.21-0.121,0.295,0.005c0.028,0.042,0.046,0.093,0.057,0.143
		C11.036,2.918,11.044,3.004,11.06,3.122z"/>
	<path fill-rule="evenodd" clip-rule="evenodd" d="M10.249,2.924C10.222,3,10.191,3.161,10.116,3.299
		C9.989,3.534,9.729,3.542,9.565,3.33C9.364,3.071,9.39,2.587,9.618,2.355c0.128-0.13,0.253-0.138,0.396-0.027
		C10.184,2.458,10.246,2.635,10.249,2.924z M10.1,3.067c0.1-0.227,0.037-0.426-0.085-0.608c-0.075-0.114-0.21-0.123-0.316-0.038
		c-0.16,0.128-0.221,0.471-0.121,0.644c0.028-0.091,0.045-0.196,0.091-0.285c0.087-0.16,0.247-0.16,0.335,0
		C10.05,2.864,10.065,2.963,10.1,3.067z"/>
	<path fill-rule="evenodd" clip-rule="evenodd" d="M11.03,3.801c0.02,0.053,0.037,0.098,0.063,0.165
		c-0.177-0.029-0.275,0.063-0.366,0.172c-0.037,0.044-0.08,0.084-0.124,0.12c-0.101,0.081-0.212,0.09-0.321,0.022
		c-0.073-0.046-0.137-0.104-0.204-0.159c-0.158-0.131-0.31-0.149-0.5-0.05c-0.031-0.138,0.085-0.2,0.143-0.318
		C9.757,3.888,9.845,3.877,9.93,3.861c0.301-0.056,0.603-0.091,0.909-0.034C10.892,3.836,10.951,3.813,11.03,3.801z M10.098,3.953
		c-0.002,0.013-0.005,0.027-0.007,0.041c0.08,0.063,0.157,0.131,0.241,0.189c0.07,0.048,0.151,0.064,0.221,0
		c0.076-0.072,0.145-0.152,0.233-0.245C10.532,3.892,10.315,3.927,10.098,3.953z"/>
	<path fill-rule="evenodd" clip-rule="evenodd" d="M3.286,3.104C3.536,3.028,3.669,3.094,3.676,3.3
		C3.545,3.235,3.415,3.17,3.286,3.104z"/>
	<path fill-rule="evenodd" clip-rule="evenodd" d="M5.407,19.376c0-0.052,0-0.106,0-0.168c0.259-0.024,0.505-0.018,0.757,0.093
		c-0.018,0.069-0.035,0.133-0.053,0.203C5.874,19.46,5.645,19.419,5.407,19.376z"/>
	<path fill-rule="evenodd" clip-rule="evenodd" d="M5.301,19.859c0-0.067,0-0.128,0-0.219c0.245,0.042,0.478,0.084,0.73,0.127
		c-0.023,0.075-0.039,0.129-0.057,0.185C5.746,19.922,5.526,19.891,5.301,19.859z"/>
	<path fill-rule="evenodd" clip-rule="evenodd" fill="#FFFFFF" d="M11.06,3.122c-0.016-0.118-0.024-0.204-0.042-0.287
		c-0.011-0.049-0.029-0.101-0.057-0.143c-0.085-0.126-0.202-0.127-0.295-0.005c-0.033,0.044-0.057,0.095-0.085,0.143
		c-0.011-0.002-0.023-0.006-0.035-0.009c0.018-0.104,0.024-0.212,0.055-0.313c0.03-0.098,0.103-0.166,0.215-0.169
		c0.109-0.003,0.167,0.067,0.209,0.153C11.118,2.686,11.155,2.884,11.06,3.122z"/>
	<path fill-rule="evenodd" clip-rule="evenodd" fill="#FFFFFF" d="M10.1,3.067c-0.034-0.104-0.05-0.204-0.096-0.287
		c-0.088-0.16-0.248-0.16-0.335,0C9.623,2.869,9.606,2.974,9.578,3.065C9.477,2.893,9.539,2.549,9.698,2.421
		c0.105-0.084,0.241-0.076,0.316,0.038C10.137,2.642,10.2,2.84,10.1,3.067z"/>
	<path fill-rule="evenodd" clip-rule="evenodd" fill="#FFFFFF" d="M10.098,3.953c0.217-0.025,0.434-0.061,0.688-0.016
		c-0.088,0.093-0.157,0.173-0.233,0.245c-0.07,0.065-0.15,0.049-0.221,0c-0.084-0.058-0.161-0.126-0.241-0.189
		C10.093,3.979,10.096,3.966,10.098,3.953z"/>
</g>
<g>
	<path fill-rule="evenodd" clip-rule="evenodd" fill="#FFFFFF" d="M20.043,15.412c0.087-1.189,0.175-2.361,0.262-3.533
		c-0.006-0.003-0.011-0.004-0.015-0.007c-0.082,0.221-0.164,0.441-0.244,0.661c-0.33,0.906-0.659,1.812-0.989,2.717
		c-0.064,0.177-0.064,0.179-0.243,0.179c-0.636,0-1.271,0-1.907,0c-0.05,0-0.101-0.009-0.178-0.015
		c0.625-1.715,1.243-3.409,1.863-5.112c0.063-0.002,0.12-0.008,0.177-0.008c0.89,0,1.779,0.008,2.67-0.004
		c0.411-0.005,0.638,0.255,0.688,0.608c0.042,0.306,0,0.61-0.021,0.914c-0.025,0.374-0.061,0.746-0.061,1.135
		c0.034-0.049,0.067-0.098,0.1-0.147c0.521-0.784,1.042-1.568,1.558-2.356c0.071-0.108,0.144-0.155,0.278-0.153
		c1.04,0.006,2.079,0.003,3.12,0.003c0.057,0,0.113,0,0.199,0c-0.023,0.079-0.036,0.138-0.056,0.193
		c-0.591,1.59-1.184,3.18-1.774,4.77c-0.063,0.168-0.063,0.171-0.231,0.172c-0.641,0-1.283,0-1.924,0
		c-0.045,0-0.09-0.008-0.165-0.015c0.413-1.148,0.846-2.275,1.236-3.421c-0.033,0.043-0.066,0.087-0.096,0.132
		c-0.709,1.048-1.419,2.095-2.123,3.146c-0.075,0.114-0.156,0.163-0.295,0.16c-0.543-0.007-1.086-0.003-1.629-0.004
		C20.182,15.428,20.12,15.418,20.043,15.412z"/>
	<path fill-rule="evenodd" clip-rule="evenodd" fill="#FFFFFF" d="M63.784,11.944c-0.163,0.449-0.325,0.898-0.487,1.348
		c-0.24,0.661-0.479,1.323-0.72,1.985c-0.055,0.146-0.057,0.149-0.211,0.15c-0.606,0.002-1.214,0.001-1.819,0
		c-0.04,0-0.079-0.009-0.147-0.018c0.635-1.707,1.264-3.402,1.896-5.107c0.062-0.002,0.118-0.009,0.174-0.009
		c0.885,0,1.769-0.001,2.651,0c0.359,0,0.646,0.237,0.702,0.592c0.023,0.134,0.017,0.274,0.013,0.412
		c-0.01,0.276-0.028,0.554-0.041,0.83c-0.016,0.352-0.027,0.704-0.044,1.055c-0.008,0.147-0.022,0.294-0.005,0.446
		c0.047-0.123,0.094-0.244,0.14-0.368c0.348-0.935,0.696-1.87,1.044-2.806c0.059-0.159,0.06-0.16,0.219-0.161
		c0.595-0.001,1.19,0,1.785,0c0.039,0,0.08,0.005,0.142,0.008c-0.025,0.082-0.047,0.151-0.071,0.219
		c-0.485,1.309-0.972,2.618-1.46,3.926c-0.102,0.276-0.203,0.552-0.307,0.827c-0.056,0.15-0.057,0.154-0.207,0.154
		c-1.063,0-2.127,0-3.19-0.001c-0.049,0-0.099-0.011-0.162-0.019c0.043-1.161,0.087-2.308,0.13-3.454
		C63.801,11.951,63.793,11.947,63.784,11.944z"/>
	<path fill-rule="evenodd" clip-rule="evenodd" fill="#FFFFFF" d="M40.745,12.096c0.068,0.006,0.114,0.014,0.158,0.014
		c0.313,0.001,0.625,0.001,0.937,0c0.146,0,0.148-0.001,0.197-0.139c0.18-0.5,0.357-1,0.539-1.5
		c0.065-0.184,0.035-0.177,0.237-0.177c0.682-0.001,1.364,0,2.046,0c0.052,0,0.101,0.005,0.171,0.008
		c-0.02,0.061-0.029,0.109-0.048,0.155c-0.595,1.602-1.188,3.203-1.782,4.804c-0.063,0.166-0.064,0.168-0.233,0.168
		c-0.665,0-1.33,0-1.995,0c-0.056,0-0.112-0.008-0.198-0.013c0.205-0.576,0.402-1.132,0.606-1.704c-0.415,0-0.8,0-1.202,0
		c-0.021,0.049-0.051,0.104-0.072,0.161c-0.178,0.464-0.353,0.928-0.529,1.392c-0.061,0.16-0.063,0.163-0.22,0.164
		c-0.676,0-1.353,0-2.029-0.001c-0.05,0-0.1-0.01-0.177-0.018c0.639-1.717,1.268-3.411,1.898-5.108c0.787,0,1.562,0,2.357,0
		c-0.089,0.314-0.218,0.601-0.325,0.895C40.975,11.488,40.863,11.778,40.745,12.096z"/>
	<path fill-rule="evenodd" clip-rule="evenodd" fill="#FFFFFF" d="M51.562,10.302c-0.168,0.464-0.325,0.902-0.487,1.353
		c-0.941,0-1.876,0-2.823,0c-0.064,0.17-0.125,0.328-0.194,0.515c0.09,0.004,0.156,0.009,0.223,0.009
		c0.74,0.001,1.479,0,2.219,0.001c0.069,0,0.137,0.006,0.22,0.01c-0.013,0.06-0.018,0.104-0.032,0.146
		c-0.117,0.339-0.237,0.676-0.356,1.013c-0.051,0.145-0.053,0.146-0.212,0.146c-0.767,0.001-1.536,0.001-2.305,0.001
		c-0.069,0-0.138,0-0.221,0c-0.063,0.166-0.123,0.324-0.194,0.512c0.957,0,1.89,0,2.852,0c-0.024,0.08-0.038,0.133-0.056,0.186
		c-0.121,0.35-0.242,0.698-0.365,1.046c-0.066,0.19-0.066,0.191-0.268,0.191c-1.276,0-2.555,0-3.832,0c-0.335,0-0.67,0-1.006,0
		c-0.062,0-0.124-0.007-0.213-0.011c0.021-0.078,0.034-0.137,0.056-0.192c0.59-1.591,1.181-3.182,1.773-4.772
		c0.059-0.158,0.059-0.16,0.218-0.16c1.613,0,3.226,0,4.838,0C51.44,10.294,51.485,10.298,51.562,10.302z"/>
	<path fill-rule="evenodd" clip-rule="evenodd" fill="#FFFFFF" d="M37.903,10.365c-0.258,0.611-0.506,1.198-0.755,1.787
		c-0.027-0.013-0.041-0.014-0.044-0.021c-0.167-0.313-0.458-0.408-0.781-0.433c-0.498-0.039-0.977,0.042-1.436,0.244
		c-0.374,0.164-0.661,0.42-0.849,0.782c-0.078,0.149-0.132,0.312-0.112,0.482c0.026,0.219,0.139,0.391,0.322,0.513
		c0.196,0.13,0.411,0.207,0.647,0.222c0.4,0.024,0.795-0.02,1.188-0.087c0.169-0.03,0.339-0.049,0.533-0.077
		c-0.02,0.068-0.031,0.116-0.049,0.162c-0.159,0.414-0.322,0.827-0.477,1.244c-0.037,0.099-0.087,0.144-0.192,0.164
		c-0.471,0.089-0.945,0.158-1.425,0.164c-0.34,0.004-0.682,0.021-1.02-0.006c-0.624-0.048-1.219-0.205-1.73-0.59
		c-0.449-0.34-0.646-0.784-0.602-1.356c0.074-0.944,0.538-1.654,1.264-2.215c0.655-0.508,1.406-0.808,2.213-0.978
		c0.722-0.152,1.451-0.203,2.188-0.17C37.152,10.211,37.517,10.263,37.903,10.365z"/>
	<path fill-rule="evenodd" clip-rule="evenodd" fill="#FFFFFF" d="M50.95,15.412c0.088-0.247,0.165-0.464,0.242-0.679
		c0.519-1.42,1.036-2.841,1.555-4.26c0.066-0.179,0.065-0.179,0.257-0.179c0.681,0,1.363,0,2.045,0c0.058,0,0.113,0,0.202,0
		c-0.404,1.145-0.823,2.257-1.229,3.404c0.808,0,1.59,0,2.391,0c-0.016,0.066-0.02,0.111-0.036,0.151
		c-0.173,0.477-0.35,0.954-0.527,1.43c-0.054,0.148-0.057,0.15-0.209,0.15c-1.502,0-3.004,0-4.506,0
		C51.085,15.429,51.034,15.419,50.95,15.412z"/>
	<path fill-rule="evenodd" clip-rule="evenodd" fill="#FFFFFF" d="M56.533,15.418c0.631-1.728,1.248-3.421,1.866-5.116
		c0.836,0,1.654,0,2.499,0c-0.021,0.069-0.039,0.127-0.059,0.183c-0.571,1.542-1.142,3.084-1.717,4.624
		c-0.139,0.368-0.038,0.318-0.457,0.32c-0.63,0.002-1.26,0-1.89,0C56.708,15.429,56.64,15.423,56.533,15.418z"/>
	<path fill-rule="evenodd" clip-rule="evenodd" fill="#FFFFFF" d="M26.836,15.412c0.627-1.721,1.246-3.415,1.864-5.111
		c0.836,0,1.656,0,2.495,0c-0.021,0.069-0.032,0.129-0.053,0.186c-0.49,1.32-0.981,2.639-1.472,3.959
		c-0.104,0.282-0.209,0.563-0.314,0.844c-0.053,0.135-0.053,0.138-0.201,0.139c-0.718,0-1.434,0-2.15,0
		C26.961,15.428,26.916,15.419,26.836,15.412z"/>
</g>
</svg>
