<?xml version="1.0" encoding="utf-8"?>
<!-- Generator: Adobe Illustrator 16.0.0, SVG Export Plug-In . SVG Version: 6.00 Build 0)  -->
<!DOCTYPE svg PUBLIC "-//W3C//DTD SVG 1.1//EN" "http://www.w3.org/Graphics/SVG/1.1/DTD/svg11.dtd">
<svg version="1.1" id="Layer_1" xmlns="http://www.w3.org/2000/svg" xmlns:xlink="http://www.w3.org/1999/xlink" x="0px" y="0px"
	 width="31px" height="31px" viewBox="0 0 31 31" enable-background="new 0 0 31 31" xml:space="preserve">
<g>
	<path fill="#FFFFFF" d="M18.901,13.605c0.173,0.33,0.351,0.64,0.532,0.931c0.937,1.496,1.97,2.49,2.831,3.131
		c1.071,0.799,1.874,1.054,1.874,1.054s0,1.138-0.744,2.589c-0.746,1.452-0.623,4.607-0.623,4.607h0.564
		c0,0-0.102-3.155,0.527-4.607c0.63-1.451,0.63-2.589,0.63-2.589s-6.099-2.275-6.177-14.753h-1.49c0.002,0.19,0.01,0.37,0.014,0.555
		c0.021,0.83,0.073,1.614,0.154,2.354C17.306,9.732,18.027,11.931,18.901,13.605"/>
</g>
<path fill="#FFFFFF" d="M23.953,3.967c0.023,12.477,1.882,14.754,1.882,14.754s0,1.137-0.191,2.588
	c-0.193,1.452-0.161,4.607-0.161,4.607h0.939V3.967"/>
<path fill="#FFFFFF" d="M25.143,21.31c0.314-1.451,0.314-2.589,0.314-2.589s-3.049-2.276-3.088-14.753h-1.775
	c0.058,12.477,4.441,14.753,4.441,14.753s0,1.138-0.453,2.589c-0.451,1.451-0.377,4.606-0.377,4.606h0.675
	C24.88,25.916,24.828,22.761,25.143,21.31"/>
<path fill="#FFFFFF" d="M23.953,3.967c0.023,12.477,1.882,14.754,1.882,14.754s0,1.137-0.191,2.588
	c-0.193,1.452-0.161,4.607-0.161,4.607h0.939V3.967"/>
<path fill="#FFFFFF" d="M24.454,25.916h-1.683c0,0-0.123-3.155,0.623-4.606c0.744-1.452,0.744-2.589,0.744-2.589
	s-0.803-0.256-1.874-1.055v7.102h-5.526V14.535h2.695c-0.182-0.291-0.359-0.601-0.532-0.931h-2.163V6.876h0.255
	c-0.081-0.74-0.132-1.523-0.153-2.354h-1.846c-0.021,0.83-0.072,1.613-0.153,2.354h0.256v6.729h-2.163
	c-0.173,0.33-0.351,0.64-0.533,0.931h2.696v10.232H9.571v-7.101c-1.071,0.798-1.874,1.054-1.874,1.054s0,1.137,0.745,2.589
	c0.745,1.451,0.624,4.606,0.624,4.606H6.424v1.806h18.987v-1.806"/>
<path fill="#FFFFFF" d="M7.342,18.721c0,0,0,1.138,0.63,2.589c0.628,1.452,0.527,4.606,0.527,4.606h0.566
	c0,0,0.122-3.154-0.623-4.606c-0.745-1.451-0.745-2.589-0.745-2.589s0.802-0.255,1.873-1.053c0.861-0.641,1.895-1.635,2.831-3.133
	c0.183-0.29,0.361-0.6,0.533-0.93c0.874-1.675,1.595-3.873,1.907-6.729c0.081-0.739,0.132-1.523,0.153-2.353
	C15,4.338,15.008,4.158,15.01,3.968h-1.491C13.44,16.444,7.342,18.721,7.342,18.721"/>
<g>
	<rect x="5.414" y="3.967" fill="#FFFFFF" width="0" height="21.949"/>
</g>
<path fill="#FFFFFF" d="M6.194,21.31c-0.191-1.451-0.191-2.589-0.191-2.589S7.86,16.444,7.884,3.968H5.415v21.948h0.94
	C6.355,25.916,6.385,22.761,6.194,21.31"/>
<path fill="#FFFFFF" d="M6.802,18.721c0,0,4.384-2.276,4.44-14.753H9.466C9.427,16.444,6.379,18.721,6.379,18.721
	s0,1.138,0.314,2.589c0.315,1.452,0.264,4.606,0.264,4.606h0.675c0,0,0.075-3.154-0.378-4.606
	C6.802,19.858,6.802,18.721,6.802,18.721"/>
</svg>
