<?xml version="1.0" encoding="utf-8"?>
<!-- Generator: Adobe Illustrator 16.0.0, SVG Export Plug-In . SVG Version: 6.00 Build 0)  -->
<!DOCTYPE svg PUBLIC "-//W3C//DTD SVG 1.1//EN" "http://www.w3.org/Graphics/SVG/1.1/DTD/svg11.dtd">
<svg version="1.1" id="Layer_1" xmlns="http://www.w3.org/2000/svg" xmlns:xlink="http://www.w3.org/1999/xlink" x="0px" y="0px"
	 width="31px" height="31px" viewBox="0 0 31 31" enable-background="new 0 0 31 31" xml:space="preserve">
<path fill-rule="evenodd" clip-rule="evenodd" fill="#FFFFFF" d="M22.152,29.796h-4.568c0,0,1.418-0.314,1.677-0.793
	c0.257-0.479,1.062-5.045-0.707-6.482c-1.769-1.436-2.209-3.174-2.204-6.264l3.518-0.018l3.519,0.018
	c0.006,3.09-0.435,4.829-2.203,6.264c-1.769,1.438-0.964,6.004-0.706,6.482C20.733,29.481,22.152,29.796,22.152,29.796"/>
<g>
	<polyline fill-rule="evenodd" clip-rule="evenodd" fill="#FFFFFF" points="15.378,9.212 19.867,15.788 26.629,4.042 19.867,12.45 	
		"/>
	<path fill-rule="evenodd" clip-rule="evenodd" fill="#FFFFFF" d="M15.258,29.794c0,0,0.374,0.184,0.374-3.719V15.189
		c0-4.089-2.617-3.084-2.617-6.351V1.582H9.902v7.257c0,3.267-2.617,2.262-2.617,6.351v10.886c0,3.902,0.375,3.719,0.375,3.719
		H15.258"/>
</g>
</svg>
