<?xml version="1.0" encoding="utf-8"?>
<!-- Generator: Adobe Illustrator 16.0.0, SVG Export Plug-In . SVG Version: 6.00 Build 0)  -->
<!DOCTYPE svg PUBLIC "-//W3C//DTD SVG 1.1//EN" "http://www.w3.org/Graphics/SVG/1.1/DTD/svg11.dtd">
<svg version="1.1" id="Layer_1" xmlns="http://www.w3.org/2000/svg" xmlns:xlink="http://www.w3.org/1999/xlink" x="0px" y="0px"
	 width="14px" height="14px" viewBox="0 0 14 14" enable-background="new 0 0 14 14" xml:space="preserve">
<g>
	<path fill-rule="evenodd" clip-rule="evenodd" fill="#FFFFFF" d="M9.134,10.715c0.092,0.793-0.017,1.525-0.609,2.098
		c-0.405,0.391-0.906,0.545-1.472,0.547c-1.334,0.002-1.912-0.711-2.094-2.654c-0.745,0.477-1.515,0.799-2.384,0.402
		c-0.471-0.215-0.811-0.576-1.026-1.041C1.277,9.48,1.226,8.879,1.533,8.285C1.825,7.723,2.316,7.379,2.91,7.094
		C2.181,6.69,1.512,6.284,1.36,5.423c-0.092-0.517,0-1.01,0.267-1.465c0.345-0.592,0.848-0.974,1.536-1.061
		c0.668-0.084,1.23,0.222,1.828,0.585C4.928,2.597,5.049,1.82,5.742,1.254c0.387-0.315,0.846-0.451,1.332-0.443
		c0.675,0.011,1.268,0.23,1.677,0.811c0.385,0.548,0.431,1.177,0.414,1.86c0.696-0.468,1.396-0.776,2.211-0.499
		c0.533,0.181,0.919,0.545,1.186,1.034c0.623,1.139,0.241,2.06-1.296,3.082c0.736,0.412,1.448,0.842,1.546,1.78
		c0.057,0.543-0.073,1.047-0.386,1.498C11.7,11.422,10.771,11.52,9.134,10.715z"/>
</g>
</svg>
