<?xml version="1.0" encoding="utf-8"?>
<!-- Generator: Adobe Illustrator 16.0.0, SVG Export Plug-In . SVG Version: 6.00 Build 0)  -->
<!DOCTYPE svg PUBLIC "-//W3C//DTD SVG 1.1//EN" "http://www.w3.org/Graphics/SVG/1.1/DTD/svg11.dtd">
<svg version="1.1" id="Layer_1" xmlns="http://www.w3.org/2000/svg" xmlns:xlink="http://www.w3.org/1999/xlink" x="0px" y="0px"
	 width="31px" height="31px" viewBox="0 0 31 31" enable-background="new 0 0 31 31" xml:space="preserve">
<g>
	<path fill-rule="evenodd" clip-rule="evenodd" fill="#FFFFFF" d="M28.536,15.589c0-0.983-0.712-1.784-1.627-1.901
		c-0.548-1.222-1.61-2.304-3.044-3.151C21.83,9.328,19.029,8.58,15.95,8.58c-3.082,0-5.882,0.748-7.919,1.956
		c-1.432,0.848-2.496,1.93-3.043,3.151c-0.915,0.117-1.625,0.918-1.625,1.901s0.71,1.786,1.625,1.903
		c0.548,1.222,1.612,2.301,3.043,3.15c2.037,1.208,4.837,1.956,7.919,1.956c3.08,0,5.88-0.748,7.917-1.956
		c1.432-0.848,2.494-1.929,3.042-3.15C27.824,17.376,28.536,16.573,28.536,15.589 M23.212,19.536
		c-1.848,1.096-4.415,1.773-7.262,1.773c-2.849,0-5.417-0.678-7.265-1.773c-1.116-0.66-1.954-1.472-2.419-2.362
		c0.482-0.349,0.8-0.928,0.8-1.585c0-0.655-0.318-1.233-0.8-1.583c0.441-0.849,1.229-1.62,2.265-2.264
		c0.565,0.151,1.444,0.255,2.621-0.001c2.186-0.476,4.18-1.425,4.18-1.425s1.139,1.616,4.085,2.186
		c1.98,0.384,3.725,0.016,4.656-0.268c0.689,0.532,1.225,1.13,1.559,1.773c-0.482,0.348-0.799,0.926-0.799,1.581
		c0,0.657,0.316,1.235,0.799,1.583C25.166,18.063,24.328,18.876,23.212,19.536"/>
</g>
<path fill-rule="evenodd" clip-rule="evenodd" fill="#FFFFFF" d="M20.01,13.817c0.48,0,0.871,0.39,0.871,0.871
	c0,0.479-0.391,0.87-0.871,0.87s-0.87-0.391-0.87-0.87C19.14,14.207,19.529,13.817,20.01,13.817"/>
<path fill-rule="evenodd" clip-rule="evenodd" fill="#FFFFFF" d="M11.888,13.817c0.48,0,0.87,0.39,0.87,0.871
	c0,0.479-0.389,0.87-0.87,0.87c-0.48,0-0.869-0.391-0.869-0.87C11.019,14.207,11.408,13.817,11.888,13.817"/>
<path fill-rule="evenodd" clip-rule="evenodd" fill="#FFFFFF" d="M19.345,18.583c0,0.866-1.521,1.566-3.395,1.566
	c-1.876,0-3.397-0.7-3.397-1.566H19.345"/>
</svg>
