<?xml version="1.0" encoding="utf-8"?>
<!-- Generator: Adobe Illustrator 16.0.0, SVG Export Plug-In . SVG Version: 6.00 Build 0)  -->
<!DOCTYPE svg PUBLIC "-//W3C//DTD SVG 1.1//EN" "http://www.w3.org/Graphics/SVG/1.1/DTD/svg11.dtd">
<svg version="1.1" id="Layer_1" xmlns="http://www.w3.org/2000/svg" xmlns:xlink="http://www.w3.org/1999/xlink" x="0px" y="0px"
	 width="31px" height="31px" viewBox="0 0 31 31" enable-background="new 0 0 31 31" xml:space="preserve">
<g>
	<path fill-rule="evenodd" clip-rule="evenodd" fill="#FFFFFF" d="M20.438,21.723c-1.064-0.86-2.143-1.636-2.143-2.958v-2.632
		h-1.053V15.48l1.604-1.604l-0.157-0.157c0.773-0.746,2.277-1.332,3.717-1.332c0.48,0,0.945,0.064,1.365,0.212
		c0.409,0.142,0.782,0.363,1.086,0.677c0.523,0.542,0.859,1.378,0.859,2.594c0,1.218-0.695,2.459-1.814,3.554
		C22.981,20.325,21.779,21.121,20.438,21.723 M16.307,29.697h3.625c0,0,2.513-1.286,2.571-4.561
		c0.021-1.241-0.578-2.079-1.331-2.785c1.284-0.62,2.439-1.411,3.348-2.299c1.282-1.256,2.079-2.715,2.079-4.184
		s-0.432-2.509-1.11-3.209c-0.404-0.417-0.893-0.709-1.427-0.895c-0.523-0.182-1.087-0.264-1.656-0.264
		c-1.66,0-3.418,0.7-4.337,1.588l-0.003,0.006l-0.158-0.158l-0.666,0.667V9.058h2.397l1.812-0.7h-3.508l0.924-1.601h-5.122
		l0.924,1.601h-3.507l1.812,0.7h2.397v5.27l-1.607-1.609l-0.579,0.579l2.187,2.188v0.648h-1.053v2.632
		c0,1.531-1.447,2.33-2.645,3.376c-0.745-0.343-1.435-0.815-2.039-1.435c-2.587-2.643-3.261-5.506-3.149-8.033
		c0.106-2.367,0.9-4.459,1.472-5.799c0.354,0.012,0.816-0.119,1-0.826c0.317-1.208,1.297-4.287,1.297-4.287L9.674,1.483
		c0,0-1.772,2.702-2.512,3.711C6.729,5.787,6.924,6.231,7.159,6.498C6.562,7.896,5.718,10.1,5.605,12.635
		c-0.122,2.735,0.607,5.835,3.4,8.689c0.603,0.616,1.278,1.103,2,1.474c-0.536,0.615-0.915,1.349-0.896,2.339
		c0.058,3.274,2.572,4.561,2.572,4.561H16.307z"/>
</g>
</svg>
