<?xml version="1.0" encoding="utf-8"?>
<!-- Generator: Adobe Illustrator 16.0.0, SVG Export Plug-In . SVG Version: 6.00 Build 0)  -->
<!DOCTYPE svg PUBLIC "-//W3C//DTD SVG 1.1//EN" "http://www.w3.org/Graphics/SVG/1.1/DTD/svg11.dtd">
<svg version="1.1" id="Layer_1" xmlns="http://www.w3.org/2000/svg" xmlns:xlink="http://www.w3.org/1999/xlink" x="0px" y="0px"
	 width="31px" height="31px" viewBox="0 0 31 31" enable-background="new 0 0 31 31" xml:space="preserve">
<g>
	<path fill-rule="evenodd" clip-rule="evenodd" fill="#FFFFFF" d="M9.496,21.711c0.78-0.242,1.512-0.314,2.145-0.242l0.001-14.439
		l12.366-3.275v17.182c0,1.815-1.958,3.894-4.373,4.641c-2.414,0.746-4.373-0.119-4.373-1.935c0-1.816,1.959-3.894,4.373-4.642
		c0.779-0.241,1.512-0.313,2.146-0.241V6.692L13.87,8.773v14.873c0,1.815-1.958,3.894-4.374,4.641
		c-2.415,0.747-4.374-0.119-4.374-1.936C5.123,24.536,7.081,22.459,9.496,21.711"/>
</g>
</svg>
