<?xml version="1.0" encoding="utf-8"?>
<!-- Generator: Adobe Illustrator 16.0.0, SVG Export Plug-In . SVG Version: 6.00 Build 0)  -->
<!DOCTYPE svg PUBLIC "-//W3C//DTD SVG 1.1//EN" "http://www.w3.org/Graphics/SVG/1.1/DTD/svg11.dtd">
<svg version="1.1" id="Layer_1" xmlns="http://www.w3.org/2000/svg" xmlns:xlink="http://www.w3.org/1999/xlink" x="0px" y="0px"
	 width="31px" height="31px" viewBox="0 0 31 31" enable-background="new 0 0 31 31" xml:space="preserve">
<g>
	<path fill-rule="evenodd" clip-rule="evenodd" fill="#FFFFFF" d="M9.803,7.717c1.2-3.202,4.28-5.488,7.902-5.488
		c4.664,0,8.445,3.782,8.445,8.445c0,0.646-0.079,1.273-0.217,1.88c0.3,0.959,0.462,1.978,0.462,3.036
		c0,0.125-0.006,0.25-0.01,0.374c0.941-1.543,1.483-3.353,1.483-5.29c0-5.613-4.551-10.163-10.164-10.163
		c-5.487,0-9.957,4.35-10.153,9.789C8.151,9.318,8.916,8.444,9.803,7.717"/>
</g>
<path fill-rule="evenodd" clip-rule="evenodd" fill="#FFFFFF" d="M8.33,12.632c1.199-3.203,4.28-5.487,7.901-5.487
	c4.664,0,8.445,3.78,8.445,8.444c0,0.647-0.08,1.274-0.218,1.879c0.3,0.959,0.462,1.979,0.462,3.037c0,0.125-0.006,0.25-0.01,0.375
	c0.941-1.541,1.484-3.354,1.484-5.292c0-5.613-4.551-10.164-10.164-10.164c-5.487,0-9.956,4.349-10.153,9.788
	C6.678,14.231,7.442,13.358,8.33,12.632"/>
<path fill-rule="evenodd" clip-rule="evenodd" fill="#FFFFFF" d="M14.756,10.341c5.614,0,10.163,4.55,10.163,10.165
	c0,5.613-4.549,10.162-10.163,10.162c-5.613,0-10.164-4.549-10.164-10.162C4.592,14.891,9.143,10.341,14.756,10.341 M14.756,12.061
	c-4.664,0-8.445,3.78-8.445,8.443c0,4.664,3.781,8.445,8.445,8.445c4.663,0,8.444-3.781,8.444-8.445
	C23.2,15.841,19.419,12.061,14.756,12.061"/>
<path fill="#FFFFFF" d="M10.862,22.387v0.482c0,0.736,0.112,1.381,0.333,1.938c0.221,0.553,0.551,1.006,0.992,1.354
	s0.99,0.58,1.65,0.697v1.514h1.547v-1.445c0.71-0.061,1.309-0.229,1.792-0.514c0.485-0.279,0.852-0.662,1.102-1.15
	c0.246-0.488,0.373-1.066,0.373-1.738c0-0.496-0.05-0.918-0.146-1.264c-0.098-0.348-0.238-0.648-0.422-0.9
	c-0.184-0.254-0.404-0.484-0.664-0.693c-0.261-0.207-0.556-0.418-0.883-0.635l-2.408-1.598c-0.167-0.107-0.309-0.225-0.427-0.348
	c-0.117-0.123-0.206-0.271-0.27-0.441c-0.063-0.172-0.095-0.379-0.095-0.621c0.004-0.23,0.064-0.421,0.178-0.579
	c0.115-0.155,0.268-0.272,0.454-0.353c0.188-0.078,0.397-0.118,0.624-0.118c0.31-0.002,0.576,0.069,0.796,0.212
	c0.222,0.145,0.387,0.37,0.505,0.682c0.118,0.314,0.177,0.72,0.177,1.222v0.137h2.253V17.85c-0.003-1.123-0.251-1.991-0.749-2.611
	c-0.496-0.622-1.225-0.992-2.191-1.104v-1.497h-1.547v1.497c-0.571,0.085-1.069,0.266-1.497,0.541
	c-0.427,0.272-0.759,0.631-0.996,1.072c-0.239,0.44-0.359,0.956-0.362,1.55c0,0.668,0.155,1.27,0.463,1.799
	c0.31,0.531,0.775,0.994,1.393,1.4l2.098,1.373c0.293,0.188,0.533,0.373,0.725,0.555c0.189,0.182,0.333,0.381,0.424,0.588
	c0.095,0.211,0.141,0.449,0.141,0.715c0,0.262-0.055,0.488-0.163,0.688c-0.106,0.199-0.264,0.354-0.471,0.465
	c-0.209,0.111-0.461,0.168-0.76,0.172c-0.226,0.002-0.44-0.029-0.645-0.098c-0.206-0.066-0.389-0.182-0.549-0.344
	c-0.161-0.162-0.291-0.385-0.382-0.668c-0.094-0.283-0.139-0.641-0.142-1.074v-0.482H10.862"/>
</svg>
