<?xml version="1.0" encoding="utf-8"?>
<!-- Generator: Adobe Illustrator 16.0.0, SVG Export Plug-In . SVG Version: 6.00 Build 0)  -->
<!DOCTYPE svg PUBLIC "-//W3C//DTD SVG 1.1//EN" "http://www.w3.org/Graphics/SVG/1.1/DTD/svg11.dtd">
<svg version="1.1" id="Layer_1" xmlns="http://www.w3.org/2000/svg" xmlns:xlink="http://www.w3.org/1999/xlink" x="0px" y="0px"
	 width="34.02px" height="36.85px" viewBox="0 0 34.02 36.85" enable-background="new 0 0 34.02 36.85" xml:space="preserve">
<g>
	<path fill-rule="evenodd" clip-rule="evenodd" fill="#FFFFFF" d="M17.861,18.588c-0.178,0.358-0.328,0.709-0.516,1.039
		c-0.795,1.39-1.96,2.373-3.4,3.042c-0.94,0.437-1.93,0.704-2.959,0.813c-0.462,0.046-0.927,0.093-1.39,0.091
		c-1.457-0.006-2.868-0.247-4.164-0.953c-1.179-0.641-2.073-1.545-2.521-2.832c-0.371-1.07-0.416-2.155,0.008-3.223
		c0.388-0.974,1.068-1.66,2.103-1.921c1.687-0.426,3.419,0.645,3.658,2.482c0.11,0.847-0.055,1.629-0.591,2.308
		c-0.46,0.582-1.074,0.899-1.811,0.979c-0.885,0.097-1.66-0.155-2.338-0.724c-0.028-0.022-0.054-0.044-0.084-0.064
		c-0.008-0.006-0.02-0.005-0.066-0.014c0.037,0.192,0.063,0.374,0.109,0.553c0.33,1.261,1.16,2.065,2.344,2.536
		c0.865,0.345,1.772,0.455,2.697,0.425c0.304-0.01,0.608-0.042,0.908-0.095c0.668-0.123,1.141-0.52,1.473-1.102
		c0.341-0.596,0.535-1.239,0.666-1.905c0.154-0.768,0.238-1.544,0.256-2.327c0.012-0.646,0.03-1.293,0.012-1.939
		c-0.024-1.046-0.091-2.091-0.406-3.101c-0.093-0.301-0.211-0.597-0.34-0.886c-0.403-0.906-1.13-1.438-2.068-1.659
		c-1.431-0.336-2.688,0.03-3.748,1.051c-0.489,0.473-0.873,1.03-1.216,1.614c-0.048,0.08-0.096,0.162-0.145,0.246
		c-0.091,0-0.177,0-0.277,0c0.003-0.048,0.003-0.087,0.014-0.124c0.305-1.225,0.631-2.444,0.907-3.676
		c0.228-1.019,0.404-2.05,0.585-3.079c0.208-1.179,0.394-2.363,0.59-3.544c0.067-0.405,0.131-0.811,0.199-1.24
		c0.18,0.033,0.35,0.062,0.52,0.096c1.26,0.247,2.532,0.374,3.815,0.392c0.666,0.009,1.33,0.02,1.994,0.026
		c1.282,0.011,2.543-0.146,3.783-0.473c0.063-0.017,0.125-0.03,0.194-0.045c0.067,0.045,0.135,0.091,0.224,0.151
		c-0.07,0.271-0.131,0.545-0.214,0.812c-0.509,1.633-1.588,2.728-3.177,3.332c-0.772,0.295-1.578,0.449-2.398,0.538
		c-0.857,0.093-1.714,0.098-2.572,0.06C7.89,6.221,7.259,6.148,6.627,6.094c-0.198-0.018-0.395-0.036-0.61-0.056
		C5.928,6.401,5.829,6.745,5.756,7.094c-0.313,1.482-0.597,2.97-1.021,4.427c-0.006,0.02-0.001,0.042-0.001,0.086
		c0.097-0.104,0.183-0.193,0.262-0.286c0.602-0.708,1.358-1.182,2.224-1.504c1.211-0.45,2.46-0.668,3.75-0.592
		c2.048,0.123,3.853,0.843,5.352,2.27c0.102,0.097,0.206,0.193,0.316,0.295c0.004-0.04,0.012-0.088,0.013-0.136
		c0.048-1.492,0.233-2.963,0.706-4.386c0.688-2.076,1.883-3.79,3.679-5.059c0.951-0.673,2.012-1.091,3.177-1.206
		c1.098-0.107,2.143,0.106,3.134,0.574c1.854,0.872,3.216,2.238,4.096,4.087c0.621,1.299,1.003,2.668,1.207,4.09
		c0.137,0.95,0.199,1.906,0.161,2.865c-0.093,2.408-0.642,4.696-1.84,6.805c-0.683,1.199-1.544,2.246-2.676,3.056
		c-0.796,0.567-1.67,0.962-2.643,1.1c-1.024,0.144-2.026,0.021-3.01-0.291c-1.404-0.444-2.511-1.306-3.411-2.452
		c-0.508-0.646-0.938-1.338-1.286-2.08C17.921,18.703,17.894,18.652,17.861,18.588z M27.159,12.732c0.01,0,0.02,0,0.029,0
		c-0.015-1.076-0.028-2.152-0.048-3.229c-0.009-0.546-0.022-1.093-0.051-1.639c-0.049-0.897-0.096-1.795-0.176-2.691
		c-0.05-0.59-0.138-1.179-0.246-1.76c-0.106-0.58-0.343-1.111-0.753-1.548c-0.683-0.726-1.839-0.911-2.663-0.063
		c-0.408,0.42-0.678,0.92-0.803,1.485c-0.094,0.417-0.173,0.843-0.209,1.267c-0.075,0.896-0.139,1.793-0.169,2.691
		c-0.03,0.934-0.029,1.869-0.021,2.803c0.015,1.623,0.043,3.246,0.069,4.867c0.009,0.505,0.023,1.011,0.05,1.516
		c0.049,0.88,0.096,1.761,0.17,2.639c0.06,0.702,0.152,1.4,0.248,2.099c0.057,0.424,0.219,0.814,0.43,1.186
		c0.676,1.186,2.175,1.121,2.929,0.388c0.392-0.383,0.601-0.863,0.729-1.383c0.214-0.858,0.292-1.739,0.347-2.617
		c0.064-1.062,0.106-2.125,0.132-3.188C27.176,14.615,27.159,13.673,27.159,12.732z"/>
	<path fill-rule="evenodd" clip-rule="evenodd" fill="#FFFFFF" d="M8.819,27.878c0.206,0.046,0.378,0.079,0.546,0.119
		c0.506,0.12,0.975,0.313,1.343,0.696c0.852,0.889,0.716,2.483-0.546,3.078c-0.394,0.186-0.814,0.27-1.245,0.283
		c-0.675,0.022-1.352,0.031-2.027,0.035c-1.071,0.006-2.141,0.001-3.21,0.001c-0.07,0-0.138,0-0.217,0c0-0.078,0-0.133,0-0.212
		c0.166,0,0.323,0.004,0.479-0.001c0.093-0.004,0.191-0.011,0.277-0.037c0.23-0.071,0.344-0.232,0.35-0.472c0-0.042,0-0.084,0-0.125
		c0-2.069,0-4.139,0-6.209c0-0.06,0.002-0.118-0.003-0.177c-0.012-0.165-0.078-0.249-0.239-0.281
		c-0.127-0.024-0.256-0.032-0.386-0.038c-0.128-0.006-0.257-0.002-0.396-0.002c-0.009-0.071-0.017-0.127-0.026-0.201
		c0.062-0.006,0.112-0.013,0.162-0.013c1.441,0.001,2.881-0.004,4.322,0.004c0.637,0.004,1.249,0.135,1.804,0.467
		c0.401,0.238,0.697,0.559,0.806,1.021c0.154,0.654-0.116,1.3-0.716,1.639c-0.273,0.153-0.582,0.245-0.876,0.363
		C8.969,27.838,8.912,27.852,8.819,27.878z M6.88,27.986c0,1.186,0,2.327,0,3.467c0,0.019,0.002,0.035,0.004,0.054
		c0.042,0.281,0.175,0.399,0.461,0.404c0.157,0.002,0.319-0.003,0.475,0c0.315,0.006,0.539-0.136,0.638-0.429
		c0.071-0.203,0.129-0.419,0.141-0.632c0.02-0.452,0.016-0.904-0.003-1.356c-0.013-0.333-0.057-0.667-0.197-0.978
		c-0.119-0.261-0.314-0.439-0.591-0.479C7.51,27.994,7.202,28.001,6.88,27.986z M6.882,27.782c0.338,0,0.662,0.013,0.983-0.007
		c0.095-0.008,0.204-0.089,0.272-0.167c0.071-0.079,0.118-0.189,0.145-0.296c0.153-0.583,0.132-1.175,0.055-1.766
		C8.31,25.327,8.245,25.11,8.178,24.9c-0.064-0.202-0.216-0.331-0.428-0.342c-0.285-0.016-0.572-0.004-0.868-0.004
		C6.882,25.627,6.882,26.693,6.882,27.782z"/>
	<path fill-rule="evenodd" clip-rule="evenodd" fill="#FFFFFF" d="M14.122,24.509c0,1.1,0,2.179,0,3.267
		c0.249,0.041,0.482,0.01,0.689-0.108c0.604-0.339,1.007-0.819,1.055-1.54c0.005-0.059,0.008-0.116,0.012-0.176
		c0.002-0.006,0.005-0.01,0.012-0.021c0.01-0.005,0.026-0.015,0.041-0.017c0.029-0.001,0.059,0.004,0.103,0.008
		c0,1.375,0,2.749,0,4.14c-0.043,0.006-0.09,0.012-0.146,0.018c-0.007-0.056-0.013-0.095-0.014-0.136
		c-0.023-0.781-0.405-1.343-1.061-1.738c-0.206-0.123-0.428-0.188-0.687-0.146c-0.004,0.052-0.014,0.103-0.014,0.152
		c0,1.1,0,2.2,0,3.299c0,0.247,0.063,0.34,0.305,0.374c0.911,0.124,1.682-0.098,2.174-0.829c0.324-0.479,0.595-0.983,0.806-1.522
		c0.103-0.268,0.146-0.543,0.163-0.825c0.001-0.064,0.011-0.128,0.019-0.201c0.056,0.002,0.099,0.005,0.152,0.007
		c0,1.191,0,2.37,0,3.565c-2.366,0-4.728,0-7.102,0c-0.005-0.047-0.007-0.096-0.01-0.143c0.029-0.01,0.043-0.02,0.06-0.021
		c0.217-0.012,0.436-0.012,0.65-0.036c0.337-0.038,0.488-0.202,0.52-0.539c0.004-0.053,0.002-0.106,0.002-0.158
		c0-2.047,0-4.094,0-6.141c0-0.33-0.088-0.444-0.412-0.505c-0.163-0.028-0.328-0.029-0.49-0.037
		c-0.105-0.006-0.21-0.002-0.323-0.002c0-0.076,0-0.132,0-0.196c2.232,0,4.453,0,6.687,0c0,0.981,0,1.961,0,2.952
		c-0.042,0-0.083,0-0.151,0c0.033-1.004-0.417-1.757-1.216-2.314C15.403,24.559,14.788,24.45,14.122,24.509z"/>
	<path fill-rule="evenodd" clip-rule="evenodd" fill="#FFFFFF" d="M18.268,32.08c-0.036,0-0.073,0-0.123,0c0-1.165,0-2.322,0-3.49
		c0.038-0.006,0.074-0.012,0.12-0.018c0.014,0.046,0.033,0.084,0.038,0.123c0.045,0.375,0.186,0.715,0.369,1.038
		c0.328,0.586,0.66,1.168,1.127,1.658c0.357,0.373,0.767,0.666,1.302,0.708c0.196,0.015,0.399,0.004,0.596-0.022
		c0.177-0.023,0.329-0.114,0.456-0.247c0.494-0.52,0.558-1.329,0.135-1.836c-0.168-0.202-0.378-0.354-0.627-0.443
		c-0.604-0.215-1.206-0.425-1.813-0.633c-0.499-0.173-0.937-0.439-1.266-0.859c-0.664-0.851-0.583-2.035,0.185-2.833
		c0.709-0.735,1.586-1.033,2.585-0.962c0.311,0.023,0.615,0.146,0.924,0.22c0.211,0.052,0.42,0.118,0.634,0.146
		c0.383,0.048,0.605,0.007,0.761-0.406c0.038-0.004,0.084-0.008,0.14-0.012c0,1,0,1.991,0,2.995
		c-0.051-0.003-0.094-0.005-0.137-0.008c-0.047-0.224-0.077-0.44-0.14-0.646c-0.226-0.744-0.614-1.382-1.271-1.828
		c-0.284-0.192-0.602-0.291-0.941-0.313c-0.551-0.035-0.941,0.232-1.129,0.768c-0.164,0.471-0.031,0.949,0.351,1.272
		c0.196,0.165,0.419,0.274,0.668,0.343c0.492,0.137,0.984,0.274,1.473,0.422c0.185,0.057,0.365,0.131,0.538,0.216
		c0.703,0.354,1.146,0.907,1.248,1.701c0.101,0.788-0.048,1.517-0.611,2.108c-0.506,0.53-1.127,0.867-1.849,0.989
		c-0.563,0.096-1.124,0.086-1.671-0.1c-0.356-0.119-0.718-0.229-1.074-0.341c-0.09-0.028-0.18-0.059-0.271-0.076
		C18.615,31.642,18.431,31.735,18.268,32.08z"/>
	<path fill-rule="evenodd" clip-rule="evenodd" fill="#FFFFFF" d="M29.183,24.552c0,0.078,0,0.142,0,0.206c0,2.176,0,4.353,0,6.528
		c0,0.405,0.182,0.588,0.591,0.598c0.151,0.004,0.303,0.001,0.464,0.001c0,0.086,0,0.149,0,0.224c-1.54,0-3.073,0-4.617,0
		c0-0.069,0-0.13,0-0.211c0.057-0.005,0.112-0.011,0.17-0.013c0.135-0.002,0.271,0.004,0.405-0.007
		c0.317-0.029,0.514-0.219,0.56-0.534c0.01-0.074,0.015-0.151,0.015-0.228c0.002-2.118,0.002-4.234,0.002-6.352
		c0-0.069,0-0.139,0-0.204c-0.173-0.048-0.312-0.012-0.445,0.059c-0.651,0.34-1.14,0.843-1.478,1.492
		c-0.067,0.129-0.126,0.266-0.188,0.398c-0.131,0.275-0.197,0.564-0.18,0.871c0.005,0.068,0.001,0.139,0.001,0.216
		c-0.05,0.004-0.083,0.006-0.127,0.01c0-1.091,0-2.176,0-3.272c2.432,0,4.856,0,7.292,0c0,1.094,0,2.178,0,3.265
		c-0.036,0-0.063,0-0.099,0c-0.029-0.22-0.04-0.438-0.091-0.646c-0.187-0.772-0.596-1.414-1.197-1.929
		c-0.165-0.141-0.348-0.26-0.529-0.38C29.573,24.539,29.395,24.517,29.183,24.552z"/>
	<path fill-rule="evenodd" clip-rule="evenodd" fill="#FFFFFF" d="M15.677,33.011c0.191-0.059,1.268-0.054,1.395,0.002
		c-0.093,0.036-0.181,0.068-0.271,0.102c-0.004,0.084-0.013,0.147-0.013,0.212c0,0.588,0,1.176,0,1.765
		c0.001,0.27,0.066,0.363,0.335,0.402c0.135,0.021,0.283,0.01,0.417-0.021c0.207-0.049,0.297-0.186,0.298-0.398
		c0.002-0.442,0-0.883,0-1.324c0-0.477-0.069-0.58-0.542-0.743c0.062-0.018,0.096-0.035,0.127-0.035
		c0.827-0.001,1.656-0.01,2.484,0.007c0.174,0.003,0.362,0.064,0.516,0.15c0.406,0.232,0.396,0.736-0.007,0.972
		c-0.084,0.049-0.179,0.085-0.304,0.144c0.074,0.028,0.122,0.048,0.172,0.065c0.313,0.121,0.424,0.276,0.426,0.611
		c0.001,0.162,0.001,0.324,0.001,0.491c0.155-0.03,0.192-0.085,0.211-0.273c0.014-0.118,0.019-0.237,0.03-0.374
		c0.106,0.197,0.063,0.569-0.068,0.723c-0.147,0.173-0.433,0.233-0.684,0.146c-0.258-0.091-0.37-0.247-0.374-0.533
		c-0.001-0.146,0.006-0.294,0.009-0.44c0.003-0.324-0.078-0.395-0.402-0.354c-0.068,0.207-0.045,1.105,0.037,1.225
		c0.057,0.011,0.119,0.021,0.181,0.033c0.002,0.013,0.006,0.025,0.009,0.038c-0.034,0.017-0.068,0.045-0.102,0.045
		c-0.394,0.004-0.788,0.004-1.182,0c-0.033,0-0.066-0.023-0.099-0.07c0.084-0.025,0.168-0.05,0.271-0.082
		c0.012-0.075,0.03-0.147,0.03-0.222c0.001-0.664,0.001-1.329,0-1.993c0-0.062-0.013-0.125-0.02-0.181
		c-0.419-0.139-0.619,0.022-0.637,0.422c-0.021,0.463-0.015,0.928-0.004,1.392c0.011,0.437-0.115,0.646-0.651,0.767
		c-0.307,0.068-0.619,0.023-0.91-0.12c-0.251-0.125-0.394-0.304-0.385-0.609c0.016-0.516-0.001-1.034-0.004-1.552
		C15.97,33.102,15.97,33.102,15.677,33.011z M19.416,33.075c0,0.38,0,0.752,0,1.122c0.042,0.004,0.064,0.007,0.088,0.007
		c0.292,0.006,0.383-0.075,0.396-0.362c0.007-0.13,0.005-0.259,0-0.387C19.885,33.113,19.772,33.023,19.416,33.075z"/>
	<path fill-rule="evenodd" clip-rule="evenodd" fill="#FFFFFF" d="M22.123,32.946c0.21,0,0.409,0,0.618,0
		c0.294,0.869,0.587,1.732,0.873,2.577c0.389,0.078,0.522-0.004,0.594-0.343c0.021-0.103,0.032-0.209,0.033-0.315
		c0.002-0.476,0.001-0.953,0.001-1.43c-0.001-0.264-0.017-0.284-0.269-0.383c-0.018-0.008-0.032-0.027-0.05-0.044
		c0.121-0.057,0.798-0.076,1.192-0.034c0.293,0.567,0.591,1.145,0.89,1.722c0.009-0.002,0.018-0.002,0.026-0.003
		c0.002-0.048,0.009-0.096,0.009-0.144c0.001-0.294,0.003-0.588-0.001-0.882c-0.004-0.11-0.018-0.223-0.042-0.331
		c-0.036-0.165-0.134-0.27-0.313-0.281c-0.035-0.001-0.067-0.021-0.119-0.037c0.146-0.077,0.818-0.078,0.966-0.005
		c-0.037,0.018-0.063,0.038-0.093,0.043c-0.17,0.024-0.253,0.136-0.287,0.291c-0.02,0.085-0.025,0.175-0.025,0.263
		c-0.002,0.604-0.001,1.211-0.001,1.816c0,0.068,0,0.138,0,0.218c-0.226,0-0.43,0-0.654,0c-0.37-0.709-0.745-1.429-1.121-2.148
		c-0.012,0.004-0.021,0.008-0.034,0.01c0,0.252,0,0.501,0,0.752c0,0.224-0.005,0.448,0.001,0.672
		c0.002,0.098,0.009,0.199,0.033,0.296c0.043,0.183,0.131,0.329,0.352,0.328c0.021,0,0.045,0.012,0.064,0.021
		c0.01,0.004,0.013,0.017,0.019,0.027c-0.109,0.062-2.267,0.072-2.44-0.019c0.092-0.019,0.188-0.035,0.31-0.058
		c-0.006-0.355-0.183-0.658-0.26-0.989c-0.232,0-0.447,0-0.695,0c-0.047,0.188-0.112,0.377-0.134,0.571
		c-0.028,0.272,0.088,0.397,0.355,0.444c0.027,0.005,0.052,0.021,0.109,0.043c-0.144,0.09-0.27,0.046-0.389,0.053
		c-0.124,0.008-0.249,0.008-0.371,0c-0.12-0.007-0.25,0.039-0.366-0.037c0.012-0.025,0.015-0.042,0.021-0.044
		c0.269-0.054,0.406-0.251,0.489-0.484c0.164-0.451,0.312-0.909,0.463-1.366C21.96,33.462,22.041,33.204,22.123,32.946z
		 M22.074,33.519c-0.015-0.001-0.028-0.002-0.044-0.002c-0.099,0.307-0.198,0.612-0.302,0.929c0.225,0,0.421,0,0.634,0
		C22.265,34.129,22.169,33.823,22.074,33.519z"/>
	<path fill-rule="evenodd" clip-rule="evenodd" fill="#FFFFFF" d="M13.909,34.537c-0.047,0.174-0.1,0.336-0.133,0.503
		c-0.059,0.285,0.064,0.457,0.351,0.513c0.03,0.006,0.057,0.027,0.083,0.066c-0.879,0.038-1.755,0.041-2.633,0.034
		c-0.001-0.022-0.004-0.044-0.008-0.066c0.06-0.01,0.118-0.025,0.178-0.032c0.151-0.018,0.208-0.072,0.211-0.225
		c0.002-0.729,0.001-1.459,0-2.188c0-0.027-0.009-0.055-0.016-0.116c-0.482,0.204-0.703,0.574-0.794,1.052c0-0.362,0-0.726,0-1.103
		c0.832,0,1.657,0,2.495,0c0,0.369,0,0.736,0,1.104c-0.008,0.003-0.016,0.005-0.026,0.009c-0.009-0.052-0.022-0.104-0.031-0.155
		c-0.065-0.365-0.271-0.633-0.572-0.832c-0.051-0.032-0.118-0.04-0.204-0.068c0,0.089,0,0.151,0,0.215c0,0.663,0,1.328,0,1.993
		c0,0.3,0.16,0.412,0.44,0.284c0.105-0.047,0.207-0.144,0.265-0.242c0.101-0.171,0.181-0.357,0.243-0.546
		c0.183-0.552,0.354-1.105,0.532-1.66c0.012-0.038,0.028-0.076,0.047-0.125c0.195,0,0.392,0,0.606,0
		c0.019,0.045,0.042,0.099,0.06,0.151c0.246,0.729,0.491,1.458,0.737,2.187c0.029,0.086,0.07,0.169,0.101,0.239
		c0.105,0.022,0.186,0.038,0.298,0.061c-0.176,0.087-1.471,0.08-1.614-0.009c0.119-0.017,0.206-0.028,0.322-0.044
		c0.004-0.059,0.022-0.121,0.007-0.175c-0.08-0.275-0.167-0.549-0.254-0.823C14.371,34.537,14.156,34.537,13.909,34.537z
		 M14.276,33.502c-0.009,0-0.021-0.002-0.03-0.002c-0.103,0.313-0.204,0.625-0.31,0.946c0.221,0,0.42,0,0.634,0
		C14.471,34.123,14.374,33.813,14.276,33.502z"/>
	<path fill-rule="evenodd" clip-rule="evenodd" fill="#FFFFFF" d="M6.383,34.785c0.042,0.221,0.061,0.438-0.055,0.642
		c-0.12,0.215-0.427,0.304-0.706,0.215c-0.265-0.087-0.387-0.251-0.397-0.559c-0.003-0.133,0.013-0.269,0.019-0.404
		c0.017-0.326-0.085-0.417-0.42-0.371c-0.067,0.262-0.036,1.106,0.049,1.227c0.058,0.009,0.121,0.019,0.181,0.026
		c0.006,0.013,0.011,0.025,0.015,0.037c-0.033,0.018-0.065,0.05-0.098,0.05c-0.395,0.004-0.789,0.004-1.183,0
		c-0.032,0-0.065-0.025-0.098-0.038c0.014-0.027,0.016-0.045,0.022-0.047c0.269-0.064,0.269-0.064,0.269-0.351
		c0-0.63,0-1.258,0-1.888c0-0.069,0-0.139,0-0.224c-0.105-0.027-0.198-0.05-0.291-0.075c0.001-0.013,0.001-0.026,0.002-0.039
		c0.031-0.008,0.059-0.025,0.088-0.025c0.506,0.002,1.011-0.005,1.516,0.016c0.176,0.008,0.363,0.063,0.517,0.146
		c0.421,0.226,0.419,0.734,0.008,0.979c-0.084,0.05-0.179,0.087-0.304,0.146c0.083,0.03,0.14,0.052,0.196,0.072
		c0.251,0.093,0.396,0.264,0.396,0.542c0.001,0.122,0,0.246,0.006,0.369c0.001,0.063,0.018,0.123,0.032,0.222
		C6.401,35.26,6.308,34.996,6.383,34.785z M4.807,34.196c0.048,0.004,0.087,0.008,0.127,0.008c0.247,0.002,0.34-0.063,0.362-0.305
		c0.017-0.202,0.008-0.409-0.016-0.611c-0.018-0.16-0.107-0.221-0.266-0.23c-0.067-0.003-0.137,0-0.208,0
		C4.807,33.451,4.807,33.819,4.807,34.196z"/>
	<path fill-rule="evenodd" clip-rule="evenodd" fill="#FFFFFF" d="M7.536,33.055c0,0.359,0,0.715,0,1.092
		c0.406-0.029,0.537-0.302,0.633-0.625c0,0.472,0,0.944,0,1.416c-0.01,0.007-0.022,0.013-0.031,0.019
		c-0.047-0.364-0.206-0.627-0.598-0.719c0,0.438,0,0.857,0,1.27c0.266,0.129,0.598,0.053,0.781-0.185
		c0.186-0.239,0.331-0.5,0.37-0.809c0.004-0.033,0.013-0.066,0.021-0.107c0.072,0.091,0.097,0.841,0.048,1.207
		c-0.142,0.054-2.306,0.053-2.447-0.033c0.067-0.009,0.133-0.02,0.199-0.024c0.15-0.011,0.217-0.061,0.218-0.199
		c0.002-0.741,0.001-1.48,0.001-2.205c-0.104-0.182-0.296-0.06-0.424-0.148c0.102-0.069,1.889-0.099,2.291-0.045
		c0.056,0.151,0.05,0.893-0.024,1.047c-0.022-0.388-0.174-0.672-0.487-0.854C7.921,33.053,7.741,33.015,7.536,33.055z"/>
	<path fill-rule="evenodd" clip-rule="evenodd" fill="#FFFFFF" d="M10.923,32.899c0,0.371,0,0.711,0,1.051
		c-0.014,0.002-0.026,0.005-0.039,0.008c-0.018-0.068-0.036-0.137-0.055-0.205c-0.057-0.223-0.172-0.41-0.34-0.565
		c-0.116-0.106-0.251-0.174-0.411-0.179c-0.208-0.006-0.317,0.07-0.384,0.266c-0.057,0.161-0.007,0.329,0.142,0.433
		c0.071,0.049,0.155,0.082,0.237,0.108c0.169,0.055,0.34,0.093,0.508,0.15c0.323,0.11,0.546,0.319,0.587,0.677
		c0.038,0.351-0.081,0.637-0.372,0.843c-0.313,0.221-0.655,0.275-1.022,0.181c-0.136-0.034-0.269-0.083-0.404-0.119
		c-0.078-0.021-0.16-0.027-0.275-0.046c-0.023,0.046-0.049,0.097-0.076,0.15c-0.011-0.009-0.023-0.017-0.036-0.023
		c0-0.396,0-0.793,0-1.191c0.013-0.001,0.025-0.003,0.039-0.005c0.02,0.063,0.034,0.128,0.06,0.19
		c0.124,0.294,0.283,0.569,0.508,0.799c0.141,0.143,0.31,0.225,0.521,0.213c0.166-0.01,0.274-0.089,0.337-0.239
		c0.07-0.163,0.079-0.328-0.048-0.461c-0.077-0.082-0.184-0.146-0.289-0.19c-0.189-0.079-0.388-0.134-0.581-0.204
		c-0.262-0.099-0.46-0.266-0.532-0.544c-0.082-0.311,0.021-0.572,0.251-0.779c0.288-0.255,0.624-0.34,1-0.245
		c0.091,0.022,0.181,0.053,0.273,0.073C10.74,33.094,10.757,33.087,10.923,32.899z"/>
	<path fill-rule="evenodd" clip-rule="evenodd" fill="#FFFFFF" d="M31.262,32.935c0,0.336,0,0.674,0,1.012
		c-0.011,0.002-0.022,0.004-0.034,0.008c-0.012-0.042-0.027-0.082-0.036-0.121c-0.046-0.225-0.145-0.423-0.303-0.589
		c-0.132-0.141-0.291-0.231-0.492-0.237c-0.172-0.004-0.281,0.076-0.348,0.222c-0.069,0.154-0.058,0.306,0.07,0.422
		c0.077,0.068,0.173,0.123,0.268,0.157c0.172,0.062,0.352,0.099,0.525,0.155c0.317,0.104,0.544,0.306,0.592,0.651
		c0.049,0.354-0.062,0.649-0.358,0.864c-0.312,0.224-0.653,0.282-1.021,0.191c-0.135-0.033-0.268-0.084-0.404-0.121
		c-0.078-0.021-0.158-0.029-0.235-0.043c-0.052,0.048-0.092,0.086-0.154,0.146c0-0.421,0-0.813,0-1.209
		c0.008-0.002,0.018-0.004,0.028-0.007c0.012,0.024,0.028,0.046,0.034,0.071c0.099,0.36,0.299,0.661,0.556,0.927
		c0.13,0.137,0.295,0.211,0.489,0.199c0.205-0.014,0.303-0.093,0.371-0.292c0.063-0.181,0.028-0.341-0.116-0.464
		c-0.075-0.063-0.17-0.105-0.261-0.141c-0.19-0.075-0.389-0.132-0.58-0.206c-0.384-0.148-0.582-0.46-0.526-0.837
		c0.041-0.306,0.236-0.507,0.499-0.642c0.244-0.124,0.503-0.158,0.771-0.08c0.067,0.019,0.135,0.04,0.202,0.057
		C30.964,33.072,31.132,33.125,31.262,32.935z"/>
	<path fill-rule="evenodd" clip-rule="evenodd" fill="#FFFFFF" d="M29.176,32.975c0,0.385,0,0.746,0,1.108
		c-0.013,0.004-0.024,0.006-0.038,0.009c-0.009-0.045-0.02-0.089-0.026-0.133c-0.063-0.377-0.269-0.658-0.585-0.861
		c-0.046-0.03-0.105-0.04-0.184-0.066c-0.006,0.084-0.012,0.146-0.012,0.207c-0.002,0.676-0.002,1.352-0.002,2.028
		c0.002,0.253,0.012,0.261,0.263,0.289c0.028,0.004,0.058,0.014,0.083,0.025c0.007,0.002,0.007,0.021,0.01,0.032
		c-0.121,0.061-1.447,0.063-1.59-0.027c0.055-0.011,0.11-0.024,0.167-0.031c0.152-0.017,0.222-0.08,0.222-0.237
		c0.002-0.741-0.001-1.481-0.001-2.222c0-0.011-0.006-0.022-0.01-0.034c-0.351,0.01-0.686,0.45-0.777,1.023
		c-0.058-0.093-0.076-0.831-0.024-1.11C27.499,32.975,28.328,32.975,29.176,32.975z"/>
</g>
</svg>
