<?xml version="1.0" encoding="utf-8"?>
<!-- Generator: Adobe Illustrator 16.0.0, SVG Export Plug-In . SVG Version: 6.00 Build 0)  -->
<!DOCTYPE svg PUBLIC "-//W3C//DTD SVG 1.1//EN" "http://www.w3.org/Graphics/SVG/1.1/DTD/svg11.dtd">
<svg version="1.1" id="Layer_1" xmlns="http://www.w3.org/2000/svg" xmlns:xlink="http://www.w3.org/1999/xlink" x="0px" y="0px"
	 width="31px" height="31px" viewBox="0 0 31 31" enable-background="new 0 0 31 31" xml:space="preserve">
<path fill-rule="evenodd" clip-rule="evenodd" fill="#FFFFFF" d="M8.239,9.808c1.281-3.42,4.569-5.858,8.436-5.858
	c4.979,0,9.016,4.036,9.016,9.015c0,0.691-0.085,1.362-0.231,2.009c0.319,1.022,0.492,2.11,0.492,3.24
	c0,0.135-0.006,0.268-0.011,0.401c1.006-1.646,1.585-3.58,1.585-5.649c0-5.993-4.858-10.85-10.851-10.85
	c-5.858,0-10.63,4.642-10.839,10.449C6.475,11.515,7.291,10.583,8.239,9.808"/>
<path fill-rule="evenodd" clip-rule="evenodd" fill="#FFFFFF" d="M15.101,7.361c5.993,0,10.851,4.858,10.851,10.852
	s-4.857,10.851-10.851,10.851c-5.992,0-10.851-4.857-10.851-10.851S9.108,7.361,15.101,7.361 M15.101,9.196
	c-4.98,0-9.015,4.037-9.015,9.017c0,4.979,4.035,9.015,9.015,9.015c4.979,0,9.015-4.036,9.015-9.015
	C24.115,13.233,20.079,9.196,15.101,9.196"/>
<path fill="#FFFFFF" d="M10.943,20.224v0.513c0,0.786,0.12,1.475,0.355,2.068c0.236,0.591,0.587,1.075,1.059,1.445
	c0.471,0.372,1.059,0.621,1.763,0.745v1.615h1.651v-1.542c0.758-0.064,1.399-0.245,1.915-0.547c0.518-0.3,0.908-0.71,1.176-1.229
	c0.264-0.521,0.398-1.14,0.398-1.857c0-0.529-0.054-0.979-0.158-1.349c-0.104-0.371-0.253-0.692-0.449-0.962
	c-0.195-0.269-0.431-0.518-0.709-0.74c-0.279-0.221-0.594-0.445-0.943-0.675l-2.569-1.707c-0.177-0.114-0.331-0.238-0.456-0.371
	c-0.125-0.132-0.22-0.291-0.288-0.472c-0.067-0.184-0.1-0.404-0.1-0.663c0.004-0.245,0.067-0.45,0.19-0.617
	c0.122-0.167,0.284-0.292,0.483-0.377c0.201-0.083,0.424-0.126,0.667-0.126c0.331-0.003,0.615,0.074,0.85,0.227
	c0.236,0.153,0.413,0.395,0.539,0.729c0.125,0.333,0.19,0.768,0.19,1.303v0.146h2.404v-0.403c-0.002-1.196-0.268-2.124-0.799-2.786
	c-0.529-0.665-1.309-1.06-2.34-1.18V9.814H14.12v1.597c-0.609,0.093-1.142,0.286-1.598,0.579c-0.456,0.291-0.812,0.673-1.064,1.145
	c-0.254,0.47-0.383,1.021-0.386,1.653c0,0.715,0.166,1.357,0.496,1.922c0.331,0.567,0.827,1.063,1.486,1.493l2.239,1.47
	c0.313,0.198,0.57,0.398,0.774,0.591c0.202,0.195,0.355,0.406,0.454,0.628c0.102,0.225,0.149,0.479,0.149,0.764
	c0,0.277-0.058,0.522-0.173,0.734c-0.114,0.21-0.283,0.375-0.502,0.494c-0.224,0.119-0.493,0.181-0.812,0.185
	c-0.242,0.003-0.47-0.029-0.688-0.104c-0.221-0.07-0.416-0.192-0.587-0.366c-0.171-0.172-0.31-0.41-0.407-0.713
	c-0.1-0.304-0.149-0.687-0.152-1.148v-0.513H10.943"/>
</svg>
