<?xml version="1.0" encoding="utf-8"?>
<!-- Generator: Adobe Illustrator 16.0.0, SVG Export Plug-In . SVG Version: 6.00 Build 0)  -->
<!DOCTYPE svg PUBLIC "-//W3C//DTD SVG 1.1//EN" "http://www.w3.org/Graphics/SVG/1.1/DTD/svg11.dtd">
<svg version="1.1" id="Layer_1" xmlns="http://www.w3.org/2000/svg" xmlns:xlink="http://www.w3.org/1999/xlink" x="0px" y="0px"
	 width="56.69px" height="14.17px" viewBox="0 0 56.69 14.17" enable-background="new 0 0 56.69 14.17" xml:space="preserve">
<g>
	<path fill-rule="evenodd" clip-rule="evenodd" fill="#FFFFFF" d="M30.253,1.179c1.03,0.099,1.996,0.375,2.837,1.005
		c0.873,0.654,1.375,1.553,1.672,2.58c0.061,0.21,0.103,0.426,0.158,0.666c-0.118,0.006-0.204,0.014-0.29,0.014
		c-0.946,0-1.893,0-2.84,0c-0.24,0-0.271,0.035-0.365-0.271c-0.177-0.566-0.524-0.98-1.121-1.133
		c-0.954-0.244-1.839,0.124-2.329,0.942c-0.231,0.389-0.345,0.812-0.418,1.249c-0.109,0.666-0.141,1.334-0.011,2.001
		c0.225,1.15,1.034,2.09,2.342,2.229c0.856,0.092,1.481-0.299,1.938-1c0.126-0.194,0.137-0.228,0.17-0.435
		c-0.095-0.008-0.189-0.02-0.283-0.02c-0.361-0.003-0.727,0.001-1.089-0.003c-0.214-0.002-0.228-0.015-0.228-0.226
		c-0.003-0.611-0.003-1.221-0.001-1.832c0.001-0.243,0.011-0.255,0.257-0.256c0.92-0.002,1.84-0.001,2.761-0.001
		c0.477,0,0.956-0.001,1.434,0.001c0.279,0.001,0.284,0.005,0.284,0.28c0.001,0.938,0,1.875,0,2.814c0,0.956,0,1.911,0,2.866
		c0,0.063-0.001,0.125,0,0.187c0,0.099-0.051,0.146-0.147,0.147c-0.036,0-0.07,0.002-0.106,0.002c-0.592,0-1.186,0.002-1.777,0
		c-0.264-0.002-0.271-0.011-0.275-0.267c-0.003-0.187,0.001-0.372-0.002-0.558c-0.001-0.076-0.015-0.151-0.028-0.287
		c-0.112,0.088-0.188,0.14-0.257,0.199c-0.343,0.297-0.71,0.556-1.117,0.76c-0.53,0.266-1.096,0.385-1.685,0.414
		c-0.842,0.044-1.659-0.057-2.441-0.385c-1.035-0.435-1.803-1.168-2.379-2.115c-0.461-0.762-0.811-1.568-0.925-2.464
		c-0.254-2.016,0.145-3.857,1.483-5.431c0.688-0.808,1.603-1.267,2.624-1.511c0.333-0.079,0.679-0.112,1.017-0.171
		C29.182,1.162,30.134,1.168,30.253,1.179z"/>
	<path fill-rule="evenodd" clip-rule="evenodd" fill="#FFFFFF" d="M55.809,4.349c-0.09-0.006-0.177-0.019-0.265-0.019
		c-0.902-0.001-1.805-0.001-2.707-0.001c-0.036,0-0.071,0-0.107,0.001c-0.222,0.009-0.229,0.017-0.235,0.25
		c-0.003,0.079-0.002,0.159-0.002,0.239c0,2.593,0,5.185,0,7.777c0,0.071-0.003,0.142,0,0.212c0.007,0.123-0.045,0.184-0.169,0.18
		c-0.055-0.003-0.108,0-0.16,0c-0.938,0-1.876,0-2.815,0c-0.025,0-0.052,0-0.078,0c-0.237-0.007-0.247-0.016-0.251-0.264
		c-0.003-0.08-0.001-0.159-0.001-0.238c0-2.575-0.002-5.15,0.001-7.725c0-0.515-0.044-0.43-0.44-0.431
		c-0.831-0.003-1.663-0.001-2.494-0.001c-0.071,0-0.143-0.001-0.214-0.003c-0.085-0.001-0.129-0.047-0.133-0.132
		c-0.002-0.044-0.003-0.088-0.003-0.133c0-0.814,0-1.627,0-2.442c0-0.018,0-0.035,0-0.052c0.009-0.214,0.021-0.229,0.225-0.237
		c0.079-0.003,0.159-0.001,0.239-0.001c3.079,0,6.158,0,9.237,0c0.124,0,0.248-0.004,0.373-0.006
		C55.809,2.331,55.809,3.34,55.809,4.349z"/>
	<path fill-rule="evenodd" clip-rule="evenodd" fill="#FFFFFF" d="M6.578,12.988c-1.575,0-3.149,0-4.724,0
		c-0.063,0-0.124,0.002-0.187,0c-0.192-0.01-0.206-0.019-0.207-0.222c-0.001-0.796,0.002-1.593-0.002-2.389
		c-0.001-0.138,0.056-0.233,0.145-0.327c0.695-0.742,1.391-1.484,2.085-2.228c0.991-1.059,1.982-2.118,2.97-3.179
		c0.063-0.067,0.148-0.175,0.13-0.237c-0.036-0.123-0.18-0.076-0.277-0.077C5.032,4.328,3.556,4.329,2.078,4.329
		c-0.366,0-0.368,0-0.368-0.358c-0.001-0.761,0-1.521,0-2.282c0-0.053-0.002-0.106,0.002-0.159c0.013-0.17,0.031-0.188,0.211-0.199
		c0.053-0.004,0.106-0.001,0.159-0.001c3.043,0,6.086,0,9.13,0c0.36,0,0.361,0.001,0.362,0.371c0,0.664-0.006,1.327,0.002,1.99
		c0.002,0.191-0.06,0.335-0.188,0.474c-1.537,1.662-3.07,3.328-4.605,4.993c-0.21,0.228-0.42,0.455-0.628,0.684
		c-0.058,0.064-0.146,0.137-0.078,0.226c0.039,0.052,0.132,0.073,0.205,0.087c0.077,0.014,0.158,0.004,0.238,0.004
		c1.601,0,3.202,0,4.805,0c0.051,0,0.104-0.001,0.157,0c0.229,0.006,0.236,0.008,0.236,0.244c0.002,0.77,0.002,1.539,0,2.309
		c0,0.275-0.002,0.279-0.283,0.279C9.816,12.988,8.196,12.988,6.578,12.988z"/>
	<path fill-rule="evenodd" clip-rule="evenodd" fill="#FFFFFF" d="M24.449,12.974c-0.115,0.007-0.192,0.015-0.271,0.015
		c-1.009,0-2.019,0-3.026,0c-0.288,0-0.288-0.003-0.365-0.271c-0.107-0.374-0.212-0.748-0.32-1.122
		c-0.073-0.251-0.076-0.257-0.322-0.258c-1.088-0.002-2.177-0.002-3.265,0c-0.232,0.002-0.239,0.007-0.315,0.238
		c-0.129,0.395-0.252,0.791-0.381,1.186c-0.07,0.221-0.073,0.226-0.292,0.227c-1.062,0.001-2.124,0-3.186,0
		c-0.051,0-0.102-0.011-0.172-0.019c0.032-0.101,0.058-0.185,0.088-0.265c1.375-3.667,2.75-7.334,4.129-10.999
		c0.149-0.396,0.064-0.377,0.543-0.377c0.894,0,1.787,0,2.681,0c0.333,0,0.334,0,0.447,0.32c0.673,1.881,1.344,3.763,2.014,5.645
		c0.646,1.815,1.293,3.63,1.939,5.445C24.398,12.805,24.417,12.871,24.449,12.974z M18.614,5.294
		c-0.133,0.192-1.11,3.279-1.109,3.501c0.276,0.061,1.935,0.049,2.124-0.014C19.601,8.467,18.727,5.463,18.614,5.294z"/>
	<path fill-rule="evenodd" clip-rule="evenodd" fill="#FFFFFF" d="M47.735,12.967c-0.131,0.01-0.207,0.021-0.285,0.021
		c-1.009,0-2.018,0-3.025,0c-0.269,0-0.271-0.002-0.346-0.259c-0.115-0.39-0.226-0.78-0.344-1.169
		c-0.066-0.218-0.072-0.221-0.297-0.222c-1.097-0.003-2.194-0.003-3.291,0.001c-0.22,0-0.223,0.005-0.294,0.225
		c-0.133,0.412-0.269,0.823-0.395,1.238c-0.039,0.131-0.106,0.187-0.242,0.187c-1.089-0.003-2.177-0.002-3.265-0.003
		c-0.034,0-0.067-0.013-0.134-0.025c0.045-0.125,0.084-0.24,0.125-0.352c0.975-2.6,1.951-5.197,2.926-7.796
		c0.4-1.067,0.801-2.136,1.2-3.204c0.105-0.278,0.105-0.281,0.395-0.281c0.948-0.001,1.895-0.001,2.841,0
		c0.282,0,0.284,0.003,0.377,0.266c1.087,3.046,2.174,6.093,3.26,9.139c0.229,0.641,0.459,1.281,0.688,1.922
		C47.662,12.746,47.69,12.836,47.735,12.967z M40.734,8.797c0.396,0.061,2,0.045,2.208-0.021c-0.058-0.209-0.118-0.42-0.178-0.63
		c-0.252-0.881-0.503-1.763-0.761-2.643c-0.021-0.073-0.01-0.181-0.152-0.222C41.479,6.452,41.109,7.614,40.734,8.797z"/>
</g>
</svg>
