<?xml version="1.0" encoding="utf-8"?>
<!-- Generator: Adobe Illustrator 16.0.0, SVG Export Plug-In . SVG Version: 6.00 Build 0)  -->
<!DOCTYPE svg PUBLIC "-//W3C//DTD SVG 1.1//EN" "http://www.w3.org/Graphics/SVG/1.1/DTD/svg11.dtd">
<svg version="1.1" id="Layer_1" xmlns="http://www.w3.org/2000/svg" xmlns:xlink="http://www.w3.org/1999/xlink" x="0px" y="0px"
	 width="31.18px" height="31.18px" viewBox="0 0 31.18 31.18" enable-background="new 0 0 31.18 31.18" xml:space="preserve">
<g>
	<path fill-rule="evenodd" clip-rule="evenodd" fill="#FFFFFF" d="M16.45,3.792c0-0.014,0.008-0.024,0.008-0.038
		c0-0.479-0.389-0.868-0.868-0.868c-0.48,0-0.869,0.389-0.869,0.868c0,0.014,0.007,0.023,0.008,0.037
		C6.481,4.169,1.16,9.797,1.095,9.834c0.007,0.021,0.022,0.063,0.022,0.063s9.081,0,13.647,0c0,0.623,0,1.217,0,1.813
		c0,0.588,0,1.176,0,1.763c0,0.597,0,1.196,0,1.792c0,0.588-0.004,1.175,0,1.764c0.005,0.591-0.019,1.185,0.014,1.771
		c0.568,0,1.093,0,1.648,0c0-2.975,0-5.928,0-8.91c0.781,0,1.532,0,2.283,0c0.765,0,1.527,0,2.293,0c0.753,0,1.508,0,2.263,0
		c0.762,0,1.527,0,2.293-0.001c0.753,0,1.508,0.002,2.262-0.003c0.751-0.002,1.503,0.017,2.254-0.011
		c0.005-0.023,0.011-0.07,0.011-0.07S24.698,4.173,16.45,3.792z"/>
	<path fill-rule="evenodd" clip-rule="evenodd" fill="#FFFFFF" d="M16.945,27.77c0-0.126,0-0.233,0-0.34
		c0.001-0.647,0.001-1.294,0.001-1.94c0.001-1.098,0.007-2.195-0.003-3.292c-0.003-0.208,0.066-0.321,0.253-0.4
		c0.162-0.068,0.316-0.157,0.466-0.25c0.171-0.107,0.354-0.143,0.557-0.141c1.359,0.006,2.723,0.004,4.083,0.004
		c0.094,0,0.189-0.01,0.288-0.017c0-0.557,0-1.082,0-1.63c-4.681,0-9.329,0-13.983,0c0,0.553,0,1.086,0,1.645
		c0.128,0,0.234,0,0.34,0c1.157,0,2.313,0.021,3.467-0.008c0.575-0.015,1.096,0.07,1.584,0.39c0.18,0.118,0.251,0.224,0.25,0.437
		c-0.008,1.763-0.004,3.525-0.005,5.289c0,0.087-0.011,0.172-0.016,0.251c-1.258,0.376-1.903,0.757-2.098,1.254
		c0.131,0.005,0.257,0.018,0.378,0.018c1.116,0.001,2.233,0.001,3.353,0.001c0.988-0.001,1.977-0.003,2.968-0.006
		c0.078-0.001,0.158-0.02,0.292-0.035C18.537,28.253,17.767,27.974,16.945,27.77z"/>
	<path fill-rule="evenodd" clip-rule="evenodd" fill="#FFFFFF" d="M3.966,23.804c-0.261-1.807-0.461-3.601-0.727-5.378
		c-0.466,0-0.893,0-1.334,0c0,0.078-0.006,0.136,0,0.191c0.11,0.813,0.225,1.625,0.333,2.438c0.119,0.882,0.235,1.763,0.345,2.646
		c0.038,0.307,0.096,0.627,0.059,0.932c-0.098,0.804-0.244,1.603-0.37,2.402c-0.102,0.645-0.201,1.291-0.31,1.998
		c0.438,0,0.836,0.001,1.235-0.001c0.125,0,0.159-0.084,0.174-0.193c0.079-0.551,0.158-1.102,0.242-1.653
		c0.1-0.663,0.203-1.328,0.309-2.001c1.342,0,2.669,0,4.014,0c0.198,1.284,0.392,2.556,0.587,3.839
		c0.477,0.01,0.917,0.043,1.371-0.027c-0.283-1.748-0.558-3.461-0.837-5.192C7.342,23.804,5.66,23.804,3.966,23.804z"/>
	<path fill-rule="evenodd" clip-rule="evenodd" fill="#FFFFFF" d="M27.212,23.826c-1.715,0-3.396,0-5.087,0
		c-0.278,1.738-0.554,3.45-0.833,5.189c0.471,0,0.905,0,1.373,0c0.195-1.279,0.39-2.549,0.587-3.833c1.364,0,2.683,0,4.015,0
		c0.197,1.284,0.389,2.554,0.584,3.84c0.471,0.003,0.912,0.05,1.369-0.021c-0.058-0.371-0.105-0.709-0.158-1.045
		c-0.129-0.811-0.263-1.618-0.386-2.43c-0.083-0.549-0.227-1.096-0.089-1.656c0.037-0.141,0.045-0.29,0.064-0.435
		c0.084-0.669,0.164-1.339,0.251-2.007c0.107-0.813,0.222-1.626,0.331-2.438c0.023-0.18,0.037-0.362,0.057-0.563
		c-0.464,0-0.897,0-1.346,0C27.679,20.229,27.486,22.021,27.212,23.826z"/>
</g>
</svg>
