<?xml version="1.0" encoding="utf-8"?>
<!-- Generator: Adobe Illustrator 16.0.0, SVG Export Plug-In . SVG Version: 6.00 Build 0)  -->
<!DOCTYPE svg PUBLIC "-//W3C//DTD SVG 1.1//EN" "http://www.w3.org/Graphics/SVG/1.1/DTD/svg11.dtd">
<svg version="1.1" id="Layer_1" xmlns="http://www.w3.org/2000/svg" xmlns:xlink="http://www.w3.org/1999/xlink" x="0px" y="0px"
	 width="31px" height="31px" viewBox="0 0 31 31" enable-background="new 0 0 31 31" xml:space="preserve">
<g>
	<path fill-rule="evenodd" clip-rule="evenodd" fill="#FFFFFF" d="M23.223,14.214c-0.654-2.623-2.752-3.69-3.391-4.326
		c-0.637-0.638-2.191-6.856-2.191-6.856S15.43,5.653,16.76,8.106c0.016,0.028,0.031,0.051,0.047,0.079
		c-0.906-0.986-1.927-1.619-3.008-1.619c-3.74,0-6.772,7.548-6.772,11.289c0,0.2,0.013,0.397,0.03,0.593h-0.98
		c0.374,3.573,3.172,6.418,6.719,6.877v1.47c-1.929,0.138-3.523,0.655-4.248,1.354h10.504c-0.725-0.698-2.318-1.216-4.248-1.354
		v-1.47c3.547-0.459,6.347-3.303,6.721-6.877h-0.981c0.017-0.195,0.03-0.393,0.03-0.593c0-2.271-1.118-5.941-2.834-8.479
		c1.154,1.042,2.498,1.104,3.854,3.095c1.761,2.584,3.522,11.856,3.673,14.05c0.15,2.19,1.817,1.535,1.817,1.535
		S23.879,16.836,23.223,14.214"/>
</g>
</svg>
