<?xml version="1.0" encoding="utf-8"?>
<!-- Generator: Adobe Illustrator 16.0.0, SVG Export Plug-In . SVG Version: 6.00 Build 0)  -->
<!DOCTYPE svg PUBLIC "-//W3C//DTD SVG 1.1//EN" "http://www.w3.org/Graphics/SVG/1.1/DTD/svg11.dtd">
<svg version="1.1" id="Layer_1" xmlns="http://www.w3.org/2000/svg" xmlns:xlink="http://www.w3.org/1999/xlink" x="0px" y="0px"
	 width="36.85px" height="36.85px" viewBox="0 0 36.85 36.85" enable-background="new 0 0 36.85 36.85" xml:space="preserve">
<g>
	<path fill="#6d6e71" d="M28.135,16.444c-0.94-3.773-3.958-5.308-4.877-6.222c-0.917-0.918-3.152-9.864-3.152-9.864
		s-3.181,3.771-1.267,7.3c0.022,0.04,0.044,0.073,0.068,0.114c-1.305-1.419-2.772-2.329-4.328-2.329
		c-5.381,0-9.743,10.858-9.743,16.24c0,0.289,0.02,0.572,0.043,0.854H3.47c0.538,5.139,4.563,9.233,9.666,9.894v2.112
		c-2.775,0.201-5.068,0.944-6.111,1.948h15.112c-1.044-1.002-3.336-1.747-6.112-1.948v-2.112c5.102-0.66,9.13-4.752,9.668-9.894
		h-1.41c0.023-0.28,0.042-0.565,0.042-0.854c0-3.268-1.607-8.547-4.077-12.197c1.66,1.499,3.593,1.589,5.545,4.454
		c2.533,3.717,5.067,17.055,5.283,20.21c0.217,3.151,2.615,2.209,2.615,2.209S29.08,20.214,28.135,16.444"/>
</g>
</svg>
