<?xml version="1.0" encoding="utf-8"?>
<!-- Generator: Adobe Illustrator 16.0.0, SVG Export Plug-In . SVG Version: 6.00 Build 0)  -->
<!DOCTYPE svg PUBLIC "-//W3C//DTD SVG 1.1//EN" "http://www.w3.org/Graphics/SVG/1.1/DTD/svg11.dtd">
<svg version="1.1" id="Layer_1" xmlns="http://www.w3.org/2000/svg" xmlns:xlink="http://www.w3.org/1999/xlink" x="0px" y="0px"
	 width="36.85px" height="36.85px" viewBox="0 0 36.85 36.85" enable-background="new 0 0 36.85 36.85" xml:space="preserve">
<g>
	<path fill="#B49B71" d="M23.344,15.209c0.258,0.49,0.521,0.949,0.79,1.381c1.391,2.22,2.923,3.696,4.201,4.644
		c1.589,1.186,2.78,1.567,2.78,1.567s0,1.687-1.104,3.84c-1.106,2.156-0.924,6.836-0.924,6.836h0.837c0,0-0.151-4.68,0.781-6.836
		c0.937-2.153,0.937-3.84,0.937-3.84s-9.052-3.377-9.167-21.893h-2.21c0.003,0.281,0.014,0.548,0.02,0.823
		c0.031,1.232,0.109,2.396,0.229,3.492C20.978,9.461,22.047,12.725,23.344,15.209"/>
</g>
<path fill="#B49B71" d="M30.842,0.906c0.033,18.516,2.792,21.896,2.792,21.896s0,1.687-0.284,3.84
	c-0.285,2.153-0.239,6.836-0.239,6.836h1.395V0.906"/>
<path fill="#B49B71" d="M32.607,26.641c0.467-2.153,0.467-3.84,0.467-3.84s-4.524-3.38-4.582-21.893h-2.635
	c0.086,18.513,6.591,21.893,6.591,21.893s0,1.687-0.673,3.84c-0.669,2.153-0.559,6.836-0.559,6.836h1.001
	C32.217,33.478,32.14,28.794,32.607,26.641"/>
<path fill="#B49B71" d="M30.842,0.906c0.033,18.516,2.792,21.896,2.792,21.896s0,1.687-0.284,3.84
	c-0.285,2.153-0.239,6.836-0.239,6.836h1.395V0.906"/>
<path fill="#B49B71" d="M31.585,33.478h-2.498c0,0-0.183-4.682,0.924-6.836c1.104-2.153,1.104-3.84,1.104-3.84
	s-1.191-0.381-2.78-1.566v10.539h-8.201V16.588h4c-0.27-0.432-0.532-0.891-0.79-1.381h-3.21V5.222h0.381
	c-0.12-1.097-0.198-2.259-0.228-3.492h-2.739c-0.032,1.232-0.107,2.394-0.227,3.492h0.379v9.986h-3.21
	c-0.256,0.49-0.52,0.949-0.791,1.381h4.001v15.185H9.499V21.236c-1.588,1.186-2.781,1.566-2.781,1.566s0,1.687,1.105,3.84
	c1.106,2.154,0.926,6.836,0.926,6.836H4.83v2.68h28.175v-2.68"/>
<path fill="#B49B71" d="M6.192,22.801c0,0,0,1.687,0.935,3.84c0.932,2.156,0.782,6.836,0.782,6.836h0.839
	c0,0,0.181-4.68-0.925-6.836c-1.105-2.153-1.105-3.84-1.105-3.84s1.191-0.382,2.779-1.564c1.278-0.95,2.813-2.425,4.201-4.648
	c0.272-0.43,0.536-0.89,0.791-1.379c1.297-2.485,2.367-5.748,2.83-9.986c0.121-1.095,0.196-2.259,0.228-3.491
	c0.009-0.275,0.021-0.542,0.023-0.823h-2.213C15.24,19.421,6.192,22.801,6.192,22.801"/>
<g>
	<rect x="3.331" y="0.906" fill="#B49B71" width="0" height="32.572"/>
</g>
<path fill="#B49B71" d="M4.488,26.641c-0.282-2.153-0.282-3.84-0.282-3.84s2.755-3.38,2.791-21.893H3.333v32.569h1.394
	C4.727,33.478,4.772,28.794,4.488,26.641"/>
<path fill="#B49B71" d="M5.39,22.801c0,0,6.505-3.38,6.589-21.893H9.344C9.286,19.421,4.763,22.801,4.763,22.801s0,1.687,0.465,3.84
	c0.468,2.156,0.393,6.836,0.393,6.836h1.001c0,0,0.111-4.68-0.561-6.836C5.39,24.488,5.39,22.801,5.39,22.801"/>
</svg>
