<?xml version="1.0" encoding="utf-8"?>
<!-- Generator: Adobe Illustrator 16.0.0, SVG Export Plug-In . SVG Version: 6.00 Build 0)  -->
<!DOCTYPE svg PUBLIC "-//W3C//DTD SVG 1.1//EN" "http://www.w3.org/Graphics/SVG/1.1/DTD/svg11.dtd">
<svg version="1.1" id="Layer_1" xmlns="http://www.w3.org/2000/svg" xmlns:xlink="http://www.w3.org/1999/xlink" x="0px" y="0px"
	 width="36.85px" height="36.85px" viewBox="0 0 36.85 36.85" enable-background="new 0 0 36.85 36.85" xml:space="preserve">
<g>
	<path fill="#B49B71" d="M24.454,26.203c-1.344-1.088-2.707-2.067-2.707-3.737v-3.323h-1.328V18.32l2.026-2.027l-0.198-0.198
		c0.976-0.942,2.875-1.682,4.693-1.682c0.608,0,1.193,0.082,1.724,0.267c0.519,0.179,0.989,0.459,1.372,0.855
		c0.66,0.684,1.085,1.739,1.085,3.277c0,1.536-0.877,3.105-2.291,4.487C27.668,24.436,26.149,25.444,24.454,26.203 M19.239,36.274
		h4.579c0,0,3.173-1.624,3.245-5.761c0.027-1.568-0.729-2.625-1.68-3.517c1.621-0.784,3.08-1.783,4.229-2.903
		c1.619-1.586,2.626-3.429,2.626-5.284c0-1.856-0.547-3.169-1.402-4.052c-0.511-0.527-1.127-0.896-1.802-1.131
		c-0.663-0.229-1.373-0.333-2.093-0.333c-2.097,0-4.316,0.884-5.478,2.005l-0.003,0.008l-0.2-0.2l-0.841,0.843v-5.743h3.027
		l2.288-0.884h-4.43L22.471,7.3h-6.469l1.167,2.021H12.74l2.289,0.884h3.027v6.657l-2.029-2.033l-0.731,0.732l2.761,2.762v0.819
		h-1.329v3.323c0,1.934-1.828,2.942-3.341,4.266c-0.941-0.436-1.813-1.032-2.574-1.813c-3.269-3.339-4.119-6.956-3.978-10.146
		c0.133-2.99,1.138-5.632,1.858-7.325c0.448,0.015,1.032-0.15,1.263-1.043c0.401-1.526,1.639-5.415,1.639-5.415l-0.734-0.35
		c0,0-2.238,3.413-3.172,4.687C7.14,6.077,7.387,6.637,7.683,6.974c-0.752,1.765-1.82,4.548-1.963,7.75
		c-0.154,3.455,0.766,7.369,4.293,10.974c0.762,0.777,1.615,1.393,2.526,1.862c-0.677,0.777-1.155,1.703-1.131,2.955
		c0.073,4.134,3.249,5.76,3.249,5.76h4.581V36.274z"/>
</g>
</svg>
