<?xml version="1.0" encoding="utf-8"?>
<!-- Generator: Adobe Illustrator 16.0.0, SVG Export Plug-In . SVG Version: 6.00 Build 0)  -->
<!DOCTYPE svg PUBLIC "-//W3C//DTD SVG 1.1//EN" "http://www.w3.org/Graphics/SVG/1.1/DTD/svg11.dtd">
<svg version="1.1" id="Layer_1" xmlns="http://www.w3.org/2000/svg" xmlns:xlink="http://www.w3.org/1999/xlink" x="0px" y="0px"
	 width="36.85px" height="36.85px" viewBox="0 0 36.85 36.85" enable-background="new 0 0 36.85 36.85" xml:space="preserve">
<g>
	<g>
		<path fill="#6d6e71" d="M29.178,34.684H8.032V24.006C7.995,24,7.955,23.994,7.917,23.988c-3.733-0.604-6.485-3.401-7.017-7.125
			c-0.051-0.307,0.103-2.846,0.227-3.292c0.888-3.227,3.611-5.595,6.936-6.03c0.83-0.108,1.651-0.092,2.471,0.053
			c0.608-1.958,1.815-3.509,3.597-4.619c1.446-0.903,3.066-1.314,4.796-1.209c3.527,0.211,6.435,2.563,7.472,5.886
			c0.048-0.011,0.096-0.022,0.144-0.031c0.51-0.104,1.036-0.157,1.562-0.157c3.933,0,7.419,2.901,8.116,6.75
			c0.02,0.11,0.046,0.222,0.076,0.333l0.07,0.446l-0.027,1.818l-0.064,0.306c-0.06,0.275-0.117,0.55-0.19,0.816
			c-0.895,3.299-3.568,5.624-6.908,6.069L29.178,34.684z M10.548,32.168h16.114L26.66,21.656l1.703-0.101
			c2.552-0.146,4.63-1.829,5.296-4.289c0.062-0.223,0.107-0.441,0.152-0.662l0.041-0.195v-1.263
			c-0.038-0.16-0.077-0.318-0.106-0.479c-0.483-2.672-2.907-4.685-5.641-4.685c-0.355,0-0.716,0.037-1.064,0.107
			c-0.298,0.059-0.589,0.138-0.878,0.214l-1.741,0.449L24.22,9.37c-0.418-2.832-2.655-4.925-5.44-5.093
			c-1.191-0.066-2.317,0.208-3.317,0.834c-1.547,0.964-2.449,2.345-2.756,4.22l-0.239,1.459l-1.401-0.47
			c-0.922-0.31-1.783-0.402-2.672-0.284c-2.323,0.304-4.222,1.955-4.841,4.206c-0.049,0.269-0.134,1.905-0.149,2.357
			c0.42,2.614,2.292,4.481,4.913,4.906c0.208,0.032,0.426,0.047,0.654,0.061l1.579,0.135v10.467H10.548z"/>
	</g>
</g>
</svg>
