<?xml version="1.0" encoding="utf-8"?>
<!-- Generator: Adobe Illustrator 16.0.0, SVG Export Plug-In . SVG Version: 6.00 Build 0)  -->
<!DOCTYPE svg PUBLIC "-//W3C//DTD SVG 1.1//EN" "http://www.w3.org/Graphics/SVG/1.1/DTD/svg11.dtd">
<svg version="1.1" id="Layer_1" xmlns="http://www.w3.org/2000/svg" xmlns:xlink="http://www.w3.org/1999/xlink" x="0px" y="0px"
	 width="36.85px" height="36.85px" viewBox="0 0 36.85 36.85" enable-background="new 0 0 36.85 36.85" xml:space="preserve">
<g>
	<path fill="#B49B71" d="M36.262,19.896c0-1.381-0.999-2.504-2.284-2.67c-0.769-1.715-2.259-3.234-4.272-4.423
		c-2.857-1.696-6.79-2.746-11.114-2.746c-4.327,0-8.257,1.05-11.118,2.746c-2.01,1.19-3.504,2.709-4.272,4.423
		c-1.285,0.166-2.281,1.289-2.281,2.67c0,1.382,0.997,2.509,2.281,2.673c0.769,1.714,2.264,3.231,4.272,4.422
		c2.86,1.694,6.791,2.745,11.118,2.745c4.324,0,8.254-1.051,11.115-2.745c2.012-1.189,3.502-2.71,4.271-4.422
		C35.263,22.405,36.262,21.278,36.262,19.896 M28.789,25.437c-2.596,1.538-6.199,2.488-10.197,2.488
		c-3.999,0-7.604-0.951-10.199-2.488c-1.567-0.927-2.743-2.066-3.396-3.315c0.676-0.489,1.123-1.302,1.123-2.226
		c0-0.919-0.447-1.732-1.123-2.223c0.619-1.191,1.724-2.274,3.179-3.178c0.793,0.211,2.028,0.358,3.68-0.001
		c3.069-0.669,5.868-2,5.868-2s1.603,2.268,5.737,3.068c2.778,0.539,5.228,0.022,6.535-0.375c0.967,0.746,1.721,1.586,2.189,2.488
		c-0.678,0.488-1.123,1.3-1.123,2.22c0,0.924,0.444,1.735,1.123,2.223C31.531,23.367,30.355,24.51,28.789,25.437"/>
</g>
<path fill="#B49B71" d="M24.294,17.41c0.673,0,1.222,0.547,1.222,1.222c0,0.674-0.549,1.223-1.222,1.223
	c-0.675,0-1.223-0.549-1.223-1.223C23.072,17.955,23.619,17.41,24.294,17.41"/>
<path fill="#B49B71" d="M12.891,17.41c0.673,0,1.221,0.547,1.221,1.222c0,0.674-0.547,1.223-1.221,1.223
	c-0.675,0-1.22-0.549-1.22-1.223C11.671,17.955,12.217,17.41,12.891,17.41"/>
<path fill="#B49B71" d="M23.361,24.099c0,1.217-2.137,2.197-4.768,2.197c-2.633,0-4.768-0.98-4.768-2.197H23.361"/>
</svg>
