<?xml version="1.0" encoding="utf-8"?>
<!-- Generator: Adobe Illustrator 16.0.0, SVG Export Plug-In . SVG Version: 6.00 Build 0)  -->
<!DOCTYPE svg PUBLIC "-//W3C//DTD SVG 1.1//EN" "http://www.w3.org/Graphics/SVG/1.1/DTD/svg11.dtd">
<svg version="1.1" id="Layer_1" xmlns="http://www.w3.org/2000/svg" xmlns:xlink="http://www.w3.org/1999/xlink" x="0px" y="0px"
	 width="36.85px" height="36.85px" viewBox="0 0 36.85 36.85" enable-background="new 0 0 36.85 36.85" xml:space="preserve">
<g>
	<path fill="#6d6e71" d="M11.492,26.401c1.079-0.333,2.091-0.434,2.967-0.333l0.001-19.972l17.102-4.53v23.764
		c0,2.509-2.708,5.384-6.047,6.419c-3.339,1.031-6.048-0.165-6.048-2.678s2.709-5.385,6.048-6.419
		c1.076-0.335,2.091-0.434,2.968-0.335V5.63L17.541,8.508v20.571c0,2.508-2.708,5.384-6.05,6.418
		c-3.34,1.032-6.049-0.165-6.049-2.677C5.442,30.307,8.153,27.436,11.492,26.401"/>
</g>
</svg>
