<?xml version="1.0" encoding="utf-8"?>
<!-- Generator: Adobe Illustrator 16.0.0, SVG Export Plug-In . SVG Version: 6.00 Build 0)  -->
<!DOCTYPE svg PUBLIC "-//W3C//DTD SVG 1.1//EN" "http://www.w3.org/Graphics/SVG/1.1/DTD/svg11.dtd">
<svg version="1.1" id="Layer_1" xmlns="http://www.w3.org/2000/svg" xmlns:xlink="http://www.w3.org/1999/xlink" x="0px" y="0px"
	 width="36.85px" height="36.85px" viewBox="0 0 36.85 36.85" enable-background="new 0 0 36.85 36.85" xml:space="preserve">
<path fill="#6d6e71" d="M18.373,0.529c9.89,0,17.91,8.018,17.91,17.912c0,9.892-8.019,17.909-17.91,17.909
	c-9.889,0-17.909-8.018-17.909-17.909C0.464,8.55,8.485,0.529,18.373,0.529 M18.373,3.558c-8.222,0-14.878,6.663-14.878,14.884
	c0,8.212,6.655,14.877,14.878,14.877c8.217,0,14.876-6.663,14.876-14.877C33.249,10.221,26.59,3.558,18.373,3.558"/>
<g enable-background="new    ">
	<path fill="#6d6e71" d="M5.808,22.586v-8.355h1.696l3.543,4.857h0.045v-4.857h2.014v8.355h-1.678l-3.56-4.904H7.822v4.904H5.808z"
		/>
	<path fill="#6d6e71" d="M20.085,22.586H14.36v-8.355h5.726v1.713h-3.601v1.662h3.387v1.564h-3.387v1.703h3.601V22.586z"/>
	<path fill="#6d6e71" d="M25.068,22.586h-2.004l-2.182-8.355h2.191l1.131,5.645h0.045l1.397-5.645h1.701l1.395,5.645h0.047
		l1.127-5.645h2.196l-2.185,8.355h-2.003l-1.406-5.217h-0.047L25.068,22.586z"/>
</g>
</svg>
