<?xml version="1.0" encoding="utf-8"?>
<!-- Generator: Adobe Illustrator 16.0.0, SVG Export Plug-In . SVG Version: 6.00 Build 0)  -->
<!DOCTYPE svg PUBLIC "-//W3C//DTD SVG 1.1//EN" "http://www.w3.org/Graphics/SVG/1.1/DTD/svg11.dtd">
<svg version="1.1" id="Layer_1" xmlns="http://www.w3.org/2000/svg" xmlns:xlink="http://www.w3.org/1999/xlink" x="0px" y="0px"
	 width="36.85px" height="36.85px" viewBox="0 0 36.85 36.85" enable-background="new 0 0 36.85 36.85" xml:space="preserve">
<path fill="#6d6e71" d="M29.133,36.425H8.52V0.585h20.613V36.425z M12.048,17.855c-0.82,0-1.485,0.663-1.485,1.486
	c0,0.818,0.665,1.484,1.485,1.484c0.821,0,1.485-0.666,1.485-1.484C13.533,18.52,12.869,17.855,12.048,17.855 M16.192,8.84V7.128
	c0-1.455,1.18-2.635,2.635-2.635c1.457,0,2.635,1.181,2.635,2.635V8.84H16.192 M14.369,16.214h8.915V8.839h-0.729V7.052
	c0-2.058-1.669-3.729-3.729-3.729c-2.058,0-3.728,1.669-3.728,3.729V8.84h-0.729V16.214z"/>
</svg>
