<?xml version="1.0" encoding="utf-8"?>
<!-- Generator: Adobe Illustrator 16.0.0, SVG Export Plug-In . SVG Version: 6.00 Build 0)  -->
<!DOCTYPE svg PUBLIC "-//W3C//DTD SVG 1.1//EN" "http://www.w3.org/Graphics/SVG/1.1/DTD/svg11.dtd">
<svg version="1.1" id="Layer_1" xmlns="http://www.w3.org/2000/svg" xmlns:xlink="http://www.w3.org/1999/xlink" x="0px" y="0px"
	 width="36.85px" height="36.85px" viewBox="0 0 36.85 36.85" enable-background="new 0 0 36.85 36.85" xml:space="preserve">
<g>
	<path fill="#6d6e71" d="M10.802,8.896c1.434-3.826,5.114-6.557,9.442-6.557c5.572,0,10.089,4.519,10.089,10.091
		c0,0.771-0.095,1.52-0.259,2.246c0.358,1.146,0.552,2.362,0.552,3.627c0,0.15-0.007,0.299-0.012,0.447
		c1.125-1.845,1.772-4.007,1.772-6.32c0-6.707-5.438-12.143-12.144-12.143c-6.557,0-11.897,5.197-12.131,11.696
		C8.827,10.807,9.742,9.763,10.802,8.896"/>
</g>
<path fill="#6d6e71" d="M9.042,14.769c1.432-3.828,5.113-6.557,9.439-6.557c5.573,0,10.09,4.517,10.09,10.089
	c0,0.772-0.096,1.522-0.261,2.245c0.359,1.146,0.553,2.364,0.553,3.629c0,0.149-0.007,0.299-0.012,0.448
	c1.124-1.842,1.772-4.008,1.772-6.323c0-6.707-5.438-12.144-12.144-12.144c-6.555,0-11.896,5.196-12.13,11.693
	C7.068,16.677,7.98,15.634,9.042,14.769"/>
<path fill="#6d6e71" d="M16.719,12.031c6.708,0,12.143,5.436,12.143,12.146c0,6.705-5.436,12.14-12.143,12.14
	c-6.707,0-12.144-5.435-12.144-12.14C4.575,17.468,10.013,12.031,16.719,12.031 M16.719,14.085c-5.573,0-10.09,4.516-10.09,10.087
	c0,5.572,4.518,10.091,10.09,10.091c5.572,0,10.088-4.519,10.088-10.091C26.808,18.602,22.291,14.085,16.719,14.085"/>
<path fill="#6d6e71" d="M12.066,26.422v0.575c0,0.881,0.134,1.649,0.398,2.316c0.265,0.66,0.659,1.202,1.186,1.618
	c0.527,0.416,1.183,0.692,1.972,0.832v1.809h1.849v-1.726c0.848-0.074,1.563-0.274,2.141-0.615c0.58-0.332,1.018-0.791,1.316-1.373
	c0.294-0.583,0.445-1.273,0.445-2.077c0-0.593-0.06-1.097-0.174-1.51c-0.117-0.416-0.284-0.774-0.504-1.076
	c-0.221-0.303-0.483-0.578-0.794-0.827c-0.311-0.248-0.664-0.5-1.054-0.759L15.97,21.7c-0.2-0.128-0.37-0.27-0.51-0.417
	c-0.14-0.146-0.246-0.323-0.323-0.526c-0.074-0.205-0.113-0.452-0.113-0.741c0.004-0.275,0.076-0.505,0.212-0.692
	c0.138-0.186,0.321-0.324,0.543-0.421c0.225-0.093,0.475-0.142,0.746-0.142c0.37-0.002,0.688,0.082,0.951,0.254
	c0.265,0.172,0.462,0.441,0.604,0.813c0.141,0.376,0.211,0.862,0.211,1.462v0.164h2.693v-0.451c-0.004-1.342-0.3-2.378-0.895-3.12
	c-0.593-0.743-1.465-1.185-2.618-1.318v-1.789h-1.849v1.789c-0.683,0.102-1.277,0.318-1.789,0.646
	c-0.51,0.325-0.907,0.754-1.19,1.28c-0.286,0.526-0.429,1.144-0.433,1.854c0,0.798,0.186,1.516,0.553,2.148
	c0.372,0.634,0.927,1.188,1.666,1.673l2.506,1.641c0.35,0.225,0.637,0.445,0.867,0.663c0.225,0.217,0.398,0.455,0.507,0.703
	c0.113,0.252,0.167,0.535,0.167,0.854c0,0.313-0.065,0.584-0.195,0.822c-0.126,0.237-0.315,0.423-0.562,0.556
	c-0.25,0.132-0.551,0.2-0.908,0.205c-0.271,0.002-0.526-0.034-0.771-0.118c-0.246-0.078-0.464-0.217-0.656-0.41
	c-0.192-0.193-0.348-0.46-0.456-0.798c-0.112-0.338-0.166-0.766-0.17-1.284v-0.575L12.066,26.422"/>
</svg>
