<?xml version="1.0" encoding="utf-8"?>
<!-- Generator: Adobe Illustrator 16.0.0, SVG Export Plug-In . SVG Version: 6.00 Build 0)  -->
<!DOCTYPE svg PUBLIC "-//W3C//DTD SVG 1.1//EN" "http://www.w3.org/Graphics/SVG/1.1/DTD/svg11.dtd">
<svg version="1.1" id="Layer_1" xmlns="http://www.w3.org/2000/svg" xmlns:xlink="http://www.w3.org/1999/xlink" x="0px" y="0px"
	 width="36.85px" height="36.85px" viewBox="0 0 36.85 36.85" enable-background="new 0 0 36.85 36.85" xml:space="preserve">
<g>
	<path fill="#B49B71" d="M19.113,4.876c0-0.016,0.01-0.027,0.01-0.044c0-0.557-0.453-1.009-1.01-1.009
		c-0.559,0-1.011,0.453-1.011,1.009c0,0.017,0.008,0.027,0.01,0.043c-9.589,0.439-15.774,6.982-15.85,7.025
		c0.008,0.024,0.025,0.073,0.025,0.073s10.557,0,15.865,0c0,0.725,0,1.415,0,2.107c0,0.684,0,1.367,0,2.05c0,0.694,0,1.39,0,2.083
		c0,0.684-0.004,1.365,0,2.052c0.006,0.687-0.021,1.377,0.017,2.058c0.66,0,1.271,0,1.917,0c0-3.458,0-6.891,0-10.358
		c0.908,0,1.78,0,2.653,0c0.89,0,1.775,0,2.666,0c0.875,0,1.753,0,2.631,0c0.885,0,1.774,0,2.665-0.001
		c0.876,0,1.754,0.003,2.629-0.003c0.874-0.003,1.748,0.021,2.621-0.013c0.006-0.027,0.014-0.082,0.014-0.082
		S28.7,5.319,19.113,4.876z"/>
	<path fill="#B49B71" d="M19.688,32.751c0-0.145,0-0.27,0-0.395c0.001-0.752,0.001-1.505,0.001-2.255
		c0.001-1.276,0.009-2.552-0.003-3.827c-0.004-0.242,0.077-0.374,0.294-0.466c0.188-0.078,0.367-0.183,0.541-0.291
		c0.199-0.124,0.412-0.165,0.647-0.163c1.581,0.007,3.165,0.004,4.747,0.004c0.109,0,0.22-0.012,0.335-0.019
		c0-0.647,0-1.258,0-1.896c-5.441,0-10.846,0-16.256,0c0,0.643,0,1.262,0,1.912c0.149,0,0.272,0,0.395,0
		c1.345,0,2.689,0.023,4.032-0.01c0.667-0.018,1.273,0.082,1.841,0.454c0.209,0.138,0.292,0.26,0.291,0.509
		c-0.01,2.049-0.004,4.097-0.005,6.148c0,0.1-0.014,0.199-0.019,0.291c-1.462,0.438-2.213,0.881-2.439,1.457
		c0.152,0.008,0.299,0.021,0.439,0.021c1.297,0.002,2.595,0.002,3.897,0.002c1.149-0.002,2.299-0.004,3.451-0.007
		c0.09-0.001,0.183-0.024,0.34-0.041C21.538,33.313,20.643,32.99,19.688,32.751z"/>
	<path fill="#B49B71" d="M4.599,28.142c-0.304-2.102-0.536-4.187-0.846-6.253c-0.541,0-1.038,0-1.551,0c0,0.091-0.007,0.158,0,0.223
		C2.331,23.056,2.465,24,2.59,24.945c0.139,1.026,0.274,2.051,0.402,3.076c0.044,0.357,0.111,0.73,0.068,1.084
		c-0.114,0.936-0.284,1.864-0.431,2.793c-0.118,0.75-0.233,1.5-0.36,2.322c0.509,0,0.972,0.002,1.435-0.001
		c0.146,0,0.186-0.098,0.203-0.225c0.091-0.641,0.183-1.28,0.281-1.923c0.117-0.769,0.236-1.543,0.36-2.324c1.56,0,3.103,0,4.667,0
		c0.23,1.492,0.456,2.971,0.682,4.462c0.555,0.013,1.066,0.05,1.594-0.03c-0.329-2.033-0.648-4.024-0.973-6.037
		C8.524,28.142,6.569,28.142,4.599,28.142z"/>
	<path fill="#B49B71" d="M31.623,28.167c-1.993,0-3.948,0-5.913,0c-0.324,2.021-0.646,4.01-0.969,6.031c0.547,0,1.052,0,1.597,0
		c0.226-1.486,0.453-2.963,0.683-4.456c1.584,0,3.118,0,4.666,0c0.229,1.493,0.452,2.97,0.679,4.464
		c0.548,0.005,1.061,0.06,1.593-0.023c-0.067-0.432-0.123-0.824-0.185-1.215c-0.149-0.943-0.305-1.881-0.448-2.825
		c-0.097-0.639-0.265-1.274-0.104-1.925c0.043-0.164,0.053-0.337,0.074-0.505c0.098-0.779,0.19-1.558,0.292-2.335
		c0.125-0.943,0.259-1.89,0.385-2.833c0.027-0.209,0.043-0.422,0.066-0.655c-0.539,0-1.043,0-1.565,0
		C32.166,23.985,31.942,26.069,31.623,28.167z"/>
</g>
</svg>
