<?xml version="1.0" encoding="utf-8"?>
<!-- Generator: Adobe Illustrator 16.0.0, SVG Export Plug-In . SVG Version: 6.00 Build 0)  -->
<!DOCTYPE svg PUBLIC "-//W3C//DTD SVG 1.1//EN" "http://www.w3.org/Graphics/SVG/1.1/DTD/svg11.dtd">
<svg version="1.1" id="Layer_1" xmlns="http://www.w3.org/2000/svg" xmlns:xlink="http://www.w3.org/1999/xlink" x="0px" y="0px"
	 width="36.85px" height="36.85px" viewBox="0 0 36.85 36.85" enable-background="new 0 0 36.85 36.85" xml:space="preserve">
<path fill="#B49B71" d="M25.064,35.964h-5.731c0,0,1.778-0.394,2.104-0.995c0.322-0.601,1.332-6.33-0.888-8.133
	c-2.22-1.802-2.771-3.982-2.765-7.86l4.414-0.021l4.417,0.021c0.007,3.878-0.547,6.06-2.765,7.86
	c-2.221,1.804-1.21,7.534-0.886,8.133C23.283,35.571,25.064,35.964,25.064,35.964"/>
<g>
	<polyline fill="#B49B71" points="16.563,10.137 22.197,18.387 30.679,3.649 22.197,14.199 	"/>
	<path fill="#B49B71" d="M16.413,35.961c0,0,0.469,0.232,0.469-4.666V17.636c0-5.13-3.283-3.87-3.283-7.97V0.563H9.693v9.105
		c0,4.1-3.284,2.839-3.284,7.97v13.659c0,4.896,0.471,4.666,0.471,4.666h9.533"/>
</g>
</svg>
